<svg xmlns="http://www.w3.org/2000/svg" xmlns:xlink="http://www.w3.org/1999/xlink" viewBox="0 0 610 65.79"><defs><style>.cls-1,.cls-10,.cls-11,.cls-12,.cls-13,.cls-14,.cls-15,.cls-16,.cls-2,.cls-3,.cls-4,.cls-5,.cls-6,.cls-7,.cls-8,.cls-9{fill-rule:evenodd;}.cls-1{fill:url(#linear-gradient);}.cls-2{fill:url(#linear-gradient-2);}.cls-3{fill:url(#linear-gradient-3);}.cls-4{fill:url(#linear-gradient-4);}.cls-5{fill:url(#linear-gradient-5);}.cls-6{fill:url(#linear-gradient-6);}.cls-7{fill:url(#linear-gradient-7);}.cls-8{fill:url(#linear-gradient-8);}.cls-9{fill:url(#linear-gradient-9);}.cls-10{fill:url(#linear-gradient-10);}.cls-11{fill:url(#linear-gradient-11);}.cls-12{fill:url(#linear-gradient-12);}.cls-13{fill:url(#linear-gradient-13);}.cls-14{fill:url(#linear-gradient-14);}.cls-15{fill:url(#linear-gradient-15);}.cls-16{fill:url(#linear-gradient-16);}</style><linearGradient id="linear-gradient" x1="1481.85" y1="-2437.5" x2="-1194.66" y2="2596.28" gradientTransform="matrix(1, 0, 0, -1, 0, 138.85)" gradientUnits="userSpaceOnUse"><stop offset="0" stop-color="#a76c26"/><stop offset="1" stop-color="#cd9c3c"/></linearGradient><linearGradient id="linear-gradient-2" x1="287.21" y1="68.58" x2="260.75" y2="118.34" xlink:href="#linear-gradient"/><linearGradient id="linear-gradient-3" x1="254.91" y1="81.71" x2="246.74" y2="97.07" xlink:href="#linear-gradient"/><linearGradient id="linear-gradient-4" x1="26.59" y1="76.37" x2="20.27" y2="88.27" xlink:href="#linear-gradient"/><linearGradient id="linear-gradient-5" x1="246.79" y1="33.04" x2="187.89" y2="143.81" xlink:href="#linear-gradient"/><linearGradient id="linear-gradient-6" x1="314.73" y1="73.11" x2="305.93" y2="89.66" xlink:href="#linear-gradient"/><linearGradient id="linear-gradient-7" x1="310.4" y1="125.51" x2="303.05" y2="139.33" xlink:href="#linear-gradient"/><linearGradient id="linear-gradient-8" x1="213.77" y1="79.13" x2="210.08" y2="86.08" xlink:href="#linear-gradient"/><linearGradient id="linear-gradient-9" x1="1722.63" y1="-2264.06" x2="-770.02" y2="2423.94" xlink:href="#linear-gradient"/><linearGradient id="linear-gradient-10" x1="373.52" y1="74.68" x2="340.91" y2="136.01" xlink:href="#linear-gradient"/><linearGradient id="linear-gradient-11" x1="382.87" y1="83.98" x2="376.48" y2="96" xlink:href="#linear-gradient"/><linearGradient id="linear-gradient-12" x1="588.36" y1="79.54" x2="584.87" y2="86.09" xlink:href="#linear-gradient"/><linearGradient id="linear-gradient-13" x1="418.45" y1="66.38" x2="401.7" y2="97.88" xlink:href="#linear-gradient"/><linearGradient id="linear-gradient-14" x1="326.86" y1="68.11" x2="312.35" y2="95.4" xlink:href="#linear-gradient"/><linearGradient id="linear-gradient-15" x1="328.62" y1="122.64" x2="320.08" y2="138.7" xlink:href="#linear-gradient"/><linearGradient id="linear-gradient-16" x1="422.11" y1="73.34" x2="413.41" y2="89.71" xlink:href="#linear-gradient"/></defs><g id="Layer_2" data-name="Layer 2"><g id="Layer_1-2" data-name="Layer 1"><path class="cls-1" d="M22,58.42H283.72a1.78,1.78,0,0,1,1.44-.7,1.51,1.51,0,1,1,0,3c-.55,0-1.11-.3-1.44-.3H22.23C14.56,60,6.78,59.92,0,59.32,6.67,58.12,14.56,58.42,22,58.42Z"/><path class="cls-2" d="M288.22,64.72c4.55,0,5.89-3.1,4.66-6.7,31-7.1,24.68-48.9-5.89-47.6-19,.8-30.67,23.3-16.66,36l5.89-6.4c-6.34-5-4.78-17.1,11.11-17.2,10.33,0,17.22,6.6,17.11,14.8-.22,13.2-20.56,21.1-34.11,11a17.9,17.9,0,0,1-13,4.8H234c-7.9.2-12.45-4.3-12.78-9.6-.34-4.6,3.22-10.1,12.22-10.3,5.78-.1,11.33,3.4,11.33,8.1s-4.77,7-8.44,7c-8.89,0-9.22-9.3-1-9.2,4.44.1,5,4.6,1.78,4.6a1.81,1.81,0,0,1-1.45-3.1,2.77,2.77,0,0,0-3.11,3.1,3.65,3.65,0,0,0,3.89,3.1,5.4,5.4,0,0,0,5.67-5.6c0-3.8-4-7.1-8.56-6.9a8.59,8.59,0,0,0-8.67,8.8,9.27,9.27,0,0,0,9.23,9h23.11a19,19,0,0,0,11.78-5c-18.56-11.9-8.33-38.6,18.67-38.7C301.22,8.72,311,14.92,315,23v22.4c-3.11,6.2-10,11.3-19.67,13.5,2.44,5.9-4.22,8.5-7.11,5.8Zm-17.17-16.9c11.78,9,27.78,3.3,28.67-9.4a13.09,13.09,0,0,0-14-13.7c-9.23.6-11.78,9.6-8.34,14,2.56-2.5,5-4.2,7.67-4.5,10.78-1.3,10.67,10.1.22,9.8-2.89-.1-6.33-.6-8.44-2.5l-5.78,6.3Zm7.33-7.9a8.56,8.56,0,0,0,7,2.6c5.55-.7,4.77-7-.23-6.8C282.94,35.82,280.72,37.62,278.38,39.92Z"/><path class="cls-3" d="M253.45,48.22a1.82,1.82,0,0,0,1.33-1.77c-.06-2.16-2.69-3.23-4.67-3-3.78.3-5,2.8-5.22,4.2-.34,3,2.11,6.4,11.11,6.3v-1.3c-3.89,0-8.45-1.1-8.45-4.7a3.18,3.18,0,0,1,4-3,1.63,1.63,0,0,0-.77,1.5A2,2,0,0,0,253.45,48.22Z"/><path class="cls-4" d="M24.23,58.92c-.45,0-1.56.5-2.23.3a3.12,3.12,0,0,1-2.55-2.8,3.18,3.18,0,0,1,2.89-3,4.4,4.4,0,0,1,4.55,1.7c1,1.4-1,3-2.66,2-.89-.5-1-1.7-2-1.7C20.23,55.32,21.11,58.32,24.23,58.92Z"/><path class="cls-5" d="M217.6,58.42h9.77c-6.33-1-11.66-3.1-10.44-9.5C212.48,50.62,212.82,56.72,217.6,58.42Z"/><path class="cls-6" d="M307.78,52.22c.89,4.5,3.22,6.6,7.22,7.4v2.5c-5.56-1.1-9.34-4.2-9.67-9.2Z"/><path class="cls-7" d="M303.33,15c-7.44-4.5-5.78-14.4,3.78-15A8.57,8.57,0,0,1,315,3.82v6a6.5,6.5,0,0,1-5.45,2.8c-6.66-.1-6.89-7.7-1.11-7.9,1.89-.1,3.78,1.3,3.78,3.1A1.29,1.29,0,0,1,310.89,9a1.37,1.37,0,0,1-1.34-1.2,1.09,1.09,0,0,1,.56-1,1.84,1.84,0,0,0-1.56-.5c-3.22.2-2.44,5.1,1.12,5,6.66-.3,5.77-9.7-2.45-9.6-6.44.1-8.33,8.6-2.89,12.3Z"/><path class="cls-8" d="M211.15,58.42h4.67c-3-.5-5.56-1.7-5-5.1C208.7,54.22,208.82,57.52,211.15,58.42Z"/><path class="cls-9" d="M587.88,58.42H346.29a1.81,1.81,0,0,0-1.45-.7,1.51,1.51,0,1,0,0,3c.56,0,1.11-.3,1.45-.3H587.77c7.67-.4,15.45-.5,22.23-1.1C603.22,58.12,595.44,58.42,587.88,58.42Z"/><path class="cls-10" d="M342.78,64.72c-4.55,0-5.89-3.1-4.66-6.7-31-7.1-24.68-48.9,5.89-47.6,19,.8,30.67,23.3,16.66,36L354.79,40c6.33-5,4.77-17.1-11.12-17.2-10.33,0-17.22,6.6-17.11,14.8.22,13.2,20.56,21.1,34.11,11a17.9,17.9,0,0,0,13,4.8H397c7.9.2,12.45-4.3,12.79-9.6.33-4.6-3.23-10.1-12.23-10.3-5.78-.1-11.33,3.4-11.33,8.1s4.77,7,8.44,7c8.89,0,9.23-9.3,1-9.2-4.44.1-5,4.6-1.78,4.6a1.81,1.81,0,0,0,1.45-3.1,2.77,2.77,0,0,1,3.11,3.1,3.65,3.65,0,0,1-3.89,3.1,5.4,5.4,0,0,1-5.67-5.6c0-3.8,4-7.1,8.56-6.9a8.59,8.59,0,0,1,8.67,8.8,9.27,9.27,0,0,1-9.23,9H373.34a19,19,0,0,1-11.78-5c18.56-11.9,8.34-38.6-18.67-38.7-13.55,0-23.33,6.2-27.89,14.3v22.4c3.67,6.2,10.56,11.3,20.23,13.5a4.9,4.9,0,0,0,7.55,5.8Zm16.06-16.9c-11.78,9-27.78,3.3-28.67-9.4a13.1,13.1,0,0,1,14-13.7c9.23.6,11.78,9.6,8.34,14-2.56-2.5-5-4.2-7.67-4.5-10.78-1.3-10.67,10.1-.22,9.8,2.89-.1,6.33-.6,8.44-2.5l5.78,6.3Zm-7.33-7.9a8.55,8.55,0,0,1-7,2.6c-5.56-.7-4.78-7,.22-6.8C347,35.82,349.29,37.62,351.51,39.92Z"/><path class="cls-11" d="M377.55,48.22a1.82,1.82,0,0,1-1.33-1.77c.06-2.16,2.69-3.23,4.67-3,3.78.3,5,2.8,5.22,4.2.34,3-2.11,6.4-11.11,6.3v-1.3c3.89,0,8.45-1.1,8.45-4.7a3.18,3.18,0,0,0-4-3,1.89,1.89,0,0,1,.77,1.5A2,2,0,0,1,377.55,48.22Z"/><path class="cls-12" d="M585.66,58.92c.45,0,1.56.5,2.22.3a3.12,3.12,0,0,0,2.56-2.8,3.18,3.18,0,0,0-2.89-3,4.4,4.4,0,0,0-4.55,1.7c-1,1.4,1,3,2.66,2,.89-.5,1-1.7,2-1.7C589.66,55.32,588.77,58.32,585.66,58.92Z"/><path class="cls-13" d="M412.3,58.42h-9.78c6.33-1,11.67-3.1,10.44-9.5C417.41,50.62,417.19,56.72,412.3,58.42Z"/><path class="cls-14" d="M322.22,52.22c-.89,4.5-3.22,6.6-7.22,7.4v2.5c5.56-1.1,9.34-4.2,9.67-9.2Z"/><path class="cls-15" d="M327.67,15c7.44-4.5,5.78-14.4-3.78-15A8.57,8.57,0,0,0,316,3.82v6a6.5,6.5,0,0,0,5.45,2.8c6.66-.1,6.89-7.7,1.11-7.9-1.89-.1-3.78,1.3-3.78,3.1A1.29,1.29,0,0,0,320.11,9a1.37,1.37,0,0,0,1.34-1.2,1.09,1.09,0,0,0-.56-1,1.84,1.84,0,0,1,1.56-.5c3.22.2,2.44,5.1-1.12,5-6.66-.3-5.77-9.7,2.45-9.6,6.44.1,8.33,8.6,2.89,12.3Z"/><path class="cls-16" d="M418.85,58.42h-4.66c3-.5,5.55-1.7,5-5.1C421.3,54.22,421.19,57.52,418.85,58.42Z"/></g></g></svg>