<svg xmlns="http://www.w3.org/2000/svg" xmlns:xlink="http://www.w3.org/1999/xlink" viewBox="0 0 609.89 65.7"><defs><style>.cls-1,.cls-10,.cls-11,.cls-12,.cls-13,.cls-14,.cls-15,.cls-16,.cls-2,.cls-3,.cls-4,.cls-5,.cls-6,.cls-7,.cls-8,.cls-9{fill-rule:evenodd;}.cls-1{fill:url(#linear-gradient);}.cls-2{fill:url(#linear-gradient-2);}.cls-3{fill:url(#linear-gradient-3);}.cls-4{fill:url(#linear-gradient-4);}.cls-5{fill:url(#linear-gradient-5);}.cls-6{fill:url(#linear-gradient-6);}.cls-7{fill:url(#linear-gradient-7);}.cls-8{fill:url(#linear-gradient-8);}.cls-9{fill:url(#linear-gradient-9);}.cls-10{fill:url(#linear-gradient-10);}.cls-11{fill:url(#linear-gradient-11);}.cls-12{fill:url(#linear-gradient-12);}.cls-13{fill:url(#linear-gradient-13);}.cls-14{fill:url(#linear-gradient-14);}.cls-15{fill:url(#linear-gradient-15);}.cls-16{fill:url(#linear-gradient-16);}</style><linearGradient id="linear-gradient" x1="938.62" y1="-3233.98" x2="-1551.63" y2="1449.49" gradientTransform="matrix(-1, 0, 0, 1, 169.77, 898.53)" gradientUnits="userSpaceOnUse"><stop offset="0" stop-color="#a76c26"/><stop offset="1" stop-color="#cd9c3c"/></linearGradient><linearGradient id="linear-gradient-2" x1="-173.51" y1="-902.87" x2="-200.06" y2="-852.94" xlink:href="#linear-gradient"/><linearGradient id="linear-gradient-3" x1="-206.24" y1="-889.92" x2="-214.4" y2="-874.56" xlink:href="#linear-gradient"/><linearGradient id="linear-gradient-4" x1="-413.44" y1="-895.27" x2="-419.77" y2="-883.37" xlink:href="#linear-gradient"/><linearGradient id="linear-gradient-5" x1="-213.27" y1="-939.15" x2="-272.15" y2="-828.41" xlink:href="#linear-gradient"/><linearGradient id="linear-gradient-6" x1="-145.42" y1="-898.52" x2="-154.22" y2="-881.97" xlink:href="#linear-gradient"/><linearGradient id="linear-gradient-7" x1="-150.72" y1="-846.17" x2="-158.07" y2="-832.34" xlink:href="#linear-gradient"/><linearGradient id="linear-gradient-8" x1="-246.35" y1="-893.1" x2="-250.04" y2="-886.16" xlink:href="#linear-gradient"/><linearGradient id="linear-gradient-9" x1="1365.13" y1="-3409.97" x2="-1312.85" y2="1626.58" xlink:href="#linear-gradient"/><linearGradient id="linear-gradient-10" x1="-87.23" y1="-896.66" x2="-119.77" y2="-835.45" xlink:href="#linear-gradient"/><linearGradient id="linear-gradient-11" x1="-78.28" y1="-887.65" x2="-84.67" y2="-875.63" xlink:href="#linear-gradient"/><linearGradient id="linear-gradient-12" x1="148.21" y1="-892.1" x2="144.73" y2="-885.54" xlink:href="#linear-gradient"/><linearGradient id="linear-gradient-13" x1="-41.64" y1="-905.81" x2="-58.38" y2="-874.31" xlink:href="#linear-gradient"/><linearGradient id="linear-gradient-14" x1="-133.28" y1="-903.53" x2="-147.79" y2="-876.24" xlink:href="#linear-gradient"/><linearGradient id="linear-gradient-15" x1="-132.5" y1="-849.03" x2="-141.04" y2="-832.97" xlink:href="#linear-gradient"/><linearGradient id="linear-gradient-16" x1="-38.05" y1="-898.89" x2="-46.75" y2="-882.52" xlink:href="#linear-gradient"/></defs><g id="Layer_2" data-name="Layer 2"><g id="Layer_1-2" data-name="Layer 1"><path class="cls-1" d="M587.78,7.81H346.22a10.44,10.44,0,0,1-1.44.3,1.63,1.63,0,0,1-1.67-1.5,1.63,1.63,0,0,1,1.67-1.5,2,2,0,0,1,1.44.7H587.67c7.66,0,15.44.1,22.22.7C603.11,7.61,595.33,7.41,587.78,7.81Z"/><path class="cls-2" d="M342.67,1c-4.56,0-5.89,3.1-4.67,6.7-31,7.1-24.67,48.9,5.89,47.6,19-.8,30.67-23.3,16.67-36l-5.89,6.4c6.33,5,4.77,17.1-11.11,17.2-10.34,0-17.23-6.6-17.12-14.8.23-13.2,20.56-21.1,34.12-11a15.68,15.68,0,0,1,13-4.3h23.33c7.89-.7,12.44,3.8,12.78,9.1.33,4.6-3.23,10.1-12.23,10.3-5.77.1-11.33-3.4-11.33-8.1s4.78-7,8.45-7c8.88,0,9.22,9.3,1,9.2-4.45-.1-5-4.6-1.78-4.6a1.81,1.81,0,0,1,1.44,3.1,2.76,2.76,0,0,0,3.11-3.1,3.65,3.65,0,0,0-3.89-3.1,5.4,5.4,0,0,0-5.66,5.6c0,3.8,4,7.1,8.55,6.9a8.66,8.66,0,1,0-.55-17.3H373.22a16.2,16.2,0,0,0-11.78,4.5c18.56,11.9,8.34,38.6-18.66,38.7-13.56,0-23.34-6.2-27.89-14.3V20.51c3.67-6.2,10.55-11.3,20.22-13.5-2-6,4.56-8.6,7.56-6Zm16.11,16.87c-11.78-9-27.78-3.3-28.67,9.4a13.1,13.1,0,0,0,14,13.7c9.22-.6,11.78-9.6,8.33-14-2.55,2.5-5,4.2-7.66,4.5-10.78,1.3-10.67-10.1-.22-9.8,2.88.1,6.33.6,8.44,2.5l5.78-6.3Zm-7.34,7.9a8.53,8.53,0,0,0-7-2.6c-5.55.7-4.77,7,.23,6.8C346.89,30,349.11,28.18,351.44,25.78Z"/><path class="cls-3" d="M377.44,17.48a1.81,1.81,0,0,0-1.33,1.77c.06,2.16,2.69,3.23,4.67,3,3.78-.3,5-2.8,5.22-4.2.33-3-2.11-6.4-11.11-6.3v1.3c3.89,0,8.44,1.1,8.44,4.7a3.17,3.17,0,0,1-4,3,1.62,1.62,0,0,0,.78-1.5A2,2,0,0,0,377.44,17.48Z"/><path class="cls-4" d="M585.56,6.78c.44,0,1.55-.5,2.22-.3a3.12,3.12,0,0,1,2.55,2.8,3.18,3.18,0,0,1-2.89,3,4.41,4.41,0,0,1-4.55-1.7c-1-1.4,1-3,2.67-2,.88.5,1,1.7,2,1.7C589.56,10.48,588.67,7.48,585.56,6.78Z"/><path class="cls-5" d="M412.22,6.81h-9.78c6.34,1,11.67,3.1,10.45,9.5C417.33,14.51,417.11,8.51,412.22,6.81Z"/><path class="cls-6" d="M322.11,13.48c-.89-4.5-3.22-6.6-7.22-7.4V3.58c5.55,1.1,9.33,4.2,9.67,9.2Z"/><path class="cls-7" d="M327.56,50.68c7.44,4.5,5.77,14.4-3.78,15a8.57,8.57,0,0,1-7.89-3.8v-6a6.48,6.48,0,0,1,5.44-2.8c6.67.1,6.89,7.7,1.11,7.9-1.88.1-3.77-1.3-3.77-3.1a1.29,1.29,0,0,1,1.33-1.2,1.35,1.35,0,0,1,1.33,1.2,1,1,0,0,1-.55,1,1.83,1.83,0,0,0,1.55.5c3.23-.2,2.45-5.1-1.11-5-6.66.3-5.78,9.7,2.45,9.6,6.44-.1,8.33-8.6,2.89-12.3Z"/><path class="cls-8" d="M418.78,6.81h-4.67c3,.5,5.56,1.7,5,5.1A2.79,2.79,0,0,0,418.78,6.81Z"/><path class="cls-9" d="M22,7.81H283.67a10.11,10.11,0,0,0,1.44.3,1.63,1.63,0,0,0,1.67-1.5,1.63,1.63,0,0,0-1.67-1.5,2,2,0,0,0-1.44.7H22.22c-7.66,0-15.44.1-22.22.7C6.67,7.61,14.56,7.41,22,7.81Z"/><path class="cls-10" d="M288.11,1c4.56,0,5.89,3.1,4.67,6.7,31,7.1,24.66,48.9-5.89,47.6-19-.8-30.67-23.3-16.67-36l5.89,6.4c-6.33,5-4.78,17.1,11.11,17.2,10.34,0,17.22-6.6,17.11-14.8-.22-13.2-20.55-21.1-34.11-11a15.69,15.69,0,0,0-13-4.3H233.89c-7.89-.7-12.45,3.8-12.78,9.1-.33,4.6,3.22,10.1,12.22,10.3,5.78.1,11.34-3.4,11.34-8.1s-4.78-7-8.45-7c-8.89,0-9.22,9.3-1,9.2,4.45-.1,5-4.6,1.78-4.6a1.81,1.81,0,0,0-1.44,3.1,2.77,2.77,0,0,1-3.12-3.1,3.66,3.66,0,0,1,3.89-3.1,5.4,5.4,0,0,1,5.67,5.6c0,3.8-4,7.1-8.56,6.9a8.66,8.66,0,1,1,.56-17.3h23.11a16.17,16.17,0,0,1,11.78,4.5c-18.56,11.9-8.33,38.6,18.67,38.7,13.55,0,23.33-6.2,27.33-14.3V20.51c-3.11-6.2-10-11.3-19.67-13.5,2.45-6-4.22-8.6-7.11-6ZM271,17.88c11.78-9,27.78-3.3,28.67,9.4a13.1,13.1,0,0,1-14,13.7c-9.23-.6-11.78-9.6-8.34-14,2.56,2.5,5,4.2,7.67,4.5,10.78,1.3,10.67-10.1.22-9.8-2.89.1-6.33.6-8.44,2.5L271,17.88Zm7.33,7.9a8.55,8.55,0,0,1,7-2.6c5.56.7,4.78,7-.22,6.8C282.89,30,280.67,28.18,278.33,25.78Z"/><path class="cls-11" d="M253.34,17.48a1.82,1.82,0,0,1,1.33,1.77c-.06,2.16-2.69,3.23-4.67,3-3.78-.3-5-2.8-5.22-4.2-.34-3,2.11-6.4,11.11-6.3v1.3c-3.89,0-8.45,1.1-8.45,4.7a3.18,3.18,0,0,0,4,3,1.89,1.89,0,0,1-.77-1.5A2,2,0,0,1,253.34,17.48Z"/><path class="cls-12" d="M24.22,6.78c-.44,0-1.55-.5-2.22-.3a3.14,3.14,0,0,0-2.56,2.8,3.18,3.18,0,0,0,2.89,3,4.42,4.42,0,0,0,4.56-1.7c1-1.4-1-3-2.67-2-.89.5-1,1.7-2,1.7C20.22,10.48,21.11,7.48,24.22,6.78Z"/><path class="cls-13" d="M217.56,6.81h9.77c-6.33,1-11.66,3.1-10.44,9.5C212.44,14.51,212.78,8.51,217.56,6.81Z"/><path class="cls-14" d="M307.67,13.48c.89-4.5,3.22-6.6,7.22-7.4V3.58c-5.56,1.1-9.33,4.2-9.67,9.2Z"/><path class="cls-15" d="M303.22,50.68c-7.44,4.5-5.78,14.4,3.78,15a8.58,8.58,0,0,0,7.89-3.8v-6a6.5,6.5,0,0,0-5.45-2.8c-6.66.1-6.88,7.7-1.11,7.9,1.89.1,3.78-1.3,3.78-3.1a1.29,1.29,0,0,0-1.33-1.2,1.37,1.37,0,0,0-1.34,1.2,1,1,0,0,0,.56,1,1.84,1.84,0,0,1-1.56.5c-3.22-.2-2.44-5.1,1.12-5,6.66.3,5.77,9.7-2.45,9.6-6.44-.1-8.33-8.6-2.89-12.3Z"/><path class="cls-16" d="M211.11,6.81h4.67c-3,.5-5.56,1.7-5,5.1A2.79,2.79,0,0,1,211.11,6.81Z"/></g></g></svg>