<?xml version="1.0" encoding="utf-8"?>
<!-- Generator: Adobe Illustrator 23.0.0, SVG Export Plug-In . SVG Version: 6.00 Build 0)  -->
<svg version="1.1" id="Layer_1" xmlns="http://www.w3.org/2000/svg" xmlns:xlink="http://www.w3.org/1999/xlink" x="0px" y="0px"
	 viewBox="0 0 94 97" style="enable-background:new 0 0 94 97;" xml:space="preserve">
<style type="text/css">
	.st0{fill:#B53368;}
	.st1{fill:#FFFFFF;}
</style>
<g>
	<circle class="st0" cx="47.7" cy="49.5" r="37.2"/>
	<path class="st1" d="M66.1,59.8c-0.2,0.4-0.4,0.8-0.6,1.1c-0.5,0.7-1.3,0.8-2.1,0.8c-8.7,0-17.4,0-26,0c-1.4,0-2.8,0-4.3,0
		c-1.7,0-2.7-1-2.7-2.7c0-6.3,0-12.7,0-19c0-1.7,1-2.7,2.7-2.7c10.1,0,20.2,0,30.3,0c1.4,0,2.3,0.6,2.7,1.9
		C66.1,46.1,66.1,53,66.1,59.8z M64.5,41.4c-0.2,0.1-0.3,0.2-0.5,0.4c-3.8,3-7.7,5.9-11.5,8.9c-0.5,0.4-1,0.8-1.6,1.1
		c-2.4,1.1-4.7,0.8-6.8-0.8c-3.9-3-7.8-6.1-11.8-9.1c-0.1-0.1-0.3-0.2-0.5-0.3c0,5.5,0,10.9,0,16.3c0.2-0.1,0.3-0.2,0.5-0.3
		c2.6-2,5.1-4,7.7-6c0.2-0.1,0.3-0.3,0.5-0.3c0.4-0.2,0.7-0.1,0.9,0.3c0.1,0.2,0,0.6,0,0.9c0,0.1-0.2,0.2-0.4,0.3
		c-1.8,1.4-3.5,2.7-5.3,4.1c-1.3,1-2.6,2-3.9,3c0.3,0.6,0.7,0.6,1.2,0.6c10.1,0,20.1,0,30.2,0c0.2,0,0.3,0,0.5,0
		c0.3-0.1,0.5-0.3,0.8-0.4c-0.2-0.2-0.3-0.3-0.4-0.4c-2.9-2.2-5.8-4.5-8.6-6.7c-0.2-0.1-0.3-0.2-0.5-0.4c-0.3-0.3-0.3-0.6-0.1-1
		c0.3-0.3,0.6-0.4,1-0.2c0.1,0.1,0.3,0.2,0.4,0.3c2.6,2,5.2,4,7.8,6c0.1,0.1,0.2,0.2,0.4,0.3C64.5,52.2,64.5,46.8,64.5,41.4z
		 M31.8,39.3c0.2,0.2,0.2,0.2,0.3,0.3c4.4,3.4,8.7,6.7,13.1,10.1c0.5,0.4,1.1,0.7,1.6,0.9c1.7,0.5,3.2,0.1,4.6-1
		c3.2-2.5,6.5-5,9.7-7.5c1.1-0.9,2.2-1.7,3.4-2.6c-0.2-0.6-0.7-0.6-1.2-0.6c-10.1,0-20.1,0-30.2,0c-0.1,0-0.3,0-0.4,0
		C32.5,39,32.2,39.2,31.8,39.3z"/>
</g>
</svg>
