<?xml version="1.0" encoding="utf-8"?>
<!-- Generator: Adobe Illustrator 23.0.0, SVG Export Plug-In . SVG Version: 6.00 Build 0)  -->
<svg version="1.1" id="Layer_1" xmlns="http://www.w3.org/2000/svg" xmlns:xlink="http://www.w3.org/1999/xlink" x="0px" y="0px"
	 viewBox="0 0 610 586" style="enable-background:new 0 0 610 586;" xml:space="preserve">
<style type="text/css">
	.st0{fill-rule:evenodd;clip-rule:evenodd;fill:url(#SVGID_1_);}
	.st1{fill-rule:evenodd;clip-rule:evenodd;fill:url(#SVGID_2_);}
	.st2{fill-rule:evenodd;clip-rule:evenodd;fill:url(#SVGID_3_);}
	.st3{fill-rule:evenodd;clip-rule:evenodd;fill:url(#SVGID_4_);}
	.st4{fill-rule:evenodd;clip-rule:evenodd;fill:url(#SVGID_5_);}
	.st5{fill-rule:evenodd;clip-rule:evenodd;fill:url(#SVGID_6_);}
	.st6{fill-rule:evenodd;clip-rule:evenodd;fill:url(#SVGID_7_);}
	.st7{fill-rule:evenodd;clip-rule:evenodd;fill:url(#SVGID_8_);}
	.st8{fill-rule:evenodd;clip-rule:evenodd;fill:url(#SVGID_9_);}
	.st9{fill-rule:evenodd;clip-rule:evenodd;fill:url(#SVGID_10_);}
	.st10{fill-rule:evenodd;clip-rule:evenodd;fill:url(#SVGID_11_);}
	.st11{fill-rule:evenodd;clip-rule:evenodd;fill:url(#SVGID_12_);}
	.st12{fill-rule:evenodd;clip-rule:evenodd;fill:url(#SVGID_13_);}
	.st13{fill-rule:evenodd;clip-rule:evenodd;fill:url(#SVGID_14_);}
	.st14{fill-rule:evenodd;clip-rule:evenodd;fill:url(#SVGID_15_);}
	.st15{fill-rule:evenodd;clip-rule:evenodd;fill:url(#SVGID_16_);}
	.st16{fill-rule:evenodd;clip-rule:evenodd;fill:url(#SVGID_17_);}
	.st17{fill-rule:evenodd;clip-rule:evenodd;fill:url(#SVGID_18_);}
	.st18{fill-rule:evenodd;clip-rule:evenodd;fill:url(#SVGID_19_);}
	.st19{fill-rule:evenodd;clip-rule:evenodd;fill:url(#SVGID_20_);}
	.st20{fill-rule:evenodd;clip-rule:evenodd;fill:url(#SVGID_21_);}
	.st21{fill-rule:evenodd;clip-rule:evenodd;fill:url(#SVGID_22_);}
	.st22{fill-rule:evenodd;clip-rule:evenodd;fill:url(#SVGID_23_);}
	.st23{fill-rule:evenodd;clip-rule:evenodd;fill:url(#SVGID_24_);}
	.st24{fill-rule:evenodd;clip-rule:evenodd;fill:url(#SVGID_25_);}
	.st25{fill-rule:evenodd;clip-rule:evenodd;fill:url(#SVGID_26_);}
	.st26{fill-rule:evenodd;clip-rule:evenodd;fill:url(#SVGID_27_);}
	.st27{fill-rule:evenodd;clip-rule:evenodd;fill:url(#SVGID_28_);}
	.st28{fill-rule:evenodd;clip-rule:evenodd;fill:url(#SVGID_29_);}
	.st29{fill-rule:evenodd;clip-rule:evenodd;fill:url(#SVGID_30_);}
	.st30{fill-rule:evenodd;clip-rule:evenodd;fill:url(#SVGID_31_);}
	.st31{fill-rule:evenodd;clip-rule:evenodd;fill:url(#SVGID_32_);}
</style>
<g>
	<g>
		<linearGradient id="SVGID_1_" gradientUnits="userSpaceOnUse" x1="1366.5225" y1="2507.8418" x2="-1044.0149" y2="-2025.7197">
			<stop  offset="0" style="stop-color:#A76C26"/>
			<stop  offset="1" style="stop-color:#CD9C3C"/>
		</linearGradient>
		<path class="st0" d="M51.8,240h235.5c0.3-0.4,0.7-0.7,1.3-0.7c0.8,0,1.5,0.7,1.5,1.5c0,0.8-0.7,1.5-1.5,1.5c-0.5,0-1-0.3-1.3-0.7
			H52c-6.9,0-13.9-0.1-20-0.7C38,239.7,45.1,240,51.8,240z"/>
		<linearGradient id="SVGID_2_" gradientUnits="userSpaceOnUse" x1="291.3767" y1="250.7073" x2="265.9777" y2="202.9386">
			<stop  offset="0" style="stop-color:#A76C26"/>
			<stop  offset="1" style="stop-color:#CD9C3C"/>
		</linearGradient>
		<path class="st1" d="M290.9,246.3c4.1,0,5.3-3.1,4.2-6.7c27.9-7.1,22.2-48.9-5.3-47.6c-17.1,0.8-27.6,23.3-15,36l5.3-6.4
			c-5.7-5-4.3-17.1,10-17.2c9.3,0,15.5,6.6,15.4,14.8c-0.2,13.2-18.5,21.1-30.7,11c-3.2,3.2-7.1,5-11.7,5h-21
			c-7.1,0-11.2-4.5-11.5-9.8c-0.3-4.6,2.9-10.1,11-10.3c5.2-0.1,10.2,3.4,10.2,8.1c0,4.7-4.3,7-7.6,7c-8,0-8.3-9.3-0.9-9.2
			c4,0.1,4.5,4.6,1.6,4.6c-1.6,0-2.4-1.9-1.3-3.1c-1.4-0.2-3.1,1.1-2.8,3.1c0.2,2,1.8,3.1,3.5,3.1c2.4,0.1,5.1-1.8,5.1-5.6
			c0-3.8-3.6-7.1-7.7-6.9c-5.3,0.2-7.9,4.8-7.8,8.8c0.1,4.2,2.9,8.7,8.3,8.7H263c4.2,0,7.7-1.8,10.6-4.7
			c-16.7-11.9-7.5-38.6,16.8-38.7c12.2,0,21,6.2,24.9,14.3V227c-3.1,6.2-9.3,11.3-18,13.5C299.5,246.4,293.5,249,290.9,246.3
			L290.9,246.3z M275.9,229c10.6,9,25,3.3,25.8-9.4c0.4-7.1-4.9-14.2-12.6-13.7c-8.3,0.6-10.6,9.6-7.5,14c2.3-2.5,4.5-4.2,6.9-4.5
			c9.7-1.3,9.6,10.1,0.2,9.8c-2.6-0.1-5.7-0.6-7.6-2.5L275.9,229L275.9,229z M282.5,221.1c2.1,2.2,4.4,2.9,6.3,2.6
			c5-0.7,4.3-7-0.2-6.8C286.6,217,284.6,218.8,282.5,221.1z"/>
		<linearGradient id="SVGID_3_" gradientUnits="userSpaceOnUse" x1="261.1016" y1="237.9689" x2="253.194" y2="223.0969">
			<stop  offset="0" style="stop-color:#A76C26"/>
			<stop  offset="1" style="stop-color:#CD9C3C"/>
		</linearGradient>
		<path class="st2" d="M258.8,229.5c1,0,1.8-0.8,1.8-1.8c0-2.2-2.4-3.3-4.2-3.1c-3.4,0.3-4.5,2.8-4.7,4.2c-0.3,3,1.9,6.4,10,6.3
			v-1.3c-3.5,0-7.6-1.1-7.6-4.7c0-2.4,2.1-3.4,3.6-3c-0.5,0.3-0.7,0.9-0.7,1.5C257,228.7,257.8,229.5,258.8,229.5z"/>
		<linearGradient id="SVGID_4_" gradientUnits="userSpaceOnUse" x1="56.2486" y1="243.5043" x2="50.0727" y2="231.8892">
			<stop  offset="0" style="stop-color:#A76C26"/>
			<stop  offset="1" style="stop-color:#CD9C3C"/>
		</linearGradient>
		<path class="st3" d="M53.8,240.1c-0.4,0-1.4,0.5-2,0.3c-1.2-0.4-2.2-1.2-2.3-2.8c0-1.3,0.9-2.7,2.6-3c1.7-0.3,3.3,0.3,4.1,1.7
			c0.9,1.4-0.9,3-2.4,2c-0.8-0.5-0.9-1.7-1.8-1.7C50.2,236.5,51,239.5,53.8,240.1z"/>
		<linearGradient id="SVGID_5_" gradientUnits="userSpaceOnUse" x1="255.6251" y1="285.662" x2="199.0036" y2="179.1723">
			<stop  offset="0" style="stop-color:#A76C26"/>
			<stop  offset="1" style="stop-color:#CD9C3C"/>
		</linearGradient>
		<path class="st4" d="M227.8,240.3h8.8c-5.7-1-10.5-3.1-9.4-9.5C223.2,232.5,223.5,238.6,227.8,240.3z"/>
		<linearGradient id="SVGID_6_" gradientUnits="userSpaceOnUse" x1="315.4221" y1="246.6329" x2="306.9383" y2="230.6771">
			<stop  offset="0" style="stop-color:#A76C26"/>
			<stop  offset="1" style="stop-color:#CD9C3C"/>
		</linearGradient>
		<path class="st5" d="M308.9,233.4c0.8,4.5,2.9,6.6,6.5,7.4v2.5c-5-1.1-8.4-4.2-8.7-9.2L308.9,233.4z"/>
		<linearGradient id="SVGID_7_" gradientUnits="userSpaceOnUse" x1="311.4495" y1="194.2931" x2="304.3385" y2="180.9193">
			<stop  offset="0" style="stop-color:#A76C26"/>
			<stop  offset="1" style="stop-color:#CD9C3C"/>
		</linearGradient>
		<path class="st6" d="M304.9,196.2c-6.7-4.5-5.2-14.4,3.4-15c2.9-0.2,5.8,1.3,7.1,3.8v6c-1.1,1.9-3.1,2.8-4.9,2.8
			c-6-0.1-6.2-7.7-1-7.9c1.7-0.1,3.4,1.3,3.4,3.1c0,0.7-0.6,1.2-1.2,1.2c-0.7,0-1.2-0.7-1.2-1.2s0.2-0.8,0.5-1
			c-0.4-0.4-0.9-0.6-1.4-0.5c-2.9,0.2-2.2,5.1,1,5c6-0.3,5.2-9.7-2.2-9.6c-5.8,0.1-7.5,8.6-2.6,12.3L304.9,196.2z"/>
		<linearGradient id="SVGID_8_" gradientUnits="userSpaceOnUse" x1="224.3789" y1="241.4628" x2="220.8162" y2="234.7622">
			<stop  offset="0" style="stop-color:#A76C26"/>
			<stop  offset="1" style="stop-color:#CD9C3C"/>
		</linearGradient>
		<path class="st7" d="M222,240.3h4.2c-2.7-0.5-5-1.7-4.5-5.1C219.8,236.1,219.9,239.4,222,240.3z"/>
	</g>
	<g>
		<linearGradient id="SVGID_9_" gradientUnits="userSpaceOnUse" x1="1583.3215" y1="2351.9917" x2="-662.1259" y2="-1871.0806">
			<stop  offset="0" style="stop-color:#A76C26"/>
			<stop  offset="1" style="stop-color:#CD9C3C"/>
		</linearGradient>
		<path class="st8" d="M561,240H343.6c-0.3-0.4-0.7-0.7-1.3-0.7c-0.8,0-1.5,0.7-1.5,1.5c0,0.8,0.7,1.5,1.5,1.5c0.5,0,1-0.3,1.3-0.7
			h217.3c6.9,0,13.9-0.1,20-0.7C574.8,239.7,567.8,240,561,240z"/>
		<linearGradient id="SVGID_10_" gradientUnits="userSpaceOnUse" x1="368.1663" y1="244.1047" x2="337.2051" y2="185.8752">
			<stop  offset="0" style="stop-color:#A76C26"/>
			<stop  offset="1" style="stop-color:#CD9C3C"/>
		</linearGradient>
		<path class="st9" d="M340,246.3c-4.1,0-5.3-3.1-4.2-6.7c-27.9-7.1-22.2-48.9,5.3-47.6c17.1,0.8,27.6,23.3,15,36l-5.3-6.4
			c5.7-5,4.3-17.1-10-17.2c-9.3,0-15.5,6.6-15.4,14.8c0.2,13.2,18.5,21.1,30.7,11c3.2,3.2,7.1,5,11.7,5h21c7.1,0,11.2-4.5,11.5-9.8
			c0.3-4.6-2.9-10.1-11-10.3c-5.2-0.1-10.2,3.4-10.2,8.1c0,4.7,4.3,7,7.6,7c8,0,8.3-9.3,0.9-9.2c-4,0.1-4.5,4.6-1.6,4.6
			c1.6,0,2.4-1.9,1.3-3.1c1.4-0.2,3.1,1.1,2.8,3.1c-0.2,2-1.8,3.1-3.5,3.1c-2.4,0.1-5.1-1.8-5.1-5.6c0-3.8,3.6-7.1,7.7-6.9
			c5.3,0.2,7.9,4.8,7.8,8.8c-0.1,4.2-2.9,8.7-8.3,8.7h-21.2c-4.2,0-7.7-1.8-10.6-4.7c16.7-11.9,7.5-38.6-16.8-38.7
			c-12.2,0-21,6.2-24.9,14.3V227c3.1,6.2,9.3,11.3,18,13.5C331.4,246.4,337.3,249,340,246.3L340,246.3z M354.9,229
			c-10.6,9-25,3.3-25.8-9.4c-0.4-7.1,4.9-14.2,12.6-13.7c8.3,0.6,10.6,9.6,7.5,14c-2.3-2.5-4.5-4.2-6.9-4.5
			c-9.7-1.3-9.6,10.1-0.2,9.8c2.6-0.1,5.7-0.6,7.6-2.5L354.9,229L354.9,229z M348.3,221.1c-2.1,2.2-4.4,2.9-6.3,2.6
			c-5-0.7-4.3-7,0.2-6.8C344.2,217,346.3,218.8,348.3,221.1z"/>
		<linearGradient id="SVGID_11_" gradientUnits="userSpaceOnUse" x1="376.3116" y1="235.9104" x2="370.0753" y2="224.1817">
			<stop  offset="0" style="stop-color:#A76C26"/>
			<stop  offset="1" style="stop-color:#CD9C3C"/>
		</linearGradient>
		<path class="st10" d="M372,229.5c-1,0-1.8-0.8-1.8-1.8c0-2.2,2.4-3.3,4.2-3.1c3.4,0.3,4.5,2.8,4.7,4.2c0.3,3-1.9,6.4-10,6.3v-1.3
			c3.5,0,7.6-1.1,7.6-4.7c0-2.4-2.1-3.4-3.6-3c0.4,0.3,0.7,0.9,0.7,1.5C373.8,228.7,373,229.5,372,229.5z"/>
		<linearGradient id="SVGID_12_" gradientUnits="userSpaceOnUse" x1="561.5399" y1="240.4035" x2="558.1622" y2="234.051">
			<stop  offset="0" style="stop-color:#A76C26"/>
			<stop  offset="1" style="stop-color:#CD9C3C"/>
		</linearGradient>
		<path class="st11" d="M559,240.1c0.4,0,1.4,0.5,2,0.3c1.2-0.4,2.2-1.2,2.3-2.8c0-1.3-0.9-2.7-2.6-3c-1.7-0.3-3.3,0.3-4.1,1.7
			c-0.9,1.4,0.9,3,2.4,2c0.8-0.5,0.9-1.7,1.8-1.7C562.6,236.5,561.8,239.5,559,240.1z"/>
		<linearGradient id="SVGID_13_" gradientUnits="userSpaceOnUse" x1="409.3983" y1="254.1507" x2="392.6627" y2="222.6754">
			<stop  offset="0" style="stop-color:#A76C26"/>
			<stop  offset="1" style="stop-color:#CD9C3C"/>
		</linearGradient>
		<path class="st12" d="M403,240.3h-8.8c5.7-1,10.5-3.1,9.4-9.5C407.6,232.5,407.4,238.6,403,240.3z"/>
		<linearGradient id="SVGID_14_" gradientUnits="userSpaceOnUse" x1="326.9379" y1="252.1892" x2="312.0965" y2="224.2766">
			<stop  offset="0" style="stop-color:#A76C26"/>
			<stop  offset="1" style="stop-color:#CD9C3C"/>
		</linearGradient>
		<path class="st13" d="M321.9,233.4c-0.8,4.5-2.9,6.6-6.5,7.4v2.5c5-1.1,8.4-4.2,8.7-9.2L321.9,233.4z"/>
		<linearGradient id="SVGID_15_" gradientUnits="userSpaceOnUse" x1="327.212" y1="197.205" x2="318.882" y2="181.5386">
			<stop  offset="0" style="stop-color:#A76C26"/>
			<stop  offset="1" style="stop-color:#CD9C3C"/>
		</linearGradient>
		<path class="st14" d="M326,196.2c6.7-4.5,5.2-14.4-3.4-15c-2.9-0.2-5.8,1.3-7.1,3.8v6c1.1,1.9,3.1,2.8,4.9,2.8
			c6-0.1,6.2-7.7,1-7.9c-1.7-0.1-3.4,1.3-3.4,3.1c0,0.7,0.6,1.2,1.2,1.2c0.7,0,1.2-0.7,1.2-1.2s-0.2-0.8-0.5-1
			c0.4-0.4,0.9-0.6,1.4-0.5c2.9,0.2,2.2,5.1-1,5c-6-0.3-5.2-9.7,2.2-9.6c5.8,0.1,7.5,8.6,2.6,12.3L326,196.2z"/>
		<linearGradient id="SVGID_16_" gradientUnits="userSpaceOnUse" x1="412.269" y1="247.3181" x2="403.5608" y2="230.9402">
			<stop  offset="0" style="stop-color:#A76C26"/>
			<stop  offset="1" style="stop-color:#CD9C3C"/>
		</linearGradient>
		<path class="st15" d="M408.9,240.3h-4.2c2.7-0.5,5-1.7,4.5-5.1C411.1,236.1,411,239.4,408.9,240.3z"/>
	</g>
</g>
<g>
	<g>
		
			<linearGradient id="SVGID_17_" gradientUnits="userSpaceOnUse" x1="1299.0682" y1="4007.6138" x2="-944.2703" y2="-211.4924" gradientTransform="matrix(-1 0 0 -1 637.9911 2248.5344)">
			<stop  offset="0" style="stop-color:#A76C26"/>
			<stop  offset="1" style="stop-color:#CD9C3C"/>
		</linearGradient>
		<path class="st16" d="M561,351.6H343.6c-0.3,0.4-0.7,0.7-1.3,0.7c-0.8,0-1.5-0.7-1.5-1.5c0-0.8,0.7-1.5,1.5-1.5
			c0.5,0,1,0.3,1.3,0.7h217.3c6.9,0,13.9,0.1,20,0.7C574.8,351.8,567.8,351.6,561,351.6z"/>
		
			<linearGradient id="SVGID_18_" gradientUnits="userSpaceOnUse" x1="298.5221" y1="1907.7073" x2="273.123" y2="1859.9386" gradientTransform="matrix(-1 0 0 -1 637.9911 2248.5344)">
			<stop  offset="0" style="stop-color:#A76C26"/>
			<stop  offset="1" style="stop-color:#CD9C3C"/>
		</linearGradient>
		<path class="st17" d="M340,345.2c-4.1,0-5.3,3.1-4.2,6.7c-27.9,7.1-22.2,48.9,5.3,47.6c17.1-0.8,27.6-23.3,15-36l-5.3,6.4
			c5.7,5,4.3,17.1-10,17.2c-9.3,0-15.5-6.6-15.4-14.8c0.2-13.2,18.5-21.1,30.7-11c3.2-3.2,7.1-5,11.7-5h21c7.1,0,11.2,4.5,11.5,9.8
			c0.3,4.6-2.9,10.1-11,10.3c-5.2,0.1-10.2-3.4-10.2-8.1c0-4.7,4.3-7,7.6-7c8,0,8.3,9.3,0.9,9.2c-4-0.1-4.5-4.6-1.6-4.6
			c1.6,0,2.4,1.9,1.3,3.1c1.4,0.2,3.1-1.1,2.8-3.1c-0.2-2-1.8-3.1-3.5-3.1c-2.4-0.1-5.1,1.8-5.1,5.6c0,3.8,3.6,7.1,7.7,6.9
			c5.3-0.2,7.9-4.8,7.8-8.8c-0.1-4.2-2.9-8.7-8.3-8.7h-21.2c-4.2,0-7.7,1.8-10.6,4.7c16.7,11.9,7.5,38.6-16.8,38.7
			c-12.2,0-21-6.2-24.9-14.3v-22.2c3.1-6.2,9.3-11.3,18-13.5C331.4,345.2,337.3,342.6,340,345.2L340,345.2z M354.9,362.5
			c-10.6-9-25-3.3-25.8,9.4c-0.4,7.1,4.9,14.2,12.6,13.7c8.3-0.6,10.6-9.6,7.5-14c-2.3,2.5-4.5,4.2-6.9,4.5
			c-9.7,1.3-9.6-10.1-0.2-9.8c2.6,0.1,5.7,0.6,7.6,2.5L354.9,362.5L354.9,362.5z M348.3,370.4c-2.1-2.2-4.4-2.9-6.3-2.6
			c-5,0.7-4.3,7,0.2,6.8C344.2,374.6,346.2,372.8,348.3,370.4z"/>
		
			<linearGradient id="SVGID_19_" gradientUnits="userSpaceOnUse" x1="268.2469" y1="1894.9689" x2="260.3394" y2="1880.0969" gradientTransform="matrix(-1 0 0 -1 637.9911 2248.5344)">
			<stop  offset="0" style="stop-color:#A76C26"/>
			<stop  offset="1" style="stop-color:#CD9C3C"/>
		</linearGradient>
		<path class="st18" d="M372,362c-1,0-1.8,0.8-1.8,1.8c0,2.2,2.4,3.3,4.2,3.1c3.4-0.3,4.5-2.8,4.7-4.2c0.3-3-1.9-6.4-10-6.3v1.3
			c3.5,0,7.6,1.1,7.6,4.7c0,2.4-2.1,3.4-3.6,3c0.5-0.3,0.7-0.9,0.7-1.5C373.8,362.8,373,362,372,362z"/>
		
			<linearGradient id="SVGID_20_" gradientUnits="userSpaceOnUse" x1="81.394" y1="1900.5043" x2="75.2181" y2="1888.8893" gradientTransform="matrix(-1 0 0 -1 637.9911 2248.5344)">
			<stop  offset="0" style="stop-color:#A76C26"/>
			<stop  offset="1" style="stop-color:#CD9C3C"/>
		</linearGradient>
		<path class="st19" d="M559,351.4c0.4,0,1.4-0.5,2-0.3c1.2,0.4,2.2,1.2,2.3,2.8c0,1.3-0.9,2.7-2.6,3c-1.7,0.3-3.3-0.3-4.1-1.7
			c-0.9-1.4,0.9-3,2.4-2c0.8,0.5,0.9,1.7,1.8,1.7C562.6,355.1,561.8,352.1,559,351.4z"/>
		
			<linearGradient id="SVGID_21_" gradientUnits="userSpaceOnUse" x1="262.7705" y1="1942.662" x2="206.149" y2="1836.1724" gradientTransform="matrix(-1 0 0 -1 637.9911 2248.5344)">
			<stop  offset="0" style="stop-color:#A76C26"/>
			<stop  offset="1" style="stop-color:#CD9C3C"/>
		</linearGradient>
		<path class="st20" d="M403,351.3h-8.8c5.7,1,10.5,3.1,9.4,9.5C407.6,359,407.4,353,403,351.3z"/>
		
			<linearGradient id="SVGID_22_" gradientUnits="userSpaceOnUse" x1="322.5675" y1="1903.6329" x2="314.0837" y2="1887.6771" gradientTransform="matrix(-1 0 0 -1 637.9911 2248.5344)">
			<stop  offset="0" style="stop-color:#A76C26"/>
			<stop  offset="1" style="stop-color:#CD9C3C"/>
		</linearGradient>
		<path class="st21" d="M321.9,358.1c-0.8-4.5-2.9-6.6-6.5-7.4v-2.5c5,1.1,8.4,4.2,8.7,9.2L321.9,358.1z"/>
		
			<linearGradient id="SVGID_23_" gradientUnits="userSpaceOnUse" x1="318.5948" y1="1851.2931" x2="311.4839" y2="1837.9193" gradientTransform="matrix(-1 0 0 -1 637.9911 2248.5344)">
			<stop  offset="0" style="stop-color:#A76C26"/>
			<stop  offset="1" style="stop-color:#CD9C3C"/>
		</linearGradient>
		<path class="st22" d="M326,395.3c6.7,4.5,5.2,14.4-3.4,15c-2.9,0.2-5.8-1.3-7.1-3.8v-6c1.1-1.9,3.1-2.8,4.9-2.8
			c6,0.1,6.2,7.7,1,7.9c-1.7,0.1-3.4-1.3-3.4-3.1c0-0.7,0.6-1.2,1.2-1.2c0.7,0,1.2,0.7,1.2,1.2c0,0.6-0.2,0.8-0.5,1
			c0.4,0.4,0.9,0.6,1.4,0.5c2.9-0.2,2.2-5.1-1-5c-6,0.3-5.2,9.7,2.2,9.6c5.8-0.1,7.5-8.6,2.6-12.3L326,395.3z"/>
		
			<linearGradient id="SVGID_24_" gradientUnits="userSpaceOnUse" x1="231.5243" y1="1898.4628" x2="227.9615" y2="1891.7622" gradientTransform="matrix(-1 0 0 -1 637.9911 2248.5344)">
			<stop  offset="0" style="stop-color:#A76C26"/>
			<stop  offset="1" style="stop-color:#CD9C3C"/>
		</linearGradient>
		<path class="st23" d="M408.9,351.3h-4.2c2.7,0.5,5,1.7,4.5,5.1C411.1,355.4,411,352.2,408.9,351.3z"/>
	</g>
	<g>
		
			<linearGradient id="SVGID_25_" gradientUnits="userSpaceOnUse" x1="1683.0665" y1="4166.2197" x2="-729.5798" y2="-371.308" gradientTransform="matrix(-1 0 0 -1 637.9911 2248.5344)">
			<stop  offset="0" style="stop-color:#A76C26"/>
			<stop  offset="1" style="stop-color:#CD9C3C"/>
		</linearGradient>
		<path class="st24" d="M51.8,351.6h235.5c0.3,0.4,0.7,0.7,1.3,0.7c0.8,0,1.5-0.7,1.5-1.5c0-0.8-0.7-1.5-1.5-1.5
			c-0.5,0-1,0.3-1.3,0.7H52c-6.9,0-13.9,0.1-20,0.7C38,351.8,45.1,351.6,51.8,351.6z"/>
		
			<linearGradient id="SVGID_26_" gradientUnits="userSpaceOnUse" x1="375.3116" y1="1901.1046" x2="344.3505" y2="1842.8752" gradientTransform="matrix(-1 0 0 -1 637.9911 2248.5344)">
			<stop  offset="0" style="stop-color:#A76C26"/>
			<stop  offset="1" style="stop-color:#CD9C3C"/>
		</linearGradient>
		<path class="st25" d="M290.9,345.2c4.1,0,5.3,3.1,4.2,6.7c27.9,7.1,22.2,48.9-5.3,47.6c-17.1-0.8-27.6-23.3-15-36l5.3,6.4
			c-5.7,5-4.3,17.1,10,17.2c9.3,0,15.5-6.6,15.4-14.8c-0.2-13.2-18.5-21.1-30.7-11c-3.2-3.2-7.1-5-11.7-5h-21
			c-7.1,0-11.2,4.5-11.5,9.8c-0.3,4.6,2.9,10.1,11,10.3c5.2,0.1,10.2-3.4,10.2-8.1c0-4.7-4.3-7-7.6-7c-8,0-8.3,9.3-0.9,9.2
			c4-0.1,4.5-4.6,1.6-4.6c-1.6,0-2.4,1.9-1.3,3.1c-1.4,0.2-3.1-1.1-2.8-3.1c0.2-2,1.8-3.1,3.5-3.1c2.4-0.1,5.1,1.8,5.1,5.6
			c0,3.8-3.6,7.1-7.7,6.9c-5.3-0.2-7.9-4.8-7.8-8.8c0.1-4.2,2.9-8.7,8.3-8.7H263c4.2,0,7.7,1.8,10.6,4.7
			c-16.7,11.9-7.5,38.6,16.8,38.7c12.2,0,21-6.2,24.9-14.3v-22.2c-3.1-6.2-9.3-11.3-18-13.5C299.5,345.2,293.5,342.6,290.9,345.2
			L290.9,345.2z M275.9,362.5c10.6-9,25-3.3,25.8,9.4c0.4,7.1-4.9,14.2-12.6,13.7c-8.3-0.6-10.6-9.6-7.5-14c2.3,2.5,4.5,4.2,6.9,4.5
			c9.7,1.3,9.6-10.1,0.2-9.8c-2.6,0.1-5.7,0.6-7.6,2.5L275.9,362.5L275.9,362.5z M282.5,370.4c2.1-2.2,4.4-2.9,6.3-2.6
			c5,0.7,4.3,7-0.2,6.8C286.6,374.6,284.6,372.8,282.5,370.4z"/>
		
			<linearGradient id="SVGID_27_" gradientUnits="userSpaceOnUse" x1="383.457" y1="1892.9104" x2="377.2207" y2="1881.1818" gradientTransform="matrix(-1 0 0 -1 637.9911 2248.5344)">
			<stop  offset="0" style="stop-color:#A76C26"/>
			<stop  offset="1" style="stop-color:#CD9C3C"/>
		</linearGradient>
		<path class="st26" d="M258.8,362c1,0,1.8,0.8,1.8,1.8c0,2.2-2.4,3.3-4.2,3.1c-3.4-0.3-4.5-2.8-4.7-4.2c-0.3-3,1.9-6.4,10-6.3v1.3
			c-3.5,0-7.6,1.1-7.6,4.7c0,2.4,2.1,3.4,3.6,3c-0.4-0.3-0.7-0.9-0.7-1.5C257,362.8,257.8,362,258.8,362z"/>
		
			<linearGradient id="SVGID_28_" gradientUnits="userSpaceOnUse" x1="586.6852" y1="1897.4034" x2="583.3076" y2="1891.051" gradientTransform="matrix(-1 0 0 -1 637.9911 2248.5344)">
			<stop  offset="0" style="stop-color:#A76C26"/>
			<stop  offset="1" style="stop-color:#CD9C3C"/>
		</linearGradient>
		<path class="st27" d="M53.8,351.4c-0.4,0-1.4-0.5-2-0.3c-1.2,0.4-2.2,1.2-2.3,2.8c0,1.3,0.9,2.7,2.6,3c1.7,0.3,3.3-0.3,4.1-1.7
			c0.9-1.4-0.9-3-2.4-2c-0.8,0.5-0.9,1.7-1.8,1.7C50.2,355.1,51,352.1,53.8,351.4z"/>
		
			<linearGradient id="SVGID_29_" gradientUnits="userSpaceOnUse" x1="416.5437" y1="1911.1506" x2="399.808" y2="1879.6754" gradientTransform="matrix(-1 0 0 -1 637.9911 2248.5344)">
			<stop  offset="0" style="stop-color:#A76C26"/>
			<stop  offset="1" style="stop-color:#CD9C3C"/>
		</linearGradient>
		<path class="st28" d="M227.8,351.3h8.8c-5.7,1-10.5,3.1-9.4,9.5C223.2,359,223.5,353,227.8,351.3z"/>
		
			<linearGradient id="SVGID_30_" gradientUnits="userSpaceOnUse" x1="334.0833" y1="1909.1892" x2="319.2419" y2="1881.2766" gradientTransform="matrix(-1 0 0 -1 637.9911 2248.5344)">
			<stop  offset="0" style="stop-color:#A76C26"/>
			<stop  offset="1" style="stop-color:#CD9C3C"/>
		</linearGradient>
		<path class="st29" d="M308.9,358.1c0.8-4.5,2.9-6.6,6.5-7.4v-2.5c-5,1.1-8.4,4.2-8.7,9.2L308.9,358.1z"/>
		
			<linearGradient id="SVGID_31_" gradientUnits="userSpaceOnUse" x1="334.3574" y1="1854.205" x2="326.0274" y2="1838.5386" gradientTransform="matrix(-1 0 0 -1 637.9911 2248.5344)">
			<stop  offset="0" style="stop-color:#A76C26"/>
			<stop  offset="1" style="stop-color:#CD9C3C"/>
		</linearGradient>
		<path class="st30" d="M304.9,395.3c-6.7,4.5-5.2,14.4,3.4,15c2.9,0.2,5.8-1.3,7.1-3.8v-6c-1.1-1.9-3.1-2.8-4.9-2.8
			c-6,0.1-6.2,7.7-1,7.9c1.7,0.1,3.4-1.3,3.4-3.1c0-0.7-0.6-1.2-1.2-1.2c-0.7,0-1.2,0.7-1.2,1.2c0,0.6,0.2,0.8,0.5,1
			c-0.4,0.4-0.9,0.6-1.4,0.5c-2.9-0.2-2.2-5.1,1-5c6,0.3,5.2,9.7-2.2,9.6c-5.8-0.1-7.5-8.6-2.6-12.3L304.9,395.3z"/>
		
			<linearGradient id="SVGID_32_" gradientUnits="userSpaceOnUse" x1="419.4144" y1="1904.3181" x2="410.7062" y2="1887.9402" gradientTransform="matrix(-1 0 0 -1 637.9911 2248.5344)">
			<stop  offset="0" style="stop-color:#A76C26"/>
			<stop  offset="1" style="stop-color:#CD9C3C"/>
		</linearGradient>
		<path class="st31" d="M222,351.3h4.2c-2.7,0.5-5,1.7-4.5,5.1C219.8,355.4,219.9,352.2,222,351.3z"/>
	</g>
</g>
</svg>
