<?xml version="1.0" encoding="utf-8"?>
<!-- Generator: Adobe Illustrator 23.0.0, SVG Export Plug-In . SVG Version: 6.00 Build 0)  -->
<svg version="1.1" id="Layer_1" xmlns="http://www.w3.org/2000/svg" xmlns:xlink="http://www.w3.org/1999/xlink" x="0px" y="0px"
	 viewBox="0 0 610 586" style="enable-background:new 0 0 610 586;" xml:space="preserve">
<style type="text/css">
	.st0{fill:#E8B934;}
	.st1{fill:#B53368;}
	.st2{fill:none;stroke:#B53368;stroke-miterlimit:10;}
</style>
<g>
	<g>
		<g>
			<path class="st0" d="M323.3,550.8c-67.9,0-131.7-26.4-179.7-74.4c-48-48-74.4-111.8-74.4-179.7S95.6,165,143.6,117
				c48-48,111.8-74.4,179.7-74.4S455,69,503,117s74.4,111.8,74.4,179.7S551,428.4,503,476.4C455,524.4,391.2,550.8,323.3,550.8z
				 M323.3,45.5c-138.5,0-251.1,112.7-251.1,251.1s112.7,251.1,251.1,251.1s251.1-112.7,251.1-251.1S461.8,45.5,323.3,45.5z"/>
		</g>
		<g>
			<path class="st0" d="M306.1,550.8c-67.9,0-131.7-26.4-179.7-74.4c-48-48-74.4-111.8-74.4-179.7S78.4,165,126.4,117
				c48-48,111.8-74.4,179.7-74.4c67.9,0,131.7,26.4,179.7,74.4s74.4,111.8,74.4,179.7s-26.4,131.7-74.4,179.7
				C437.7,524.4,373.9,550.8,306.1,550.8z M306.1,45.5c-138.5,0-251.1,112.7-251.1,251.1s112.7,251.1,251.1,251.1
				c138.5,0,251.1-112.7,251.1-251.1S444.5,45.5,306.1,45.5z"/>
		</g>
		<g>
			<path class="st0" d="M530.1,154.2c-2.3-2.7-4.1-7.2-5.3-11.6l-0.7,0.7c-8.4-8.4-12.6-19.8-16.6-30.8c-1.9-5.2-3.9-10.6-6.3-15.6
				l-1.6-3.4l3.5,1.3c10.7,4,19,13.4,21.6,24.6c0.8,3.6,1.1,7.3,1.4,10.9c0.1,1.7,0.2,3.4,0.4,5.1c0.6,5.5,3,13.3,6,16.9
				L530.1,154.2z M505.6,99.2c1.7,4,3.3,8.2,4.7,12.3c3.7,10,7.2,19.6,13.6,27.2c-0.2-1-0.3-2-0.4-2.9c-0.2-1.8-0.3-3.5-0.4-5.2
				c-0.3-3.6-0.5-7-1.3-10.4C519.7,111.3,513.5,103.5,505.6,99.2z"/>
		</g>
		<g>
			<path class="st0" d="M530.5,182.4l-1-2.8c-0.5,0.2-0.7,0.7-0.6,0.9c0-0.1-0.1-0.2-0.2-0.3c-4.4-4.2-10.5-5.4-16.9-6.7
				c-4.9-1-10-2-14.5-4.5c-7.8-4.3-12.7-12.5-16.6-19.1l-2.8-4.8l4.8,2.7c5,2.8,10.6,4.6,15.9,6.4c3.5,1.2,7.1,2.4,10.5,3.8
				c7.8,3.3,17.8,9.3,21.2,19.5c0.1,0.1,0.3,0.3,0.4,0.4c0.7,0.6,1.3,1.8,1.1,2.9C531.7,181.6,531.2,182.2,530.5,182.4z
				 M485.9,152.7c3.3,5.3,7.3,10.6,12.8,13.6c4.1,2.2,8.9,3.2,13.6,4.2c4.5,0.9,9.1,1.8,13.2,3.9c-4-6.7-11.5-11-17.6-13.6
				c-3.3-1.4-6.9-2.6-10.3-3.7C493.8,155.7,489.8,154.4,485.9,152.7z"/>
		</g>
		<g>
			<path class="st0" d="M552,192.7c-0.7-1.8-1-4.5-1-7l-1,0.7c-5.1-6.8-5.7-15.7-5.6-22.7c0-1.5,0-2.9,0.1-4.4
				c0.1-6,0.3-12.2-1.4-17.9l-1.5-5.2l4,3.7c5,4.6,8.6,9.6,10.7,14.7c2.5,6.2,2.9,12.7,1.1,18.3c-0.4,1.2-0.9,2.4-1.3,3.5
				c-0.6,1.5-1.2,3-1.6,4.4c-0.6,2.7-0.6,8.1,0.4,10.7L552,192.7z M547,145.8c0.6,4.5,0.5,9.1,0.4,13.6c0,1.4-0.1,2.9-0.1,4.3
				c0,5.8,0.4,13.1,3.7,18.9c0.1-0.9,0.2-1.7,0.4-2.3c0.4-1.7,1.1-3.3,1.8-4.9c0.5-1.1,0.9-2.2,1.3-3.2c1.6-5,1.2-10.8-1-16.3
				C552,152.4,549.8,149,547,145.8z"/>
		</g>
		<g>
			<path class="st0" d="M548.6,230.9c-3-3.7-7.5-5.7-12.3-7.9c-4.5-2-9.1-4.1-12.6-7.8c-3.5-3.7-5.3-8.4-7-12.9
				c-1.2-3.2-2.4-6.4-4.2-9.2l-5.3-8.3l7.5,6.4c2.4,2,5.2,3.4,8.2,4.9c1,0.5,2,1,3,1.5c13.4,7.1,22.6,18.8,24.7,31.3
				c0,0,0.1,0.1,0.1,0.1l-0.1,0.1c0,0.1,0,0.1,0,0.2l-0.3,0L548.6,230.9z M517.8,196.7c0.6,1.5,1.2,3,1.8,4.5
				c1.7,4.5,3.3,8.7,6.4,11.9c3.1,3.3,7.2,5.1,11.6,7.1c3.2,1.4,6.4,2.9,9.3,5c-3.1-10-11.1-19.2-22.2-25c-1-0.5-2-1-3-1.5
				C520.4,198,519.1,197.4,517.8,196.7z"/>
		</g>
		<g>
			<path class="st0" d="M569.5,232.8l-3,0c0-1.9,0-3.9,0.1-5.9l-0.8,0.3c-1.9-5.1-3.9-11.8-3-18.8c0.3-2.4,1-4.8,1.7-7.1
				c1.1-3.7,2.1-7.3,1.6-10.8l-0.7-4.8l3.3,3.6c6.2,6.8,8.1,17.2,4.6,25.8c-0.4,0.9-0.8,1.7-1.1,2.5c-0.5,1-0.9,2-1.3,3
				C569.5,224.4,569.5,228.7,569.5,232.8z M569.2,194.9c-0.3,2.5-1,4.9-1.7,7.3c-0.6,2.2-1.3,4.4-1.6,6.6c-0.6,4-0.1,8.2,1.5,13.4
				c0.2-0.9,0.5-1.8,0.8-2.7c0.4-1.1,0.9-2.2,1.4-3.2c0.4-0.8,0.8-1.6,1.1-2.4C573.1,207.8,572.5,200.6,569.2,194.9z"/>
		</g>
		<g>
			<path class="st0" d="M556.4,276.4c-0.9-3.5-4.6-8.4-7.8-10.3c-1.4-0.9-3-1.7-4.5-2.4c-2.1-1-4.2-2.1-6.2-3.5
				c-5.7-3.9-9.8-10.1-11.2-16.9l-0.7-3.2l2.9,1.6c2.1,1.2,4.3,2.3,6.4,3.3c4.3,2.1,8.7,4.4,12.6,7.4c7,5.4,10.9,12.7,10.4,19.5
				l-0.7,0c0.7,1.3,1.3,2.6,1.6,3.8L556.4,276.4z M530.6,246c1.7,4.7,4.9,8.9,9,11.7c1.8,1.3,3.8,2.2,5.8,3.3
				c1.5,0.8,3.1,1.6,4.7,2.5c1.7,1,3.5,2.7,5,4.6c-0.9-4.8-4.1-9.6-9-13.4c-3.7-2.8-8-5-12.1-7.1C532.9,247.1,531.8,246.5,530.6,246
				z"/>
		</g>
		<g>
			<path class="st0" d="M80.3,360.1l-3,0c0-3.6,0-7.7,1.5-11.5c1.1-3,3.1-5.6,5-8c1.6-2.1,3.1-4,4.1-6.2c1.3-2.8,1.8-6.1,1.5-9.2
				c-0.1-1-0.3-2.1-0.6-3.2c-0.3-1.5-0.7-3.1-0.7-4.7c-3.1,3.3-6.1,7.1-8.2,11.5c-2.4,5.2-3.1,13.6-1.8,22.1l-3,0.5
				c-1.4-9-0.6-18.1,2-23.8c3-6.3,7.8-11.5,12.1-15.7l6.5-6.3l-4.1,8c-1.1,2.2-0.6,5,0,7.8c0.2,1.1,0.5,2.3,0.6,3.4
				c0.5,3.6-0.1,7.5-1.7,10.8c-1.2,2.5-2.8,4.7-4.4,6.7c-1.8,2.4-3.5,4.6-4.5,7.3C80.4,352.9,80.3,356.6,80.3,360.1z"/>
		</g>
		<g>
			<path class="st0" d="M58.9,355.4c-3-4-7-7.3-10.8-10.6c-5.3-4.5-10.9-9.2-14.1-15.7c-3-6-3.5-12.9-4.1-18.9l-0.3-3.4l2.7,2.1
				c7.7,5.9,13.3,11.3,17.6,17c5.4,7.2,8.8,15,9.7,22.6l-2.7,0.3c1.5,1.5,3,3.1,4.3,4.9L58.9,355.4z M33.3,313.4
				c0.5,5,1.3,10,3.4,14.4c2.9,5.9,8,10.2,13.3,14.7c2.2,1.9,4.5,3.8,6.6,5.9c-0.9-7-4.1-14.1-9.1-20.8
				C44,322.9,39.4,318.3,33.3,313.4z"/>
		</g>
		<g>
			<path class="st0" d="M94.7,407.8c-3-5.5-4.6-13.6-5.1-24.6c-0.1-3.1-0.1-6.8,0.8-10.4c0.5-2.1,1.4-4.1,2.2-6
				c1.2-2.9,2.4-5.7,2.5-8.6l0.4-12.8L98,358c0.5,2.4,1.4,4.7,2.4,7.1c0.7,1.8,1.5,3.6,2.1,5.5c2,6.6,1.6,13.7-1,20.1
				c-0.5,1.2-1,2.3-1.5,3.3c-0.7,1.5-1.4,2.8-1.9,4.3c-0.9,2.5-1.6,6.1-0.6,8.2L94.7,407.8z M96.8,364.2c-0.5,1.3-1,2.6-1.5,3.8
				c-0.8,1.9-1.5,3.7-2,5.6c-0.8,3.2-0.8,6.6-0.7,9.5c0.3,6.3,1,11.6,2.1,16c0.2-0.8,0.4-1.4,0.6-1.8c0.6-1.6,1.3-3.1,2-4.6
				c0.5-1.1,1-2.1,1.5-3.2c2.3-5.6,2.7-12.2,0.9-18.1c-0.5-1.8-1.2-3.4-2-5.2C97.4,365.6,97.1,364.9,96.8,364.2z"/>
		</g>
		<g>
			<path class="st0" d="M76.9,406.7c-0.5-0.5-0.9-0.9-1.3-1.4c-2.1-2.2-3.8-3.9-6.4-5.3c-1.3-0.7-2.7-1.2-4.2-1.8
				c-0.8-0.3-1.7-0.6-2.5-1c-11.8-4.9-20.6-16.3-22.4-28.9l-0.6-4.2l3.1,2.9c3.1,2.9,6.7,4.9,10.6,7c2.4,1.3,4.9,2.7,7.2,4.3
				c7.3,5,13.1,12.3,16.2,20.6l-2.3,0.9c1.2,1,2.3,2.1,3.5,3.4c0.4,0.4,0.9,0.9,1.3,1.3L76.9,406.7z M43.8,372
				c2.8,10,10.2,18.6,19.8,22.6c0.8,0.3,1.6,0.6,2.4,0.9c1.5,0.6,3.1,1.1,4.6,1.9c1.1,0.6,2,1.2,2.9,1.8c-3-7.4-8.2-13.9-14.7-18.4
				c-2.2-1.5-4.6-2.8-7-4.1C49.1,375.3,46.4,373.8,43.8,372z"/>
		</g>
		<g>
			<path class="st0" d="M52.1,299.3c-1-2.6-2.5-5-4.3-7.1c-1.4-1.6-2.9-2.9-4.5-4.4c-1-1-2.1-1.9-3.2-3c-8.8-8.9-13.3-21.6-12.1-34
				l0.5-5.1l2.3,4.6c2.4,4.8,6.2,9.1,9.8,13.1c4.1,4.7,8.4,9.5,11,15.4c2.5,5.8,3.2,12.2,3.5,17.7l-1.1,0.1c0.3,0.6,0.5,1.2,0.8,1.8
				L52.1,299.3z M30.8,256c0.3,9.9,4.4,19.6,11.4,26.6c1,1,2,1.9,3,2.9c1.6,1.5,3.3,3,4.7,4.7c0.7,0.8,1.3,1.6,1.9,2.4
				c-0.4-4.2-1.2-8.7-3-12.7c-2.4-5.4-6.3-9.9-10.5-14.6C35.8,262.4,33.1,259.3,30.8,256z"/>
		</g>
		<g>
			<path class="st0" d="M72.6,297.2l-3-0.1c0,0,0,0,0-0.1l-0.3,0.1c-2.5-9.7,2.8-18.9,6.1-23.6c2.7-3.7,5.8-7.1,8.8-10.3
				c2.3-2.5,4.7-5,6.8-7.7l2.2-2.7l0.5,3.5c0.9,6.5-0.4,13.2-3.5,18.9c-2.9,5.2-7.3,9.4-11.1,12.8C76.1,290.5,72.7,293.5,72.6,297.2
				z M91,260.2c-1.5,1.7-3.1,3.4-4.6,5c-3,3.2-6,6.5-8.6,10c-2.4,3.4-5.9,9.3-6.1,15.9c1.5-2.1,3.6-3.9,5.4-5.5
				c3.7-3.3,7.8-7.2,10.5-12C89.9,269.6,91.1,264.9,91,260.2z"/>
		</g>
		<g>
			<path class="st0" d="M139.1,124.2l-0.2-3c0.5,0,0.9-0.1,1.4-0.1l-0.5-0.5c5.7-5.7,13.4-10,23-12.8c8.4-2.5,17.2-3.6,25.6-4.6
				l3.9-0.5l-2.6,3c-4.9,5.5-10.4,11.8-17.8,15.1c-7.1,3.2-15,3.1-22.6,3.1C145.9,124,142.4,124,139.1,124.2z M184.8,106.8
				c-7.1,0.9-14.3,2-21.2,4c-8,2.4-14.7,5.8-19.8,10.2c1.8,0,3.7,0,5.5,0c7.6,0,14.8,0,21.3-2.9
				C176.2,115.6,180.7,111.2,184.8,106.8z"/>
		</g>
		<g>
			<path class="st0" d="M106.7,142.1l-3-0.3c0.7-8,1.9-16.1,3.6-23.9c1-4.9,2.4-10.6,5.6-15.3c2-3,4.7-5.4,7.3-7.7
				c2.7-2.5,5.3-4.8,7.2-7.7l2.5-3.9l0.3,4.6c1.2,19.4-6.5,39-20.6,52.4l-2.1-2.2c12.5-11.8,19.7-28.8,19.8-45.9
				c-1.6,1.8-3.3,3.3-5,4.9c-2.6,2.3-5,4.5-6.8,7.2c-2.9,4.2-4.1,9.5-5.1,14.2C108.6,126.2,107.5,134.2,106.7,142.1z"/>
		</g>
		<g>
			<path class="st0" d="M513.3,444.9l1-7.6c0.8-5.4-1.1-11.3-3-17c-1-3.2-2.1-6.5-2.7-9.6c-1.6-8.3,0-17.2,4.2-24.6
				c0.4-0.7,0.8-1.4,1.3-2.1c1.7-2.8,3.4-5.4,3.3-8.3l-0.1-6.7l2.9,6.1c8.7,18,7.3,45.2-3.2,63.3L513.3,444.9z M519.4,380.5
				c-0.7,1.7-1.7,3.4-2.7,5c-0.4,0.7-0.8,1.4-1.2,2.1c-3.9,6.7-5.2,14.9-3.8,22.5c0.6,3,1.5,6.1,2.6,9.3c1.3,3.9,2.6,7.9,3.1,12
				C524,415.8,524.9,395.7,519.4,380.5z"/>
		</g>
		<g>
			<path class="st0" d="M537,434.1l-2.3-1.9c3.4-4.1,9.5-8.4,14.6-10.1c1.9-0.7,3.9-1.1,5.8-1.6c1.8-0.4,3.6-0.8,5.3-1.4
				c9.3-3.1,16-10.6,22.8-19.7c-11.8,3.8-29.4,10.2-37.7,20.6l-2.3-1.9c10-12.5,31.8-19.3,43.5-23l4.3-1.3l-2.6,3.6
				c-8,11.2-15.5,20.7-26.9,24.5c-1.8,0.6-3.7,1-5.6,1.5c-1.9,0.4-3.7,0.9-5.5,1.5C545.7,426.5,540,430.5,537,434.1z"/>
		</g>
		<g>
			<path class="st0" d="M234.2,534c-1.9-0.9-3.4-2.2-4.6-3.6l-0.2,0.7c-8.9-3.1-16.4-10-20.3-18.6c-1.4-3.2-2.4-6.7-3.3-10
				c-1.5-5.3-2.8-10.4-6-14.4l-2.3-2.9l3.6,0.5c6.4,0.8,12.6,4.6,17.2,10.5c3.6,4.6,6.3,10.6,8.2,18.2c0.2,0.8,0.4,1.5,0.6,2.3
				c0.6,2.7,1.2,5.3,2.3,7.7c1,2.4,2.9,5.5,6.1,7L234.2,534z M204.2,489.3c2.1,3.8,3.3,8.1,4.5,12.3c0.9,3.2,1.8,6.6,3.1,9.6
				c3.1,6.8,8.7,12.6,15.5,15.8c-0.3-0.5-0.5-1.1-0.7-1.6c-1.1-2.7-1.8-5.5-2.4-8.2c-0.2-0.8-0.4-1.5-0.5-2.3
				c-1.8-7.2-4.3-12.8-7.7-17.1C212.7,493.7,208.6,490.7,204.2,489.3z"/>
		</g>
		<g>
			<path class="st0" d="M185.8,538c-3.4,0-6.3-0.8-8.8-2.3c-0.8-0.5-1.6-1.1-2.4-1.7c-0.8-0.6-1.5-1.1-2.3-1.6
				c-0.7-0.4-2.6-1.3-4.1-0.7l-1.2-2.7c13-5.7,30.2-5.6,44.9,0.2l6.1,2.4l-6.5,0.5c-4.3,0.3-8.4,1.6-12.8,3
				c-1.2,0.4-2.4,0.8-3.7,1.2C191.7,537.5,188.6,538,185.8,538z M173.7,529.9C173.8,530,173.8,530,173.7,529.9
				c1,0.6,1.8,1.2,2.6,1.8c0.7,0.5,1.4,1.1,2.1,1.5c3.8,2.3,9.1,2.4,15.7,0.4c1.2-0.4,2.4-0.8,3.6-1.2c2.4-0.8,4.9-1.6,7.4-2.2
				C194.7,527.3,183.4,527.2,173.7,529.9z"/>
		</g>
		<g>
			<path class="st0" d="M353,68.5c-0.9,0-1.7,0-2.6-0.1c-2.8-0.3-5-1-6.8-2.2c-0.8-0.5-1.5-1.1-2.1-1.7c-0.6-0.5-1.1-1-1.7-1.4
				c-0.7-0.5-1.6-0.9-2.4-0.8c-0.3,0.1-0.6,0.2-1,0.3l-1-2.8c0.4-0.2,0.9-0.4,1.4-0.4c2.6-0.7,5.1-1.6,7.6-2.4
				c4-1.3,8.1-2.6,12.3-3.6c8.6-1.9,16.1-1.7,22.2,0.7c0.3-0.1,0.5-0.1,0.8-0.1l0.3,0l0.5,3l-0.3,0c-3.4,0.6-6.3,2.7-9.4,4.9
				c-1.6,1.1-3.2,2.3-4.9,3.3C361.9,67.3,357.4,68.5,353,68.5z M341.8,60.9c0.6,0.4,1.1,0.9,1.6,1.4c0.6,0.5,1.2,1,1.8,1.4
				c1.4,0.9,3.1,1.5,5.4,1.7c4.7,0.5,9.6-0.5,13.7-2.9c1.6-0.9,3.1-2,4.6-3.1c1.7-1.3,3.5-2.5,5.4-3.6c-4.9-1.1-10.6-1-17,0.5
				c-4,0.9-8.1,2.2-12,3.5C344.2,60.1,343,60.5,341.8,60.9z"/>
		</g>
		<g>
			<path class="st0" d="M405.2,59.2c-0.8-0.3-1.5-0.8-2.2-1.3l0,0.2c-9.5-1.2-19.8-8.9-23.3-17.6c-0.3-0.7-0.5-1.4-0.8-2.1
				c-0.7-2-1.4-3.9-2.7-5.3l-2.9-3.3l4.3,0.8c8.5,1.6,16.1,7.1,20.2,14.7c0.3,0.5,0.5,1,0.8,1.5c2,3.7,4.5,8.3,7.7,9.7L405.2,59.2z
				 M380.6,34.4c0.4,1,0.8,1.9,1.1,2.9c0.2,0.7,0.5,1.4,0.8,2c2.6,6.5,9.9,12.6,17.2,14.9c-1.4-2-2.6-4.2-3.6-6.1
				c-0.3-0.5-0.5-1-0.8-1.4C392.1,40.9,386.8,36.5,380.6,34.4z"/>
		</g>
		<g>
			<path class="st0" d="M525.2,423.4l-2.8-1c7.5-21.9,9.9-45.6,7-68.5l3-0.4C535.3,377,532.8,401.1,525.2,423.4z"/>
		</g>
		<g>
			<path class="st0" d="M548.4,415.3l-2.4-1.7c8.3-11.8,18-22.6,28.8-32.2l2,2.2C566.2,393.1,556.6,403.8,548.4,415.3z"/>
		</g>
		<g>
			<path class="st0" d="M152.8,112.1l-1.8-2.4c12.5-9.2,26.3-16.2,41.1-21l0.9,2.9C178.5,96.2,165,103.1,152.8,112.1z"/>
		</g>
		<g>
			<path class="st0" d="M126.4,119.8l-2.5-1.7c5.9-8.4,10.5-17.6,13.9-27.3l2.8,1C137.2,101.7,132.4,111.2,126.4,119.8z"/>
		</g>
		<g>
			<path class="st0" d="M531.5,364.8c-1,0-2-0.4-2.7-1.2c-0.7-0.7-1.1-1.5-1.4-2.3c-0.7-1.6-1.3-3.3-1.5-5.1c-0.2-1.5,0-2.8,0.5-4
				c0.5-1.2,1.7-2.7,3.3-3.2c1.1-0.4,3.4-0.5,4.6,1.7c2.1,3.9,2.5,8,1,11.4c-0.9,2-2.1,2.6-3,2.8
				C531.8,364.8,531.7,364.8,531.5,364.8z M530.9,351.7c-0.2,0-0.3,0-0.4,0.1c-0.5,0.2-1.1,0.8-1.4,1.6c-0.3,0.7-0.4,1.5-0.3,2.5
				c0.2,1.5,0.7,2.9,1.3,4.2c0.2,0.6,0.5,1.1,0.8,1.4c0.2,0.2,0.5,0.4,0.6,0.3c0.2,0,0.5-0.4,0.8-1.1c1.1-2.5,0.8-5.8-0.8-8.8l0,0
				C531.3,351.8,531.1,351.7,530.9,351.7z"/>
		</g>
		<g>
			<path class="st0" d="M570.8,391.1c-1.4,0-2.6-0.6-3.3-1.6c-0.6-0.8-1.1-2.2-0.2-4.4c1.4-3.9,4.9-6.9,9.5-8.3l0,0
				c2.5-0.7,4.2,1.1,4.7,2.1c0.8,1.6,0.6,3.6,0.1,5c-0.5,1.3-1.4,2.5-2.6,3.5c-1.6,1.3-3.4,2.2-5.2,2.9c-0.9,0.4-1.8,0.7-2.9,0.7
				C570.9,391.1,570.9,391.1,570.8,391.1z M577.7,379.7c-3.7,1.1-6.5,3.5-7.6,6.5c-0.3,0.8-0.3,1.4-0.1,1.6c0.1,0.2,0.5,0.3,0.9,0.3
				c0.6,0,1.2-0.3,1.8-0.5c1.5-0.6,3.1-1.3,4.4-2.4c0.9-0.7,1.5-1.5,1.8-2.3c0.3-0.9,0.4-2,0.1-2.5
				C578.9,380.2,578.4,379.5,577.7,379.7L577.7,379.7z"/>
		</g>
		<g>
			<path class="st0" d="M189,96.7c-0.6,0-1.3-0.1-2-0.3c-1.4-0.4-2.4-1.4-2.7-2.6c-0.3-0.9-0.3-2.4,1.2-4.3
				c2.6-3.2,6.9-4.9,11.7-4.8c2.6,0.1,3.6,2.4,3.8,3.5c0.3,1.8-0.6,3.6-1.5,4.7c-0.9,1.1-2.1,1.9-3.6,2.5c-1.9,0.7-3.9,0.9-5.8,1.1
				C189.6,96.6,189.3,96.7,189,96.7z M196.5,87.8c-3.6,0-6.9,1.4-8.7,3.7c-0.5,0.6-0.8,1.2-0.7,1.5c0.1,0.2,0.4,0.5,0.7,0.6
				c0.5,0.2,1.2,0.1,1.9,0.1c1.6-0.1,3.4-0.3,4.9-0.9c1-0.4,1.9-0.9,2.4-1.6c0.6-0.8,1-1.7,0.9-2.4c0-0.1-0.2-1-0.9-1h0
				C196.9,87.8,196.7,87.8,196.5,87.8z"/>
		</g>
		<g>
			<path class="st0" d="M137.8,95.5c-0.5,0-1-0.1-1.4-0.3c-0.9-0.4-2-1.4-2.4-3.7c-0.7-4.1,0.7-8.4,4-12c1.8-1.9,4.1-1.2,5.2-0.6
				c1.5,1,2.3,2.8,2.6,4.3c0.2,1.4,0.1,2.8-0.5,4.4c-0.7,2-1.9,3.7-3,5.1c-0.6,0.7-1.2,1.5-2.1,2.1
				C139.4,95.3,138.6,95.5,137.8,95.5z M140.8,81.3c-0.2,0-0.4,0.1-0.6,0.3h0c-2.6,2.8-3.8,6.3-3.3,9.4c0.1,0.8,0.4,1.4,0.7,1.5
				c0.2,0.1,0.6,0,0.9-0.2c0.5-0.3,0.9-0.8,1.3-1.4c1-1.3,2-2.7,2.6-4.3c0.4-1.1,0.5-2,0.4-2.9c-0.2-1-0.7-1.9-1.2-2.2
				C141.5,81.5,141.2,81.3,140.8,81.3z"/>
		</g>
		<g>
			<g>
				<path class="st0" d="M51.9,293.4c-3.1-9.8-8.9-18.6-16.6-25.4l2-2.2c8.1,7.2,14.1,16.4,17.4,26.8L51.9,293.4z"/>
			</g>
			<g>
				<path class="st0" d="M56.4,350.9c-4-10.1-10.3-19.4-18.2-26.9l2.1-2.2c8.2,7.8,14.8,17.4,18.9,27.9L56.4,350.9z"/>
			</g>
			<g>
				<path class="st0" d="M77.7,353.5c-0.7-4.1-0.5-8.8,0.8-13.8c1.1-4.4,2.9-8.6,4.6-12.7l2.8,1.2c-1.7,4-3.4,8.1-4.5,12.3
					c-1.2,4.6-1.5,8.8-0.8,12.6L77.7,353.5z"/>
			</g>
			<g>
				<path class="st0" d="M73.1,290.9l-2.8-1c2.8-7.6,7.4-14.5,13.4-19.9l2,2.2C80.1,277.2,75.7,283.7,73.1,290.9z"/>
			</g>
			<g>
				<path class="st0" d="M72.6,400.7c-4.7-8.6-13.2-14.6-20.8-19.8l1.7-2.5c7.8,5.5,16.7,11.7,21.7,20.9L72.6,400.7z"/>
			</g>
			<g>
				<path class="st0" d="M96.3,399.3l-3-0.1c0.3-8.4,1.1-16.8,2.4-25.1l3,0.4C97.4,382.8,96.6,391.1,96.3,399.3z"/>
			</g>
			<g>
				<path class="st0" d="M229,530.6c-0.4,0-0.9-0.2-1.2-0.5c-8.8-7.5-14.9-17.9-17.2-29.3l2.9-0.6c2.1,10.4,7.6,20,15.5,27
					c0.5,0,1,0.3,1.3,0.7c0.4,0.5,0.4,1.2,0.1,1.8c-0.3,0.4-0.7,0.7-1.2,0.8C229.2,530.6,229.1,530.6,229,530.6z M227.8,528.5
					c-0.1,0.4-0.1,0.8,0.2,1.2c0.3,0.4,0.8,0.6,1.3,0.5l-0.3-1.4L227.8,528.5z M229.8,527.8C229.8,527.8,229.8,527.8,229.8,527.8
					C229.8,527.8,229.8,527.8,229.8,527.8z"/>
			</g>
			<g>
				<path class="st0" d="M183.4,532.3l-0.4-3c7.6-0.9,15.4-1.5,23.1-1.8l0.1,3C198.6,530.8,190.9,531.4,183.4,532.3z"/>
			</g>
			<g>
				<path class="st0" d="M518.7,433l-3-0.5c1.2-7.1,0.8-14.5,0.4-21.7c-0.3-5.5-0.7-11.2-0.3-16.8l3,0.2c-0.4,5.4,0,11,0.3,16.4
					C519.5,417.9,520,425.5,518.7,433z"/>
			</g>
			<g>
				<path class="st0" d="M542.3,425.9l-1.8-2.4c9.6-7,20-12.9,31-17.5l1.2,2.8C561.9,413.2,551.7,419,542.3,425.9z"/>
			</g>
			<g>
				<path class="st0" d="M555.6,271.9c-4.1-7.1-9.9-13.1-16.8-17.4l1.6-2.6c7.4,4.6,13.5,11,17.9,18.5L555.6,271.9z"/>
			</g>
			<g>
				<path class="st0" d="M546.2,226.6c-5.5-8.3-12.9-15.4-21.4-20.7l1.6-2.6c8.8,5.5,16.6,12.9,22.3,21.6L546.2,226.6z"/>
			</g>
			<g>
				<path class="st0" d="M527.9,178.4l-2.5-2.3c-7.5-7.1-17.3-11.8-27.5-13.3l0.4-3c10.8,1.6,21.2,6.6,29.1,14.1l-0.2,0.2l0.7,0
					L527.9,178.4z"/>
			</g>
			<g>
				<path class="st0" d="M549.6,185.8c-1.8-8.6-1.8-17.8,0-26.4l2.9,0.6c-1.7,8.2-1.7,16.9,0,25.2L549.6,185.8z"/>
			</g>
			<g>
				<path class="st0" d="M564.9,226.5c-0.6-7.2,0.1-14.4,1.9-21.3l2.9,0.8c-1.8,6.6-2.4,13.5-1.8,20.3L564.9,226.5z"/>
			</g>
			<g>
				<path class="st0" d="M522.7,140.4c-3.8-9.6-7.3-19.5-10.5-29.4l2.9-0.9c3.1,9.8,6.6,19.6,10.4,29.2L522.7,140.4z"/>
			</g>
			<g>
				<path class="st0" d="M398.1,55.2c-5.2-4.1-9.9-8.9-13.8-14.2l2.4-1.8c3.8,5.1,8.3,9.7,13.3,13.6L398.1,55.2z"/>
			</g>
			<g>
				<path class="st0" d="M350.8,63.7l-1-2.8c8.9-3.3,18.1-5.9,27.4-7.8l0.6,2.9C368.6,57.9,359.6,60.5,350.8,63.7z"/>
			</g>
			<g>
				<path class="st0" d="M112.3,135.8l-2.8-1.1c3.8-9.6,6.8-19.6,9.1-29.7l2.9,0.7C119.2,115.9,116.1,126.1,112.3,135.8z"/>
			</g>
			<g>
				<path class="st0" d="M144.9,120.7l-0.3-3c10.1-1.1,20-3.8,29.3-8l1.2,2.7C165.5,116.8,155.4,119.5,144.9,120.7z"/>
			</g>
		</g>
		<g>
			<path class="st0" d="M223.6,529.2c-20.3-12-37.9-28.7-50.9-48.4l2.5-1.7c12.7,19.3,30,35.7,49.9,47.4L223.6,529.2z"/>
		</g>
		<g>
			<path class="st0" d="M178.5,489.6c-0.7,0-1.4-0.2-2.4-0.6c-3.4-1.6-5.8-5-6.7-9.3h0c-0.5-2.4,1.3-3.8,2.4-4.2
				c1.6-0.6,3.4-0.2,4.6,0.3c1.1,0.6,2.2,1.5,3,2.7c1.1,1.5,1.7,3.3,2.2,4.9c0.3,0.8,0.5,1.7,0.4,2.7c-0.1,1.3-0.7,2.5-1.7,3.1
				C179.8,489.4,179.2,489.6,178.5,489.6z M172.3,479.1c0.7,3.3,2.6,6,5.1,7.2c0.7,0.3,1.1,0.4,1.3,0.3c0.1-0.1,0.2-0.3,0.3-0.6
				c0-0.5-0.1-1-0.3-1.6c-0.4-1.4-0.9-2.9-1.8-4.1c-0.6-0.8-1.2-1.4-1.8-1.7c-0.7-0.4-1.6-0.5-2.1-0.3
				C172.8,478.3,172.2,478.6,172.3,479.1L172.3,479.1z"/>
		</g>
		<g>
			<path class="st0" d="M196.7,527.3c-16.7-6.9-32.2-11.1-46.1-12.6l0.3-3c14.2,1.4,30,5.7,47,12.8L196.7,527.3z"/>
		</g>
		<g>
			<path class="st0" d="M153.4,518.8c-0.5,0-1,0-1.5-0.1c-1.5-0.2-2.8-0.7-3.8-1.4c-1.4-1-2.3-2.5-2.4-3.9c-0.1-1.1,0.3-3.4,2.7-4.1
				l0,0c4.2-1.2,8.4-0.6,11.4,1.7c1.8,1.3,2.1,2.7,2,3.6c-0.1,1.2-0.8,2.3-1.9,3c-0.8,0.5-1.7,0.7-2.6,0.9
				C156.1,518.6,154.8,518.8,153.4,518.8z M149.2,512.2c-0.5,0.2-0.5,0.9-0.5,0.9c0.1,0.5,0.6,1.3,1.2,1.8c0.6,0.4,1.4,0.7,2.4,0.9
				c1.5,0.2,3,0,4.4-0.3c0.6-0.1,1.2-0.2,1.6-0.5c0.3-0.2,0.4-0.4,0.5-0.5c0-0.2-0.2-0.6-0.8-1C155.7,511.7,152.5,511.3,149.2,512.2
				L149.2,512.2z"/>
		</g>
		<g>
			<g>
				<path class="st0" d="M525.9,176.1c-12.2-19.7-29-36.5-48.6-48.8l1.6-2.5c20,12.5,37.1,29.7,49.5,49.8L525.9,176.1z"/>
			</g>
			<g>
				<path class="st0" d="M483.9,133.9c-0.8,0-1.6-0.2-2.3-0.4c-1.6-0.5-3.4-1-4.9-2.1c-1.3-0.8-2.2-1.8-2.8-2.9
					c-0.6-1.2-1-3-0.5-4.6c0.4-1.1,1.8-2.9,4.2-2.5h0c4.3,0.8,7.8,3.2,9.5,6.5c1,2,0.7,3.3,0.2,4.1c-0.6,1-1.7,1.7-3,1.8
					C484.2,133.8,484.1,133.9,483.9,133.9z M477.1,124.4c-0.5,0-0.7,0.6-0.7,0.6c-0.2,0.5-0.1,1.4,0.3,2.1c0.3,0.7,0.9,1.3,1.7,1.8
					c1.2,0.8,2.7,1.3,4.1,1.7c0.6,0.2,1.2,0.3,1.6,0.3c0.3,0,0.6-0.2,0.6-0.3c0.1-0.2,0-0.6-0.3-1.3c-1.2-2.5-4-4.3-7.3-4.9
					C477.1,124.4,477.1,124.4,477.1,124.4z"/>
			</g>
		</g>
		<g>
			<g>
				<path class="st0" d="M510,128c-8.5-10.6-16.3-22.9-23.1-36.7l2.7-1.3c6.7,13.6,14.3,25.7,22.7,36.2L510,128z"/>
			</g>
			<g>
				<path class="st0" d="M492,100.8c-0.7,0-1.7-0.2-2.8-0.9c-3.2-2-5.2-5.7-5.5-10.1l0,0c-0.2-2.4,1.8-3.6,2.9-3.9
					c1.6-0.4,3.4,0.2,4.5,0.9c1.1,0.7,2,1.7,2.6,3.1c0.9,1.7,1.3,3.6,1.6,5.2c0.1,0.9,0.3,1.8,0.1,2.7c-0.2,1.3-1,2.4-2.1,2.8
					C493,100.7,492.5,100.8,492,100.8z M486.7,89.5c0.3,3.4,1.8,6.4,4.2,7.9c0.7,0.5,1.1,0.5,1.3,0.4c0.1,0,0.3-0.3,0.3-0.6
					c0.1-0.5,0-1.1-0.1-1.7c-0.3-1.4-0.6-3-1.3-4.3c-0.5-0.9-1-1.5-1.6-1.9c-0.7-0.5-1.6-0.7-2.1-0.5
					C487.2,88.8,486.6,89,486.7,89.5L486.7,89.5z"/>
			</g>
		</g>
	</g>
	<g>
		<g>
			<path class="st1" d="M195.1,281.8c1.4,0,2.9-0.2,4.3-0.7s2.7-1.2,3.9-2.2c1.1-1,2.1-2.2,2.8-3.7c0.7-1.5,1.1-3.2,1.1-5.2
				c0-2.3-0.7-4.3-2-6c-1.3-1.7-3-3.2-5.1-4.4c-2.1-1.2-4.4-2.2-7-3c-2.6-0.8-5.1-1.5-7.7-2.1c-2.4-0.5-4.9-1.3-7.6-2.1
				c-2.7-0.9-5.2-2-7.7-3.2c-2.5-1.3-4.7-2.7-6.7-4.3c-2-1.6-3.5-3.4-4.5-5.4c-0.9-1.6-1.6-3.3-2-5.1c-0.5-1.8-0.7-3.6-0.7-5.4
				c0-2.7,0.5-5.4,1.4-8.2c1-2.8,2.5-5.2,4.7-7.4c2.2-2.2,5-4,8.6-5.4c3.5-1.4,7.9-2.1,13-2.1c3.3,0,6.1,0.3,8.5,0.8
				c2.4,0.5,4.4,1.1,6,1.7c1.6,0.6,2.8,1.2,3.7,1.8c0.8,0.6,1.3,0.9,1.4,1c0.5,0.3,0.7,0.7,0.7,1.2v10.4c0,0.3-0.1,0.5-0.2,0.6
				c-0.2,0.2-0.3,0.2-0.5,0.3c-0.2,0-0.4,0-0.6-0.1c-0.2-0.1-0.3-0.3-0.5-0.5c-0.7-1.7-1.6-3.4-2.6-5.1c-1-1.7-2.3-3.2-3.8-4.5
				c-1.5-1.3-3.4-2.4-5.6-3.2c-2.2-0.8-4.8-1.2-7.9-1.2c-4,0-7.1,0.9-9.3,2.8c-2.2,1.9-3.3,4.4-3.3,7.6c0,2.9,0.6,5.2,1.9,6.9
				c1.3,1.7,3,3.1,5.3,4.2c2.3,1.1,5,2,8.2,2.8c3.2,0.8,6.8,1.6,10.7,2.5c2.7,0.6,5.3,1.4,7.8,2.1c2.5,0.8,4.8,1.7,6.9,2.7
				c2.1,1.1,4,2.3,5.7,3.6c1.7,1.4,3.2,2.9,4.4,4.7c1.2,1.8,2.1,3.8,2.8,6c0.7,2.3,1,4.8,1,7.7c0,3.7-0.7,6.9-2.1,9.8
				c-1.4,2.8-3.4,5.2-5.8,7.2c-2.5,1.9-5.3,3.4-8.6,4.4c-3.2,1-6.7,1.5-10.4,1.5c-2.7,0-5.4-0.3-8.1-0.8c-2.7-0.6-5.4-1.3-8.1-2.1
				c-2.7-0.8-5.5-1.7-8.3-2.7c-2.8-1-5.7-1.9-8.7-2.7c-3-0.8-6.1-1.5-9.4-2.1s-6.6-0.8-10.2-0.8c-3.4,0-6.5,0.1-9.4,0.4
				c-2.9,0.3-5.5,0.7-8,1.2c-2.5,0.5-4.8,1.2-6.9,1.9c-2.1,0.7-4.2,1.5-6.2,2.4c-0.8,0.4-1.4,0.4-1.6,0c-0.2-0.4-0.2-0.8,0-1.4
				c0.9-2.6,2.2-5.1,3.9-7.3c1.7-2.3,3.7-4.2,6-5.9c2.3-1.7,4.8-3,7.6-3.9c2.8-1,5.8-1.4,9-1.4c4.6,0,8.7,0.5,12.4,1.6
				c3.7,1.1,7.2,2.4,10.3,4c3.1,1.6,6.1,3.3,8.8,5.2c2.7,1.9,5.4,3.6,8,5.2c2.6,1.6,5.2,2.9,7.8,4
				C189.4,281.3,192.2,281.8,195.1,281.8z"/>
			<path class="st1" d="M292,283.1c0.3,0.1,0.5,0.2,0.7,0.4c0.1,0.2,0.2,0.4,0.1,0.5c0,0.2-0.1,0.4-0.3,0.5
				c-0.2,0.2-0.4,0.2-0.7,0.2H285h-0.5H270h-0.5h-6.7c-0.3,0-0.5-0.1-0.7-0.2c-0.2-0.2-0.3-0.3-0.3-0.5c0-0.2,0-0.4,0.1-0.5
				c0.1-0.2,0.4-0.3,0.7-0.4c0.3,0,0.8-0.2,1.6-0.4c0.7-0.2,1.5-0.6,2.3-1.1c0.8-0.5,1.5-1.2,2.1-2.2c0.6-0.9,0.9-2.2,0.9-3.7v-21
				v-0.5v-3.2c0-1.6-0.2-3.3-0.4-5c-0.2-1.7-0.7-3.2-1.3-4.6c-0.7-1.4-1.7-2.5-2.9-3.4c-1.3-0.9-3-1.3-5.2-1.3c-2.2,0-4,0.4-5.2,1.3
				c-1.2,0.9-2.1,2-2.7,3.3c-0.6,1.3-1,2.7-1.1,4.2c-0.1,1.5-0.2,2.8-0.2,3.9v26.4c0,1.5,0.3,2.8,0.9,3.7c0.6,0.9,1.3,1.7,2.1,2.2
				c0.8,0.5,1.6,0.9,2.3,1.1c0.7,0.2,1.3,0.3,1.6,0.4c0.3,0.1,0.5,0.2,0.7,0.4c0.1,0.2,0.2,0.4,0.1,0.5c0,0.2-0.1,0.4-0.3,0.5
				c-0.2,0.2-0.4,0.2-0.7,0.2h-28.9c-0.3,0-0.5-0.1-0.7-0.2c-0.2-0.2-0.3-0.3-0.3-0.5c0-0.2,0-0.4,0.1-0.5c0.1-0.2,0.4-0.3,0.7-0.4
				c0.3,0,0.8-0.2,1.6-0.4c0.7-0.2,1.5-0.6,2.3-1.1c0.8-0.5,1.5-1.2,2.1-2.2c0.6-0.9,0.9-2.2,0.9-3.7v-64.5c0-0.5-0.2-0.8-0.7-0.9
				c-0.1,0-0.4-0.1-0.8-0.2c-0.5-0.1-1-0.2-1.6-0.4c-0.6-0.2-1.2-0.3-1.7-0.4c-0.5-0.1-0.8-0.2-1-0.2c-0.5-0.1-0.8-0.4-0.8-0.8
				c0-0.4,0.3-0.7,0.8-0.8c1.5-0.3,3.1-0.8,4.9-1.4c1.7-0.6,3.5-1.3,5.3-2c1.8-0.7,3.5-1.5,5.1-2.4c1.6-0.9,3.1-1.7,4.4-2.6
				c0.3-0.2,0.7-0.3,1.1-0.3c0.4,0,0.5,0.3,0.5,0.9v37.6c0.8-0.7,1.7-1.4,2.8-2.1c1-0.7,2.2-1.3,3.5-1.7c1.3-0.5,2.7-0.9,4.3-1.2
				c1.6-0.3,3.3-0.5,5.3-0.5c3.1,0,5.8,0.3,7.9,1c2.1,0.7,3.9,1.6,5.3,2.7c1.4,1.1,2.5,2.5,3.2,4s1.3,3,1.6,4.6
				c0.3,1.6,0.5,3.2,0.6,4.8c0.1,1.6,0.1,3.1,0.1,4.4v0.3v22.1c0,1.5,0.3,2.8,0.9,3.7c0.6,0.9,1.3,1.7,2.1,2.2
				c0.8,0.5,1.6,0.9,2.3,1.1C291.1,282.9,291.6,283.1,292,283.1z"/>
			<path class="st1" d="M346.4,279.5c0.5-0.1,1,0,1.3,0.3c0.3,0.3,0.3,0.8,0.1,1.3c-0.2,0.4-0.6,0.9-1.1,1.5
				c-0.5,0.6-1.2,1.1-2.1,1.6s-1.9,0.9-3.2,1.3c-1.2,0.3-2.7,0.5-4.4,0.5c-2.3,0-4.3-0.5-5.9-1.4c-1.6-0.9-2.7-2-3.3-3.2
				c-0.2-0.3-0.4-0.4-0.7-0.4c-0.3,0-0.5,0.2-0.7,0.3c-0.1,0.1-0.5,0.4-1.1,0.9c-0.6,0.5-1.4,1.1-2.5,1.7c-1.1,0.6-2.4,1.1-3.9,1.6
				c-1.5,0.5-3.3,0.7-5.3,0.7c-3.4,0-6.3-0.5-8.6-1.4c-2.3-1-4.2-2.2-5.6-3.7c-1.4-1.5-2.5-3.2-3.1-5.1c-0.6-1.9-1-3.8-1-5.6
				c0-3,0.9-5.7,2.6-7.9c1.7-2.3,3.9-3.9,6.7-5c1.5-0.6,3-1,4.6-1.2c1.6-0.2,3.2-0.5,4.8-0.8c1.6-0.3,3.1-0.6,4.6-1
				c1.5-0.4,2.9-1.1,4.3-2c1.4-1,2.4-2.2,3-3.7c0.6-1.5,0.8-3.1,0.8-4.8c0-1.2-0.2-2.4-0.5-3.5c-0.3-1.1-0.8-2.1-1.4-3
				c-0.6-0.8-1.3-1.5-2.1-2c-0.8-0.5-1.6-0.7-2.6-0.7c-1.7,0-2.9,0.4-3.6,1.3c-0.8,0.8-1.4,1.9-1.8,3c-0.4,1.2-0.9,2.4-1.2,3.7
				c-0.4,1.3-1,2.4-1.8,3.3c-0.7,0.7-1.6,1.3-2.7,1.6s-2.1,0.5-3.1,0.5c-1,0-2-0.2-2.8-0.5s-1.5-0.8-2.1-1.4c-0.6-0.6-1-1.3-1.3-2.1
				c-0.3-0.8-0.4-1.6-0.4-2.5c0-1.2,0.3-2.4,0.9-3.6c0.6-1.2,1.6-2.3,3.1-3.2c1.5-1,3.5-1.7,6-2.3c2.5-0.6,5.7-0.9,9.5-0.9
				c4.3,0,7.9,0.4,10.9,1.3c3,0.9,5.5,2.1,7.4,3.8c1.9,1.6,3.3,3.7,4.1,6.1c0.9,2.4,1.3,5.2,1.3,8.3c0,3.7-0.1,7.2-0.3,10.4
				c-0.2,3.2-0.4,6.1-0.5,8.6c-0.1,2.5,0,4.6,0.1,6.2c0.2,1.6,0.7,2.6,1.6,3c0.4,0.2,0.9,0.3,1.4,0.3S345.8,279.6,346.4,279.5z
				 M326.4,253.9c0-0.2-0.1-0.4-0.3-0.5c-0.2-0.1-0.4,0-0.5,0.2c-0.3,0.3-0.6,0.7-0.8,1c-0.3,0.3-0.6,0.7-1,1.1
				c-0.7,0.8-1.5,1.5-2.2,2.1c-0.8,0.7-1.5,1.3-2.3,2c-0.8,0.6-1.5,1.2-2.3,1.8c-0.7,0.6-1.4,1.3-2.1,2c-1,1.1-1.7,2.4-2.2,3.8
				c-0.5,1.4-0.7,2.8-0.7,4.3c0,1,0.2,2.1,0.5,3.1c0.3,1.1,0.8,2,1.4,2.8c0.6,0.8,1.4,1.5,2.4,2c1,0.5,2.2,0.8,3.5,0.8
				s2.5-0.3,3.4-0.9c0.9-0.6,1.5-1.3,2-2.1c0.5-0.8,0.8-1.6,1-2.4c0.2-0.8,0.3-1.5,0.3-1.9V253.9z"/>
			<path class="st1" d="M402.2,279.5c0.5-0.1,1,0,1.3,0.3c0.3,0.3,0.3,0.8,0.1,1.3c-0.2,0.4-0.6,0.9-1.1,1.5
				c-0.5,0.6-1.2,1.1-2.1,1.6s-1.9,0.9-3.2,1.3c-1.2,0.3-2.7,0.5-4.4,0.5c-2.3,0-4.3-0.5-5.9-1.4c-1.6-0.9-2.7-2-3.3-3.2
				c-0.2-0.3-0.4-0.4-0.7-0.4c-0.3,0-0.5,0.2-0.7,0.3c-0.1,0.1-0.5,0.4-1.1,0.9c-0.6,0.5-1.4,1.1-2.5,1.7c-1.1,0.6-2.4,1.1-3.9,1.6
				c-1.5,0.5-3.3,0.7-5.3,0.7c-3.4,0-6.3-0.5-8.6-1.4c-2.3-1-4.2-2.2-5.6-3.7c-1.4-1.5-2.5-3.2-3.1-5.1c-0.6-1.9-1-3.8-1-5.6
				c0-3,0.9-5.7,2.6-7.9c1.7-2.3,3.9-3.9,6.7-5c1.5-0.6,3-1,4.6-1.2c1.6-0.2,3.2-0.5,4.8-0.8c1.6-0.3,3.1-0.6,4.6-1
				c1.5-0.4,2.9-1.1,4.3-2c1.4-1,2.4-2.2,3-3.7c0.6-1.5,0.8-3.1,0.8-4.8c0-1.2-0.2-2.4-0.5-3.5c-0.3-1.1-0.8-2.1-1.4-3
				c-0.6-0.8-1.3-1.5-2.1-2c-0.8-0.5-1.6-0.7-2.6-0.7c-1.7,0-2.9,0.4-3.6,1.3c-0.8,0.8-1.4,1.9-1.8,3c-0.4,1.2-0.9,2.4-1.2,3.7
				c-0.4,1.3-1,2.4-1.8,3.3c-0.7,0.7-1.6,1.3-2.7,1.6s-2.1,0.5-3.1,0.5c-1,0-2-0.2-2.8-0.5s-1.5-0.8-2.1-1.4c-0.6-0.6-1-1.3-1.3-2.1
				c-0.3-0.8-0.4-1.6-0.4-2.5c0-1.2,0.3-2.4,0.9-3.6c0.6-1.2,1.6-2.3,3.1-3.2c1.5-1,3.5-1.7,6-2.3c2.5-0.6,5.7-0.9,9.5-0.9
				c4.3,0,7.9,0.4,10.9,1.3c3,0.9,5.5,2.1,7.4,3.8c1.9,1.6,3.3,3.7,4.1,6.1c0.9,2.4,1.3,5.2,1.3,8.3c0,3.7-0.1,7.2-0.3,10.4
				c-0.2,3.2-0.4,6.1-0.5,8.6c-0.1,2.5,0,4.6,0.1,6.2c0.2,1.6,0.7,2.6,1.6,3c0.4,0.2,0.9,0.3,1.4,0.3S401.6,279.6,402.2,279.5z
				 M382.2,253.9c0-0.2-0.1-0.4-0.3-0.5c-0.2-0.1-0.4,0-0.5,0.2c-0.3,0.3-0.6,0.7-0.8,1c-0.3,0.3-0.6,0.7-1,1.1
				c-0.7,0.8-1.5,1.5-2.2,2.1c-0.8,0.7-1.5,1.3-2.3,2c-0.8,0.6-1.5,1.2-2.3,1.8c-0.7,0.6-1.4,1.3-2.1,2c-1,1.1-1.7,2.4-2.2,3.8
				c-0.5,1.4-0.7,2.8-0.7,4.3c0,1,0.2,2.1,0.5,3.1c0.3,1.1,0.8,2,1.4,2.8c0.6,0.8,1.4,1.5,2.4,2c1,0.5,2.2,0.8,3.5,0.8
				s2.5-0.3,3.4-0.9c0.9-0.6,1.5-1.3,2-2.1c0.5-0.8,0.8-1.6,1-2.4c0.2-0.8,0.3-1.5,0.3-1.9V253.9z"/>
			<path class="st1" d="M470.3,283.1c0.3,0.1,0.5,0.2,0.7,0.4c0.1,0.2,0.2,0.4,0.1,0.5c0,0.2-0.1,0.4-0.3,0.5
				c-0.2,0.2-0.4,0.2-0.7,0.2h-20.8c-0.4,0-0.8-0.1-1-0.3c-0.3-0.2-0.4-0.5-0.4-0.9v-5c0-0.3-0.1-0.4-0.3-0.5
				c-0.2-0.1-0.4,0-0.5,0.2c-0.3,0.4-0.9,1.1-1.7,2s-1.9,1.8-3.3,2.7c-1.4,0.9-3.1,1.7-5.2,2.3c-2.1,0.7-4.5,1-7.2,1
				c-3.1,0-5.8-0.4-8.1-1.2c-2.3-0.8-4.3-1.9-6-3.3c-1.7-1.4-3.1-2.9-4.1-4.7c-1.1-1.8-2-3.6-2.6-5.6c-0.6-1.9-1.1-3.9-1.3-5.8
				c-0.3-1.9-0.4-3.8-0.4-5.5c0-4.3,0.5-8.2,1.6-11.7c1.1-3.5,2.6-6.5,4.8-9c2.1-2.5,4.8-4.4,8-5.7c3.2-1.3,7-2,11.3-2
				c2.4,0,4.5,0.1,6.3,0.4c1.8,0.3,3.2,0.6,4.4,1c1.2,0.4,2,0.7,2.6,1c0.6,0.3,0.9,0.5,1,0.5c0.2,0.2,0.4,0.2,0.5,0.1
				c0.2-0.1,0.3-0.2,0.3-0.4v-23.2c0-0.5-0.2-0.8-0.7-0.9c-0.1,0-0.4-0.1-0.8-0.2c-0.5-0.1-1-0.2-1.6-0.4c-0.6-0.2-1.2-0.3-1.7-0.4
				c-0.5-0.1-0.8-0.2-1-0.2c-0.5-0.1-0.8-0.4-0.8-0.8c0-0.4,0.3-0.7,0.8-0.8c1.5-0.3,3.1-0.8,4.9-1.4c1.7-0.6,3.5-1.3,5.3-2
				c1.8-0.7,3.5-1.5,5.1-2.4c1.7-0.9,3.1-1.7,4.4-2.6c0.3-0.2,0.7-0.3,1.1-0.3c0.4,0,0.5,0.3,0.5,0.9v76.1c0,1.5,0.3,2.8,0.9,3.7
				c0.6,0.9,1.3,1.7,2.1,2.2c0.8,0.5,1.6,0.9,2.3,1.1C469.4,282.9,470,283.1,470.3,283.1z M447.8,250.7c0-1-0.1-2-0.2-3.2
				c-0.1-1.1-0.4-2.3-0.7-3.5c-0.3-1.2-0.8-2.3-1.3-3.4c-0.6-1.1-1.3-2-2.1-2.9c-0.8-0.8-1.8-1.5-3-2c-1.2-0.5-2.5-0.8-4-0.8
				c-2.3,0-4.2,0.6-5.8,1.7s-2.9,2.7-3.9,4.7c-1,2-1.7,4.4-2.2,7.1c-0.5,2.7-0.7,5.7-0.7,8.8c0,0.8,0,2,0,3.4c0,1.4,0.1,3,0.3,4.6
				c0.2,1.6,0.5,3.3,1,5c0.5,1.7,1.1,3.2,2,4.5c0.9,1.3,2,2.4,3.4,3.3c1.4,0.9,3.1,1.3,5.1,1.3c2.6,0,4.7-0.5,6.3-1.4
				c1.6-1,2.8-2.1,3.6-3.5c0.8-1.4,1.4-2.8,1.7-4.4c0.3-1.5,0.4-2.9,0.4-4.1V250.7z"/>
			<path class="st1" d="M496.2,275.8c0,1.5,0.3,2.8,0.9,3.7c0.6,0.9,1.3,1.7,2.1,2.2c0.8,0.5,1.6,0.9,2.3,1.1
				c0.7,0.2,1.3,0.3,1.6,0.4c0.3,0.1,0.5,0.2,0.7,0.4c0.1,0.2,0.2,0.4,0.1,0.5c0,0.2-0.1,0.4-0.3,0.5c-0.2,0.2-0.4,0.2-0.7,0.2H474
				c-0.3,0-0.5-0.1-0.7-0.2c-0.2-0.2-0.3-0.3-0.3-0.5c0-0.2,0-0.4,0.1-0.5c0.1-0.2,0.4-0.3,0.7-0.4c0.3,0,0.8-0.2,1.6-0.4
				c0.7-0.2,1.5-0.6,2.3-1.1c0.8-0.5,1.5-1.2,2.1-2.2c0.6-0.9,0.9-2.2,0.9-3.7v-31.8c0-0.5-0.2-0.8-0.7-0.9c-0.1,0-0.4-0.1-0.8-0.2
				c-0.5-0.1-1-0.2-1.6-0.4c-0.6-0.2-1.2-0.3-1.7-0.4c-0.5-0.1-0.8-0.2-1-0.2c-0.5-0.1-0.8-0.4-0.8-0.8c0-0.4,0.3-0.7,0.8-0.8
				c1.5-0.3,3.1-0.8,4.9-1.4c1.7-0.6,3.5-1.3,5.3-2c1.8-0.7,3.5-1.5,5.1-2.4c1.6-0.9,3.1-1.7,4.4-2.6c0.3-0.2,0.7-0.3,1.1-0.3
				c0.4,0,0.5,0.3,0.5,0.9V275.8z M496.7,211.3c-0.5-1.1-1.1-2.1-1.9-2.9c-0.8-0.8-1.8-1.5-2.9-1.9c-1.1-0.5-2.4-0.7-3.8-0.7
				c-1.3,0-2.6,0.2-3.8,0.7c-1.2,0.5-2.2,1.2-3.1,2c-0.9,0.8-1.5,1.8-2,2.9c-0.5,1.1-0.7,2.3-0.7,3.6s0.2,2.4,0.7,3.6
				c0.5,1.1,1.1,2.1,1.9,2.9c0.8,0.8,1.8,1.4,2.9,1.9c1.1,0.5,2.4,0.7,3.7,0.7c1.4,0,2.7-0.2,3.8-0.7c1.2-0.5,2.2-1.2,3.1-2
				c0.9-0.8,1.6-1.8,2.1-2.9c0.5-1.1,0.7-2.3,0.7-3.6S497.2,212.4,496.7,211.3z"/>
		</g>
		<g>
			<path class="st2" d="M196.9,281.8c1.4,0,2.9-0.2,4.3-0.7s2.7-1.2,3.9-2.2c1.1-1,2.1-2.2,2.8-3.7c0.7-1.5,1.1-3.2,1.1-5.2
				c0-2.3-0.7-4.3-2-6c-1.3-1.7-3-3.2-5.1-4.4c-2.1-1.2-4.4-2.2-7-3c-2.6-0.8-5.1-1.5-7.7-2.1c-2.4-0.5-4.9-1.3-7.6-2.1
				c-2.7-0.9-5.2-2-7.7-3.2c-2.5-1.3-4.7-2.7-6.7-4.3c-2-1.6-3.5-3.4-4.5-5.4c-0.9-1.6-1.6-3.3-2-5.1c-0.5-1.8-0.7-3.6-0.7-5.4
				c0-2.7,0.5-5.4,1.4-8.2c1-2.8,2.5-5.2,4.7-7.4c2.2-2.2,5-4,8.6-5.4c3.5-1.4,7.9-2.1,13-2.1c3.3,0,6.1,0.3,8.5,0.8
				c2.4,0.5,4.4,1.1,6,1.7c1.6,0.6,2.8,1.2,3.7,1.8c0.8,0.6,1.3,0.9,1.4,1c0.5,0.3,0.7,0.7,0.7,1.2v10.4c0,0.3-0.1,0.5-0.2,0.6
				c-0.2,0.2-0.3,0.2-0.5,0.3c-0.2,0-0.4,0-0.6-0.1c-0.2-0.1-0.3-0.3-0.5-0.5c-0.7-1.7-1.6-3.4-2.6-5.1c-1-1.7-2.3-3.2-3.8-4.5
				c-1.5-1.3-3.4-2.4-5.6-3.2c-2.2-0.8-4.8-1.2-7.9-1.2c-4,0-7.1,0.9-9.3,2.8c-2.2,1.9-3.3,4.4-3.3,7.6c0,2.9,0.6,5.2,1.9,6.9
				c1.3,1.7,3,3.1,5.3,4.2c2.3,1.1,5,2,8.2,2.8c3.2,0.8,6.8,1.6,10.7,2.5c2.7,0.6,5.3,1.4,7.8,2.1c2.5,0.8,4.8,1.7,6.9,2.7
				c2.1,1.1,4,2.3,5.7,3.6c1.7,1.4,3.2,2.9,4.4,4.7c1.2,1.8,2.1,3.8,2.8,6c0.7,2.3,1,4.8,1,7.7c0,3.7-0.7,6.9-2.1,9.8
				c-1.4,2.8-3.4,5.2-5.8,7.2c-2.5,1.9-5.3,3.4-8.6,4.4c-3.2,1-6.7,1.5-10.4,1.5c-2.7,0-5.4-0.3-8.1-0.8c-2.7-0.6-5.4-1.3-8.1-2.1
				c-2.7-0.8-5.5-1.7-8.3-2.7c-2.8-1-5.7-1.9-8.7-2.7c-3-0.8-6.1-1.5-9.4-2.1s-6.6-0.8-10.2-0.8c-3.4,0-6.5,0.1-9.4,0.4
				c-2.9,0.3-5.5,0.7-8,1.2c-2.5,0.5-4.8,1.2-6.9,1.9c-2.1,0.7-4.2,1.5-6.2,2.4c-0.8,0.4-1.4,0.4-1.6,0c-0.2-0.4-0.2-0.8,0-1.4
				c0.9-2.6,2.2-5.1,3.9-7.3c1.7-2.3,3.7-4.2,6-5.9c2.3-1.7,4.8-3,7.6-3.9c2.8-1,5.8-1.4,9-1.4c4.6,0,8.7,0.5,12.4,1.6
				c3.7,1.1,7.2,2.4,10.3,4c3.1,1.6,6.1,3.3,8.8,5.2c2.7,1.9,5.4,3.6,8,5.2c2.6,1.6,5.2,2.9,7.8,4
				C191.3,281.3,194,281.8,196.9,281.8z"/>
			<path class="st2" d="M293.8,283.1c0.3,0.1,0.5,0.2,0.7,0.4c0.1,0.2,0.2,0.4,0.1,0.5c0,0.2-0.1,0.4-0.3,0.5
				c-0.2,0.2-0.4,0.2-0.7,0.2h-6.7h-0.5h-14.5h-0.5h-6.7c-0.3,0-0.5-0.1-0.7-0.2c-0.2-0.2-0.3-0.3-0.3-0.5c0-0.2,0-0.4,0.1-0.5
				c0.1-0.2,0.4-0.3,0.7-0.4c0.3,0,0.8-0.2,1.6-0.4c0.7-0.2,1.5-0.6,2.3-1.1c0.8-0.5,1.5-1.2,2.1-2.2c0.6-0.9,0.9-2.2,0.9-3.7v-21
				v-0.5v-3.2c0-1.6-0.2-3.3-0.4-5c-0.2-1.7-0.7-3.2-1.3-4.6c-0.7-1.4-1.7-2.5-2.9-3.4c-1.3-0.9-3-1.3-5.2-1.3c-2.2,0-4,0.4-5.2,1.3
				c-1.2,0.9-2.1,2-2.7,3.3c-0.6,1.3-1,2.7-1.1,4.2c-0.1,1.5-0.2,2.8-0.2,3.9v26.4c0,1.5,0.3,2.8,0.9,3.7c0.6,0.9,1.3,1.7,2.1,2.2
				c0.8,0.5,1.6,0.9,2.3,1.1c0.7,0.2,1.3,0.3,1.6,0.4c0.3,0.1,0.5,0.2,0.7,0.4c0.1,0.2,0.2,0.4,0.1,0.5c0,0.2-0.1,0.4-0.3,0.5
				c-0.2,0.2-0.4,0.2-0.7,0.2h-28.9c-0.3,0-0.5-0.1-0.7-0.2c-0.2-0.2-0.3-0.3-0.3-0.5c0-0.2,0-0.4,0.1-0.5c0.1-0.2,0.4-0.3,0.7-0.4
				c0.3,0,0.8-0.2,1.6-0.4c0.7-0.2,1.5-0.6,2.3-1.1c0.8-0.5,1.5-1.2,2.1-2.2c0.6-0.9,0.9-2.2,0.9-3.7v-64.5c0-0.5-0.2-0.8-0.7-0.9
				c-0.1,0-0.4-0.1-0.8-0.2c-0.5-0.1-1-0.2-1.6-0.4c-0.6-0.2-1.2-0.3-1.7-0.4c-0.5-0.1-0.8-0.2-1-0.2c-0.5-0.1-0.8-0.4-0.8-0.8
				c0-0.4,0.3-0.7,0.8-0.8c1.5-0.3,3.1-0.8,4.9-1.4c1.7-0.6,3.5-1.3,5.3-2c1.8-0.7,3.5-1.5,5.1-2.4c1.6-0.9,3.1-1.7,4.4-2.6
				c0.3-0.2,0.7-0.3,1.1-0.3c0.4,0,0.5,0.3,0.5,0.9v37.6c0.8-0.7,1.7-1.4,2.8-2.1c1-0.7,2.2-1.3,3.5-1.7c1.3-0.5,2.7-0.9,4.3-1.2
				c1.6-0.3,3.3-0.5,5.3-0.5c3.1,0,5.8,0.3,7.9,1c2.1,0.7,3.9,1.6,5.3,2.7c1.4,1.1,2.5,2.5,3.2,4s1.3,3,1.6,4.6
				c0.3,1.6,0.5,3.2,0.6,4.8c0.1,1.6,0.1,3.1,0.1,4.4v0.3v22.1c0,1.5,0.3,2.8,0.9,3.7c0.6,0.9,1.3,1.7,2.1,2.2
				c0.8,0.5,1.6,0.9,2.3,1.1C293,282.9,293.5,283.1,293.8,283.1z"/>
			<path class="st2" d="M348.3,279.5c0.5-0.1,1,0,1.3,0.3c0.3,0.3,0.3,0.8,0.1,1.3c-0.2,0.4-0.6,0.9-1.1,1.5
				c-0.5,0.6-1.2,1.1-2.1,1.6s-1.9,0.9-3.2,1.3c-1.2,0.3-2.7,0.5-4.4,0.5c-2.3,0-4.3-0.5-5.9-1.4c-1.6-0.9-2.7-2-3.3-3.2
				c-0.2-0.3-0.4-0.4-0.7-0.4c-0.3,0-0.5,0.2-0.7,0.3c-0.1,0.1-0.5,0.4-1.1,0.9c-0.6,0.5-1.4,1.1-2.5,1.7c-1.1,0.6-2.4,1.1-3.9,1.6
				c-1.5,0.5-3.3,0.7-5.3,0.7c-3.4,0-6.3-0.5-8.6-1.4c-2.3-1-4.2-2.2-5.6-3.7c-1.4-1.5-2.5-3.2-3.1-5.1c-0.6-1.9-1-3.8-1-5.6
				c0-3,0.9-5.7,2.6-7.9c1.7-2.3,3.9-3.9,6.7-5c1.5-0.6,3-1,4.6-1.2c1.6-0.2,3.2-0.5,4.8-0.8c1.6-0.3,3.1-0.6,4.6-1
				c1.5-0.4,2.9-1.1,4.3-2c1.4-1,2.4-2.2,3-3.7c0.6-1.5,0.8-3.1,0.8-4.8c0-1.2-0.2-2.4-0.5-3.5c-0.3-1.1-0.8-2.1-1.4-3
				c-0.6-0.8-1.3-1.5-2.1-2c-0.8-0.5-1.6-0.7-2.6-0.7c-1.7,0-2.9,0.4-3.6,1.3c-0.8,0.8-1.4,1.9-1.8,3c-0.4,1.2-0.9,2.4-1.2,3.7
				c-0.4,1.3-1,2.4-1.8,3.3c-0.7,0.7-1.6,1.3-2.7,1.6s-2.1,0.5-3.1,0.5c-1,0-2-0.2-2.8-0.5s-1.5-0.8-2.1-1.4c-0.6-0.6-1-1.3-1.3-2.1
				c-0.3-0.8-0.4-1.6-0.4-2.5c0-1.2,0.3-2.4,0.9-3.6c0.6-1.2,1.6-2.3,3.1-3.2c1.5-1,3.5-1.7,6-2.3c2.5-0.6,5.7-0.9,9.5-0.9
				c4.3,0,7.9,0.4,10.9,1.3c3,0.9,5.5,2.1,7.4,3.8c1.9,1.6,3.3,3.7,4.1,6.1c0.9,2.4,1.3,5.2,1.3,8.3c0,3.7-0.1,7.2-0.3,10.4
				c-0.2,3.2-0.4,6.1-0.5,8.6c-0.1,2.5,0,4.6,0.1,6.2c0.2,1.6,0.7,2.6,1.6,3c0.4,0.2,0.9,0.3,1.4,0.3S347.6,279.6,348.3,279.5z
				 M328.3,253.9c0-0.2-0.1-0.4-0.3-0.5c-0.2-0.1-0.4,0-0.5,0.2c-0.3,0.3-0.6,0.7-0.8,1c-0.3,0.3-0.6,0.7-1,1.1
				c-0.7,0.8-1.5,1.5-2.2,2.1c-0.8,0.7-1.5,1.3-2.3,2c-0.8,0.6-1.5,1.2-2.3,1.8c-0.7,0.6-1.4,1.3-2.1,2c-1,1.1-1.7,2.4-2.2,3.8
				c-0.5,1.4-0.7,2.8-0.7,4.3c0,1,0.2,2.1,0.5,3.1c0.3,1.1,0.8,2,1.4,2.8c0.6,0.8,1.4,1.5,2.4,2c1,0.5,2.2,0.8,3.5,0.8
				s2.5-0.3,3.4-0.9c0.9-0.6,1.5-1.3,2-2.1c0.5-0.8,0.8-1.6,1-2.4c0.2-0.8,0.3-1.5,0.3-1.9V253.9z"/>
			<path class="st2" d="M404.1,279.5c0.5-0.1,1,0,1.3,0.3c0.3,0.3,0.3,0.8,0.1,1.3c-0.2,0.4-0.6,0.9-1.1,1.5
				c-0.5,0.6-1.2,1.1-2.1,1.6s-1.9,0.9-3.2,1.3c-1.2,0.3-2.7,0.5-4.4,0.5c-2.3,0-4.3-0.5-5.9-1.4c-1.6-0.9-2.7-2-3.3-3.2
				c-0.2-0.3-0.4-0.4-0.7-0.4c-0.3,0-0.5,0.2-0.7,0.3c-0.1,0.1-0.5,0.4-1.1,0.9c-0.6,0.5-1.4,1.1-2.5,1.7c-1.1,0.6-2.4,1.1-3.9,1.6
				c-1.5,0.5-3.3,0.7-5.3,0.7c-3.4,0-6.3-0.5-8.6-1.4c-2.3-1-4.2-2.2-5.6-3.7c-1.4-1.5-2.5-3.2-3.1-5.1c-0.6-1.9-1-3.8-1-5.6
				c0-3,0.9-5.7,2.6-7.9c1.7-2.3,3.9-3.9,6.7-5c1.5-0.6,3-1,4.6-1.2c1.6-0.2,3.2-0.5,4.8-0.8c1.6-0.3,3.1-0.6,4.6-1
				c1.5-0.4,2.9-1.1,4.3-2c1.4-1,2.4-2.2,3-3.7c0.6-1.5,0.8-3.1,0.8-4.8c0-1.2-0.2-2.4-0.5-3.5c-0.3-1.1-0.8-2.1-1.4-3
				c-0.6-0.8-1.3-1.5-2.1-2c-0.8-0.5-1.6-0.7-2.6-0.7c-1.7,0-2.9,0.4-3.6,1.3c-0.8,0.8-1.4,1.9-1.8,3c-0.4,1.2-0.9,2.4-1.2,3.7
				c-0.4,1.3-1,2.4-1.8,3.3c-0.7,0.7-1.6,1.3-2.7,1.6s-2.1,0.5-3.1,0.5c-1,0-2-0.2-2.8-0.5s-1.5-0.8-2.1-1.4c-0.6-0.6-1-1.3-1.3-2.1
				c-0.3-0.8-0.4-1.6-0.4-2.5c0-1.2,0.3-2.4,0.9-3.6c0.6-1.2,1.6-2.3,3.1-3.2c1.5-1,3.5-1.7,6-2.3c2.5-0.6,5.7-0.9,9.5-0.9
				c4.3,0,7.9,0.4,10.9,1.3c3,0.9,5.5,2.1,7.4,3.8c1.9,1.6,3.3,3.7,4.1,6.1c0.9,2.4,1.3,5.2,1.3,8.3c0,3.7-0.1,7.2-0.3,10.4
				c-0.2,3.2-0.4,6.1-0.5,8.6c-0.1,2.5,0,4.6,0.1,6.2c0.2,1.6,0.7,2.6,1.6,3c0.4,0.2,0.9,0.3,1.4,0.3S403.4,279.6,404.1,279.5z
				 M384.1,253.9c0-0.2-0.1-0.4-0.3-0.5c-0.2-0.1-0.4,0-0.5,0.2c-0.3,0.3-0.6,0.7-0.8,1c-0.3,0.3-0.6,0.7-1,1.1
				c-0.7,0.8-1.5,1.5-2.2,2.1c-0.8,0.7-1.5,1.3-2.3,2c-0.8,0.6-1.5,1.2-2.3,1.8c-0.7,0.6-1.4,1.3-2.1,2c-1,1.1-1.7,2.4-2.2,3.8
				c-0.5,1.4-0.7,2.8-0.7,4.3c0,1,0.2,2.1,0.5,3.1c0.3,1.1,0.8,2,1.4,2.8c0.6,0.8,1.4,1.5,2.4,2c1,0.5,2.2,0.8,3.5,0.8
				s2.5-0.3,3.4-0.9c0.9-0.6,1.5-1.3,2-2.1c0.5-0.8,0.8-1.6,1-2.4c0.2-0.8,0.3-1.5,0.3-1.9V253.9z"/>
			<path class="st2" d="M472.1,283.1c0.3,0.1,0.5,0.2,0.7,0.4c0.1,0.2,0.2,0.4,0.1,0.5c0,0.2-0.1,0.4-0.3,0.5
				c-0.2,0.2-0.4,0.2-0.7,0.2H451c-0.4,0-0.8-0.1-1-0.3c-0.3-0.2-0.4-0.5-0.4-0.9v-5c0-0.3-0.1-0.4-0.3-0.5c-0.2-0.1-0.4,0-0.5,0.2
				c-0.3,0.4-0.9,1.1-1.7,2s-1.9,1.8-3.3,2.7c-1.4,0.9-3.1,1.7-5.2,2.3c-2.1,0.7-4.5,1-7.2,1c-3.1,0-5.8-0.4-8.1-1.2
				c-2.3-0.8-4.3-1.9-6-3.3c-1.7-1.4-3.1-2.9-4.1-4.7c-1.1-1.8-2-3.6-2.6-5.6c-0.6-1.9-1.1-3.9-1.3-5.8c-0.3-1.9-0.4-3.8-0.4-5.5
				c0-4.3,0.5-8.2,1.6-11.7c1.1-3.5,2.6-6.5,4.8-9c2.1-2.5,4.8-4.4,8-5.7c3.2-1.3,7-2,11.3-2c2.4,0,4.5,0.1,6.3,0.4
				c1.8,0.3,3.2,0.6,4.4,1c1.2,0.4,2,0.7,2.6,1c0.6,0.3,0.9,0.5,1,0.5c0.2,0.2,0.4,0.2,0.5,0.1c0.2-0.1,0.3-0.2,0.3-0.4v-23.2
				c0-0.5-0.2-0.8-0.7-0.9c-0.1,0-0.4-0.1-0.8-0.2c-0.5-0.1-1-0.2-1.6-0.4c-0.6-0.2-1.2-0.3-1.7-0.4c-0.5-0.1-0.8-0.2-1-0.2
				c-0.5-0.1-0.8-0.4-0.8-0.8c0-0.4,0.3-0.7,0.8-0.8c1.5-0.3,3.1-0.8,4.9-1.4c1.7-0.6,3.5-1.3,5.3-2c1.8-0.7,3.5-1.5,5.1-2.4
				c1.7-0.9,3.1-1.7,4.4-2.6c0.3-0.2,0.7-0.3,1.1-0.3c0.4,0,0.5,0.3,0.5,0.9v76.1c0,1.5,0.3,2.8,0.9,3.7c0.6,0.9,1.3,1.7,2.1,2.2
				c0.8,0.5,1.6,0.9,2.3,1.1C471.3,282.9,471.8,283.1,472.1,283.1z M449.6,250.7c0-1-0.1-2-0.2-3.2c-0.1-1.1-0.4-2.3-0.7-3.5
				c-0.3-1.2-0.8-2.3-1.3-3.4c-0.6-1.1-1.3-2-2.1-2.9c-0.8-0.8-1.8-1.5-3-2c-1.2-0.5-2.5-0.8-4-0.8c-2.3,0-4.2,0.6-5.8,1.7
				s-2.9,2.7-3.9,4.7c-1,2-1.7,4.4-2.2,7.1c-0.5,2.7-0.7,5.7-0.7,8.8c0,0.8,0,2,0,3.4c0,1.4,0.1,3,0.3,4.6c0.2,1.6,0.5,3.3,1,5
				c0.5,1.7,1.1,3.2,2,4.5c0.9,1.3,2,2.4,3.4,3.3c1.4,0.9,3.1,1.3,5.1,1.3c2.6,0,4.7-0.5,6.3-1.4c1.6-1,2.8-2.1,3.6-3.5
				c0.8-1.4,1.4-2.8,1.7-4.4c0.3-1.5,0.4-2.9,0.4-4.1V250.7z"/>
			<path class="st2" d="M498.1,275.8c0,1.5,0.3,2.8,0.9,3.7c0.6,0.9,1.3,1.7,2.1,2.2c0.8,0.5,1.6,0.9,2.3,1.1
				c0.7,0.2,1.3,0.3,1.6,0.4c0.3,0.1,0.5,0.2,0.7,0.4c0.1,0.2,0.2,0.4,0.1,0.5c0,0.2-0.1,0.4-0.3,0.5c-0.2,0.2-0.4,0.2-0.7,0.2
				h-28.9c-0.3,0-0.5-0.1-0.7-0.2c-0.2-0.2-0.3-0.3-0.3-0.5c0-0.2,0-0.4,0.1-0.5c0.1-0.2,0.4-0.3,0.7-0.4c0.3,0,0.8-0.2,1.6-0.4
				c0.7-0.2,1.5-0.6,2.3-1.1c0.8-0.5,1.5-1.2,2.1-2.2c0.6-0.9,0.9-2.2,0.9-3.7v-31.8c0-0.5-0.2-0.8-0.7-0.9c-0.1,0-0.4-0.1-0.8-0.2
				c-0.5-0.1-1-0.2-1.6-0.4c-0.6-0.2-1.2-0.3-1.7-0.4c-0.5-0.1-0.8-0.2-1-0.2c-0.5-0.1-0.8-0.4-0.8-0.8c0-0.4,0.3-0.7,0.8-0.8
				c1.5-0.3,3.1-0.8,4.9-1.4c1.7-0.6,3.5-1.3,5.3-2c1.8-0.7,3.5-1.5,5.1-2.4c1.6-0.9,3.1-1.7,4.4-2.6c0.3-0.2,0.7-0.3,1.1-0.3
				c0.4,0,0.5,0.3,0.5,0.9V275.8z M498.5,211.3c-0.5-1.1-1.1-2.1-1.9-2.9c-0.8-0.8-1.8-1.5-2.9-1.9c-1.1-0.5-2.4-0.7-3.8-0.7
				c-1.3,0-2.6,0.2-3.8,0.7c-1.2,0.5-2.2,1.2-3.1,2c-0.9,0.8-1.5,1.8-2,2.9c-0.5,1.1-0.7,2.3-0.7,3.6s0.2,2.4,0.7,3.6
				c0.5,1.1,1.1,2.1,1.9,2.9c0.8,0.8,1.8,1.4,2.9,1.9c1.1,0.5,2.4,0.7,3.7,0.7c1.4,0,2.7-0.2,3.8-0.7c1.2-0.5,2.2-1.2,3.1-2
				c0.9-0.8,1.6-1.8,2.1-2.9c0.5-1.1,0.7-2.3,0.7-3.6S499,212.4,498.5,211.3z"/>
		</g>
	</g>
	<g>
		<g>
			<path class="st1" d="M274.7,317.2c0.1,0,0.2,0.1,0.2,0.1c0,0.1,0.1,0.1,0,0.2s0,0.1-0.1,0.2s-0.1,0.1-0.2,0.1h-9
				c-0.1,0-0.2,0-0.2-0.1s-0.1-0.1-0.1-0.2c0-0.1,0-0.1,0-0.2c0-0.1,0.1-0.1,0.2-0.1c0.1,0,0.3,0,0.5-0.1c0.2-0.1,0.4-0.2,0.7-0.3
				s0.4-0.4,0.6-0.7c0.2-0.3,0.3-0.7,0.3-1.2v-8.8c0-0.5-0.1-1-0.1-1.5c-0.1-0.5-0.2-1-0.4-1.4c-0.2-0.4-0.5-0.8-0.9-1
				s-0.9-0.4-1.6-0.4c-0.6,0-1,0.1-1.4,0.3c-0.4,0.2-0.6,0.4-0.8,0.7c-0.2,0.3-0.3,0.6-0.4,1c-0.1,0.4-0.1,0.7-0.1,1.1v10
				c0,0.5,0.1,0.9,0.3,1.2c0.2,0.3,0.4,0.5,0.6,0.7c0.2,0.2,0.4,0.3,0.7,0.3c0.2,0.1,0.4,0.1,0.5,0.1c0.1,0,0.2,0.1,0.2,0.1
				c0,0.1,0.1,0.1,0,0.2s0,0.1-0.1,0.2s-0.1,0.1-0.2,0.1h-9c-0.1,0-0.2,0-0.2-0.1c-0.1-0.1-0.1-0.1-0.1-0.2c0-0.1,0-0.1,0-0.2
				c0-0.1,0.1-0.1,0.2-0.1c0.1,0,0.3,0,0.5-0.1c0.2-0.1,0.4-0.2,0.7-0.3s0.4-0.4,0.6-0.7c0.2-0.3,0.3-0.7,0.3-1.2v-8.9
				c0-0.5-0.1-1-0.1-1.5s-0.2-1-0.4-1.4c-0.2-0.4-0.5-0.8-0.9-1c-0.4-0.3-0.9-0.4-1.6-0.4c-0.6,0-1,0.1-1.4,0.3
				c-0.3,0.2-0.6,0.4-0.8,0.7c-0.2,0.3-0.3,0.6-0.4,1c-0.1,0.4-0.1,0.7-0.1,1.1v10c0,0.5,0.1,0.9,0.3,1.2c0.2,0.3,0.4,0.5,0.6,0.7
				s0.4,0.3,0.7,0.3c0.2,0.1,0.4,0.1,0.5,0.1c0.1,0,0.2,0.1,0.2,0.1c0,0.1,0.1,0.1,0,0.2s0,0.1-0.1,0.2s-0.1,0.1-0.2,0.1h-9
				c-0.1,0-0.2,0-0.2-0.1c-0.1-0.1-0.1-0.1-0.1-0.2c0-0.1,0-0.1,0-0.2c0-0.1,0.1-0.1,0.2-0.1c0.1,0,0.3,0,0.5-0.1
				c0.2-0.1,0.4-0.2,0.7-0.3s0.4-0.4,0.6-0.7c0.2-0.3,0.3-0.7,0.3-1.2v-10.8c0-0.2-0.1-0.3-0.2-0.3c0,0-0.1,0-0.3-0.1
				c-0.2,0-0.3-0.1-0.5-0.1c-0.2-0.1-0.4-0.1-0.6-0.1c-0.2,0-0.3-0.1-0.3-0.1c-0.2,0-0.3-0.1-0.3-0.3c0-0.1,0.1-0.2,0.3-0.3
				c0.5-0.1,1-0.3,1.6-0.5c0.6-0.2,1.2-0.4,1.8-0.7s1.2-0.5,1.7-0.8s1-0.6,1.5-0.9c0.1-0.1,0.2-0.1,0.4-0.1c0.1,0,0.2,0.1,0.2,0.3
				v1.4c0.6-0.4,1.3-0.8,2.1-1.1c0.8-0.3,1.8-0.5,2.9-0.5c0.7,0,1.4,0.1,1.9,0.2c0.6,0.1,1.1,0.3,1.5,0.5c0.4,0.2,0.8,0.5,1.1,0.7
				c0.3,0.3,0.5,0.6,0.7,0.9c0.3-0.3,0.6-0.6,1-0.9c0.4-0.3,0.8-0.5,1.3-0.8c0.5-0.2,1-0.4,1.6-0.5c0.6-0.1,1.2-0.2,1.9-0.2
				c1,0,1.9,0.1,2.6,0.3c0.7,0.2,1.3,0.5,1.7,0.9c0.4,0.4,0.8,0.8,1,1.3c0.2,0.5,0.4,1,0.5,1.5c0.1,0.5,0.2,1.1,0.2,1.6
				c0,0.5,0,1,0,1.5v0.1v7.5c0,0.5,0.1,0.9,0.3,1.2c0.2,0.3,0.4,0.5,0.6,0.7c0.2,0.2,0.4,0.3,0.7,0.3
				C274.4,317.2,274.6,317.2,274.7,317.2z"/>
			<path class="st1" d="M283.2,307.7c-0.2,0-0.3,0.1-0.3,0.3c0,1.3,0.1,2.4,0.3,3.3c0.2,0.9,0.6,1.7,1,2.3c0.4,0.6,1,1,1.6,1.3
				c0.7,0.3,1.4,0.4,2.3,0.4c0.7,0,1.3-0.1,1.8-0.2c0.5-0.1,1-0.3,1.4-0.5c0.4-0.2,0.7-0.4,0.9-0.5c0.2-0.2,0.4-0.3,0.5-0.3
				c0.2-0.1,0.3-0.1,0.4,0c0.1,0.1,0.1,0.3,0,0.5c0,0.1-0.1,0.2-0.3,0.4s-0.3,0.5-0.6,0.8s-0.6,0.6-1,0.9c-0.4,0.3-0.8,0.6-1.4,0.9
				c-0.5,0.3-1.1,0.5-1.8,0.7c-0.7,0.2-1.4,0.3-2.3,0.3c-1.3,0-2.4-0.2-3.5-0.6s-1.9-1-2.7-1.7c-0.7-0.8-1.3-1.7-1.7-2.8
				c-0.4-1.1-0.6-2.3-0.6-3.7c0-1.5,0.2-2.8,0.7-4c0.5-1.2,1.2-2.1,2-2.9s1.7-1.4,2.7-1.8c1-0.4,2.1-0.6,3.1-0.6
				c1,0,1.9,0.1,2.6,0.4c0.8,0.3,1.4,0.6,2,1.1c0.6,0.4,1,0.9,1.4,1.5c0.4,0.5,0.7,1.1,0.9,1.6s0.4,1,0.5,1.5
				c0.1,0.5,0.1,0.8,0.1,1.1c0,0.1,0,0.2-0.1,0.3c-0.1,0.1-0.2,0.1-0.3,0.1H283.2z M283,306.4c0,0.2,0.1,0.2,0.2,0.2
				c0,0,0.2,0,0.4,0c0.2,0,0.5,0,0.8,0c0.3,0,0.6,0,1,0s0.7,0,1,0s0.6,0,0.8,0c0.2,0,0.4,0,0.5,0c0.2,0,0.4-0.1,0.6-0.3
				c0.2-0.2,0.3-0.5,0.3-0.9c0-0.4-0.1-0.8-0.2-1.3c-0.1-0.5-0.3-0.9-0.5-1.4c-0.2-0.4-0.5-0.8-0.9-1.1c-0.3-0.3-0.8-0.4-1.3-0.4
				c-0.4,0-0.7,0.1-1,0.3c-0.3,0.2-0.5,0.5-0.8,0.8c-0.2,0.3-0.4,0.7-0.5,1.1c-0.1,0.4-0.3,0.8-0.3,1.2c-0.1,0.4-0.2,0.7-0.2,1.1
				C283,306,283,306.2,283,306.4z"/>
			<path class="st1" d="M304.2,314.8c0,0.5,0.1,0.9,0.3,1.2c0.2,0.3,0.4,0.6,0.7,0.7c0.3,0.2,0.5,0.3,0.8,0.4
				c0.2,0.1,0.4,0.1,0.5,0.1c0.1,0,0.2,0.1,0.2,0.1c0,0.1,0.1,0.1,0,0.2c0,0.1,0,0.1-0.1,0.2c-0.1,0.1-0.1,0.1-0.2,0.1h-9.6
				c-0.1,0-0.2,0-0.2-0.1c-0.1-0.1-0.1-0.1-0.1-0.2c0-0.1,0-0.1,0-0.2c0-0.1,0.1-0.1,0.2-0.1c0.1,0,0.3-0.1,0.5-0.1
				c0.2-0.1,0.5-0.2,0.8-0.4c0.3-0.2,0.5-0.4,0.7-0.7c0.2-0.3,0.3-0.7,0.3-1.2v-10.6c0-0.2-0.1-0.3-0.2-0.3c0,0-0.1,0-0.3-0.1
				s-0.3-0.1-0.5-0.1c-0.2-0.1-0.4-0.1-0.6-0.1c-0.2,0-0.3-0.1-0.3-0.1c-0.2,0-0.3-0.1-0.3-0.3s0.1-0.2,0.3-0.3
				c0.5-0.1,1-0.3,1.6-0.5c0.6-0.2,1.2-0.4,1.8-0.7c0.6-0.2,1.2-0.5,1.7-0.8c0.5-0.3,1-0.6,1.5-0.9c0.1-0.1,0.2-0.1,0.4-0.1
				s0.2,0.1,0.2,0.3V314.8z M304.4,293.3c-0.2-0.4-0.4-0.7-0.6-1s-0.6-0.5-1-0.6c-0.4-0.2-0.8-0.2-1.3-0.2c-0.4,0-0.9,0.1-1.3,0.2
				c-0.4,0.2-0.7,0.4-1,0.7c-0.3,0.3-0.5,0.6-0.7,1c-0.2,0.4-0.2,0.8-0.2,1.2s0.1,0.8,0.2,1.2c0.2,0.4,0.4,0.7,0.6,1
				c0.3,0.3,0.6,0.5,1,0.6c0.4,0.2,0.8,0.2,1.2,0.2c0.5,0,0.9-0.1,1.3-0.2s0.7-0.4,1-0.7s0.5-0.6,0.7-1s0.2-0.8,0.2-1.2
				C304.6,294.1,304.5,293.7,304.4,293.3z"/>
			<path class="st1" d="M330.6,317.2c0.1,0,0.2,0.1,0.2,0.1c0,0.1,0.1,0.1,0,0.2s0,0.1-0.1,0.2c-0.1,0.1-0.1,0.1-0.2,0.1h-2.2h-0.2
				h-4.8h-0.2h-2.2c-0.1,0-0.2,0-0.2-0.1s-0.1-0.1-0.1-0.2s0-0.1,0-0.2c0-0.1,0.1-0.1,0.2-0.1c0.1,0,0.3-0.1,0.5-0.1
				c0.2-0.1,0.5-0.2,0.8-0.4c0.3-0.2,0.5-0.4,0.7-0.7c0.2-0.3,0.3-0.7,0.3-1.2v-7v-0.2v-1.1c0-0.5-0.1-1.1-0.1-1.7
				c-0.1-0.6-0.2-1.1-0.4-1.5c-0.2-0.5-0.5-0.8-1-1.1c-0.4-0.3-1-0.4-1.7-0.4c-0.7,0-1.3,0.1-1.7,0.4c-0.4,0.3-0.7,0.7-0.9,1.1
				c-0.2,0.4-0.3,0.9-0.4,1.4c0,0.5-0.1,0.9-0.1,1.3v8.8c0,0.5,0.1,0.9,0.3,1.2c0.2,0.3,0.4,0.6,0.7,0.7c0.3,0.2,0.5,0.3,0.8,0.4
				c0.2,0.1,0.4,0.1,0.5,0.1c0.1,0,0.2,0.1,0.2,0.1c0,0.1,0.1,0.1,0,0.2s0,0.1-0.1,0.2c-0.1,0.1-0.1,0.1-0.2,0.1h-9.6
				c-0.1,0-0.2,0-0.2-0.1c-0.1-0.1-0.1-0.1-0.1-0.2s0-0.1,0-0.2c0-0.1,0.1-0.1,0.2-0.1c0.1,0,0.3-0.1,0.5-0.1
				c0.2-0.1,0.5-0.2,0.8-0.4c0.3-0.2,0.5-0.4,0.7-0.7c0.2-0.3,0.3-0.7,0.3-1.2v-10.6c0-0.2-0.1-0.3-0.2-0.3c0,0-0.1,0-0.3-0.1
				c-0.2,0-0.3-0.1-0.5-0.1c-0.2-0.1-0.4-0.1-0.6-0.1c-0.2,0-0.3-0.1-0.3-0.1c-0.2,0-0.3-0.1-0.3-0.3s0.1-0.2,0.3-0.3
				c0.5-0.1,1-0.3,1.6-0.5c0.6-0.2,1.2-0.4,1.8-0.7s1.2-0.5,1.7-0.8c0.5-0.3,1-0.6,1.5-0.9c0.1-0.1,0.2-0.1,0.4-0.1s0.2,0.1,0.2,0.3
				v1.6c0.3-0.2,0.6-0.5,0.9-0.7s0.7-0.4,1.2-0.6s0.9-0.3,1.4-0.4c0.5-0.1,1.1-0.2,1.8-0.2c1,0,1.9,0.1,2.6,0.3
				c0.7,0.2,1.3,0.5,1.8,0.9c0.5,0.4,0.8,0.8,1.1,1.3c0.2,0.5,0.4,1,0.5,1.5c0.1,0.5,0.2,1.1,0.2,1.6c0,0.5,0,1,0,1.5v0.1v7.4
				c0,0.5,0.1,0.9,0.3,1.2c0.2,0.3,0.4,0.6,0.7,0.7c0.3,0.2,0.5,0.3,0.8,0.4C330.4,317.2,330.5,317.2,330.6,317.2z"/>
		</g>
		<g>
			<path class="st2" d="M276.4,317.1c0.1,0,0.2,0.1,0.2,0.1c0,0.1,0.1,0.1,0,0.2s0,0.1-0.1,0.2s-0.1,0.1-0.2,0.1h-9
				c-0.1,0-0.2,0-0.2-0.1s-0.1-0.1-0.1-0.2c0-0.1,0-0.1,0-0.2c0-0.1,0.1-0.1,0.2-0.1c0.1,0,0.3,0,0.5-0.1c0.2-0.1,0.4-0.2,0.7-0.3
				s0.4-0.4,0.6-0.7c0.2-0.3,0.3-0.7,0.3-1.2V306c0-0.5-0.1-1-0.1-1.5c-0.1-0.5-0.2-1-0.4-1.4c-0.2-0.4-0.5-0.8-0.9-1
				s-0.9-0.4-1.6-0.4c-0.6,0-1,0.1-1.4,0.3c-0.4,0.2-0.6,0.4-0.8,0.7c-0.2,0.3-0.3,0.6-0.4,1c-0.1,0.4-0.1,0.7-0.1,1.1v10
				c0,0.5,0.1,0.9,0.3,1.2c0.2,0.3,0.4,0.5,0.6,0.7c0.2,0.2,0.4,0.3,0.7,0.3c0.2,0.1,0.4,0.1,0.5,0.1c0.1,0,0.2,0.1,0.2,0.1
				c0,0.1,0.1,0.1,0,0.2s0,0.1-0.1,0.2s-0.1,0.1-0.2,0.1h-9c-0.1,0-0.2,0-0.2-0.1c-0.1-0.1-0.1-0.1-0.1-0.2c0-0.1,0-0.1,0-0.2
				c0-0.1,0.1-0.1,0.2-0.1c0.1,0,0.3,0,0.5-0.1c0.2-0.1,0.4-0.2,0.7-0.3s0.4-0.4,0.6-0.7c0.2-0.3,0.3-0.7,0.3-1.2V306
				c0-0.5-0.1-1-0.1-1.5s-0.2-1-0.4-1.4c-0.2-0.4-0.5-0.8-0.9-1c-0.4-0.3-0.9-0.4-1.6-0.4c-0.6,0-1,0.1-1.4,0.3
				c-0.3,0.2-0.6,0.4-0.8,0.7c-0.2,0.3-0.3,0.6-0.4,1c-0.1,0.4-0.1,0.7-0.1,1.1v10c0,0.5,0.1,0.9,0.3,1.2c0.2,0.3,0.4,0.5,0.6,0.7
				s0.4,0.3,0.7,0.3c0.2,0.1,0.4,0.1,0.5,0.1c0.1,0,0.2,0.1,0.2,0.1c0,0.1,0.1,0.1,0,0.2s0,0.1-0.1,0.2s-0.1,0.1-0.2,0.1h-9
				c-0.1,0-0.2,0-0.2-0.1c-0.1-0.1-0.1-0.1-0.1-0.2c0-0.1,0-0.1,0-0.2c0-0.1,0.1-0.1,0.2-0.1c0.1,0,0.3,0,0.5-0.1
				c0.2-0.1,0.4-0.2,0.7-0.3s0.4-0.4,0.6-0.7c0.2-0.3,0.3-0.7,0.3-1.2v-10.8c0-0.2-0.1-0.3-0.2-0.3c0,0-0.1,0-0.3-0.1
				c-0.2,0-0.3-0.1-0.5-0.1c-0.2-0.1-0.4-0.1-0.6-0.1c-0.2,0-0.3-0.1-0.3-0.1c-0.2,0-0.3-0.1-0.3-0.3c0-0.1,0.1-0.2,0.3-0.3
				c0.5-0.1,1-0.3,1.6-0.5c0.6-0.2,1.2-0.4,1.8-0.7s1.2-0.5,1.7-0.8s1-0.6,1.5-0.9c0.1-0.1,0.2-0.1,0.4-0.1c0.1,0,0.2,0.1,0.2,0.3
				v1.4c0.6-0.4,1.3-0.8,2.1-1.1c0.8-0.3,1.8-0.5,2.9-0.5c0.7,0,1.4,0.1,1.9,0.2c0.6,0.1,1.1,0.3,1.5,0.5c0.4,0.2,0.8,0.5,1.1,0.7
				c0.3,0.3,0.5,0.6,0.7,0.9c0.3-0.3,0.6-0.6,1-0.9c0.4-0.3,0.8-0.5,1.3-0.8c0.5-0.2,1-0.4,1.6-0.5c0.6-0.1,1.2-0.2,1.9-0.2
				c1,0,1.9,0.1,2.6,0.3c0.7,0.2,1.3,0.5,1.7,0.9c0.4,0.4,0.8,0.8,1,1.3c0.2,0.5,0.4,1,0.5,1.5c0.1,0.5,0.2,1.1,0.2,1.6
				c0,0.5,0,1,0,1.5v0.1v7.5c0,0.5,0.1,0.9,0.3,1.2c0.2,0.3,0.4,0.5,0.6,0.7c0.2,0.2,0.4,0.3,0.7,0.3
				C276.2,317.1,276.3,317.1,276.4,317.1z"/>
			<path class="st2" d="M284.9,307.6c-0.2,0-0.3,0.1-0.3,0.3c0,1.3,0.1,2.4,0.3,3.3c0.2,0.9,0.6,1.7,1,2.3c0.4,0.6,1,1,1.6,1.3
				c0.7,0.3,1.4,0.4,2.3,0.4c0.7,0,1.3-0.1,1.8-0.2c0.5-0.1,1-0.3,1.4-0.5c0.4-0.2,0.7-0.4,0.9-0.5c0.2-0.2,0.4-0.3,0.5-0.3
				c0.2-0.1,0.3-0.1,0.4,0c0.1,0.1,0.1,0.3,0,0.5c0,0.1-0.1,0.2-0.3,0.4s-0.3,0.5-0.6,0.8s-0.6,0.6-1,0.9c-0.4,0.3-0.8,0.6-1.4,0.9
				c-0.5,0.3-1.1,0.5-1.8,0.7c-0.7,0.2-1.4,0.3-2.3,0.3c-1.3,0-2.4-0.2-3.5-0.6s-1.9-1-2.7-1.7c-0.7-0.8-1.3-1.7-1.7-2.8
				c-0.4-1.1-0.6-2.3-0.6-3.7c0-1.5,0.2-2.8,0.7-4c0.5-1.2,1.2-2.1,2-2.9s1.7-1.4,2.7-1.8c1-0.4,2.1-0.6,3.1-0.6
				c1,0,1.9,0.1,2.6,0.4c0.8,0.3,1.4,0.6,2,1.1c0.6,0.4,1,0.9,1.4,1.5c0.4,0.5,0.7,1.1,0.9,1.6s0.4,1,0.5,1.5
				c0.1,0.5,0.1,0.8,0.1,1.1c0,0.1,0,0.2-0.1,0.3c-0.1,0.1-0.2,0.1-0.3,0.1H284.9z M284.7,306.3c0,0.2,0.1,0.2,0.2,0.2
				c0,0,0.2,0,0.4,0c0.2,0,0.5,0,0.8,0c0.3,0,0.6,0,1,0s0.7,0,1,0s0.6,0,0.8,0c0.2,0,0.4,0,0.5,0c0.2,0,0.4-0.1,0.6-0.3
				c0.2-0.2,0.3-0.5,0.3-0.9c0-0.4-0.1-0.8-0.2-1.3c-0.1-0.5-0.3-0.9-0.5-1.4c-0.2-0.4-0.5-0.8-0.9-1.1c-0.3-0.3-0.8-0.4-1.3-0.4
				c-0.4,0-0.7,0.1-1,0.3c-0.3,0.2-0.5,0.5-0.8,0.8c-0.2,0.3-0.4,0.7-0.5,1.1c-0.1,0.4-0.3,0.8-0.3,1.2c-0.1,0.4-0.2,0.7-0.2,1.1
				C284.8,305.9,284.7,306.2,284.7,306.3z"/>
			<path class="st2" d="M306,314.7c0,0.5,0.1,0.9,0.3,1.2c0.2,0.3,0.4,0.6,0.7,0.7c0.3,0.2,0.5,0.3,0.8,0.4c0.2,0.1,0.4,0.1,0.5,0.1
				c0.1,0,0.2,0.1,0.2,0.1c0,0.1,0.1,0.1,0,0.2c0,0.1,0,0.1-0.1,0.2c-0.1,0.1-0.1,0.1-0.2,0.1h-9.6c-0.1,0-0.2,0-0.2-0.1
				c-0.1-0.1-0.1-0.1-0.1-0.2c0-0.1,0-0.1,0-0.2c0-0.1,0.1-0.1,0.2-0.1c0.1,0,0.3-0.1,0.5-0.1c0.2-0.1,0.5-0.2,0.8-0.4
				c0.3-0.2,0.5-0.4,0.7-0.7c0.2-0.3,0.3-0.7,0.3-1.2v-10.6c0-0.2-0.1-0.3-0.2-0.3c0,0-0.1,0-0.3-0.1s-0.3-0.1-0.5-0.1
				c-0.2-0.1-0.4-0.1-0.6-0.1c-0.2,0-0.3-0.1-0.3-0.1c-0.2,0-0.3-0.1-0.3-0.3s0.1-0.2,0.3-0.3c0.5-0.1,1-0.3,1.6-0.5
				c0.6-0.2,1.2-0.4,1.8-0.7c0.6-0.2,1.2-0.5,1.7-0.8c0.5-0.3,1-0.6,1.5-0.9c0.1-0.1,0.2-0.1,0.4-0.1s0.2,0.1,0.2,0.3V314.7z
				 M306.1,293.2c-0.2-0.4-0.4-0.7-0.6-1s-0.6-0.5-1-0.6c-0.4-0.2-0.8-0.2-1.3-0.2c-0.4,0-0.9,0.1-1.3,0.2c-0.4,0.2-0.7,0.4-1,0.7
				c-0.3,0.3-0.5,0.6-0.7,1c-0.2,0.4-0.2,0.8-0.2,1.2s0.1,0.8,0.2,1.2c0.2,0.4,0.4,0.7,0.6,1c0.3,0.3,0.6,0.5,1,0.6
				c0.4,0.2,0.8,0.2,1.2,0.2c0.5,0,0.9-0.1,1.3-0.2s0.7-0.4,1-0.7s0.5-0.6,0.7-1s0.2-0.8,0.2-1.2C306.3,294,306.3,293.6,306.1,293.2
				z"/>
			<path class="st2" d="M332.4,317.1c0.1,0,0.2,0.1,0.2,0.1c0,0.1,0.1,0.1,0,0.2s0,0.1-0.1,0.2c-0.1,0.1-0.1,0.1-0.2,0.1h-2.2h-0.2
				h-4.8h-0.2h-2.2c-0.1,0-0.2,0-0.2-0.1s-0.1-0.1-0.1-0.2s0-0.1,0-0.2c0-0.1,0.1-0.1,0.2-0.1c0.1,0,0.3-0.1,0.5-0.1
				c0.2-0.1,0.5-0.2,0.8-0.4c0.3-0.2,0.5-0.4,0.7-0.7c0.2-0.3,0.3-0.7,0.3-1.2v-7v-0.2v-1.1c0-0.5-0.1-1.1-0.1-1.7
				c-0.1-0.6-0.2-1.1-0.4-1.5c-0.2-0.5-0.5-0.8-1-1.1c-0.4-0.3-1-0.4-1.7-0.4c-0.7,0-1.3,0.1-1.7,0.4c-0.4,0.3-0.7,0.7-0.9,1.1
				c-0.2,0.4-0.3,0.9-0.4,1.4c0,0.5-0.1,0.9-0.1,1.3v8.8c0,0.5,0.1,0.9,0.3,1.2c0.2,0.3,0.4,0.6,0.7,0.7c0.3,0.2,0.5,0.3,0.8,0.4
				c0.2,0.1,0.4,0.1,0.5,0.1c0.1,0,0.2,0.1,0.2,0.1c0,0.1,0.1,0.1,0,0.2s0,0.1-0.1,0.2c-0.1,0.1-0.1,0.1-0.2,0.1h-9.6
				c-0.1,0-0.2,0-0.2-0.1c-0.1-0.1-0.1-0.1-0.1-0.2s0-0.1,0-0.2c0-0.1,0.1-0.1,0.2-0.1c0.1,0,0.3-0.1,0.5-0.1
				c0.2-0.1,0.5-0.2,0.8-0.4c0.3-0.2,0.5-0.4,0.7-0.7c0.2-0.3,0.3-0.7,0.3-1.2v-10.6c0-0.2-0.1-0.3-0.2-0.3c0,0-0.1,0-0.3-0.1
				c-0.2,0-0.3-0.1-0.5-0.1c-0.2-0.1-0.4-0.1-0.6-0.1c-0.2,0-0.3-0.1-0.3-0.1c-0.2,0-0.3-0.1-0.3-0.3s0.1-0.2,0.3-0.3
				c0.5-0.1,1-0.3,1.6-0.5c0.6-0.2,1.2-0.4,1.8-0.7s1.2-0.5,1.7-0.8c0.5-0.3,1-0.6,1.5-0.9c0.1-0.1,0.2-0.1,0.4-0.1s0.2,0.1,0.2,0.3
				v1.6c0.3-0.2,0.6-0.5,0.9-0.7s0.7-0.4,1.2-0.6s0.9-0.3,1.4-0.4c0.5-0.1,1.1-0.2,1.8-0.2c1,0,1.9,0.1,2.6,0.3
				c0.7,0.2,1.3,0.5,1.8,0.9c0.5,0.4,0.8,0.8,1.1,1.3c0.2,0.5,0.4,1,0.5,1.5c0.1,0.5,0.2,1.1,0.2,1.6c0,0.5,0,1,0,1.5v0.1v7.4
				c0,0.5,0.1,0.9,0.3,1.2c0.2,0.3,0.4,0.6,0.7,0.7c0.3,0.2,0.5,0.3,0.8,0.4C332.1,317.1,332.3,317.1,332.4,317.1z"/>
		</g>
	</g>
	<g>
		<g>
			<path class="st1" d="M377.3,402.7c0.2,0,0.3,0,0.4,0.1c0.1,0.1,0.1,0.3,0,0.4c-0.1,0.1-0.2,0.3-0.4,0.5c-0.2,0.2-0.4,0.4-0.7,0.5
				c-0.3,0.2-0.6,0.3-1.1,0.4c-0.4,0.1-0.9,0.2-1.5,0.2c-0.8,0-1.4-0.2-2-0.5c-0.5-0.3-0.9-0.7-1.1-1.1c-0.1-0.1-0.1-0.1-0.2-0.1
				c-0.1,0-0.2,0.1-0.2,0.1c0,0-0.2,0.1-0.4,0.3c-0.2,0.2-0.5,0.4-0.8,0.6c-0.4,0.2-0.8,0.4-1.3,0.5c-0.5,0.2-1.1,0.2-1.8,0.2
				c-1.1,0-2.1-0.2-2.9-0.5c-0.8-0.3-1.4-0.7-1.9-1.2c-0.5-0.5-0.8-1.1-1-1.7c-0.2-0.6-0.3-1.3-0.3-1.9c0-1,0.3-1.9,0.9-2.6
				s1.3-1.3,2.2-1.7c0.5-0.2,1-0.3,1.5-0.4c0.5-0.1,1.1-0.2,1.6-0.3c0.5-0.1,1-0.2,1.5-0.3c0.5-0.1,1-0.4,1.4-0.7
				c0.5-0.3,0.8-0.7,1-1.2c0.2-0.5,0.3-1,0.3-1.6c0-0.4-0.1-0.8-0.2-1.2c-0.1-0.4-0.3-0.7-0.5-1s-0.4-0.5-0.7-0.7
				c-0.3-0.2-0.5-0.2-0.9-0.2c-0.5,0-1,0.1-1.2,0.4c-0.3,0.3-0.5,0.6-0.6,1c-0.1,0.4-0.3,0.8-0.4,1.2c-0.1,0.4-0.3,0.8-0.6,1.1
				c-0.2,0.2-0.5,0.4-0.9,0.5s-0.7,0.2-1,0.2c-0.3,0-0.7-0.1-0.9-0.2c-0.3-0.1-0.5-0.3-0.7-0.5c-0.2-0.2-0.3-0.4-0.4-0.7
				s-0.1-0.5-0.1-0.8c0-0.4,0.1-0.8,0.3-1.2c0.2-0.4,0.5-0.8,1-1.1c0.5-0.3,1.2-0.6,2-0.8c0.8-0.2,1.9-0.3,3.2-0.3
				c1.4,0,2.6,0.1,3.6,0.4c1,0.3,1.8,0.7,2.5,1.2c0.6,0.5,1.1,1.2,1.4,2s0.4,1.7,0.4,2.8c0,1.2,0,2.4-0.1,3.5
				c-0.1,1.1-0.1,2-0.2,2.9c0,0.8,0,1.5,0,2.1c0.1,0.5,0.2,0.9,0.5,1c0.1,0.1,0.3,0.1,0.5,0.1C376.8,402.7,377,402.7,377.3,402.7z
				 M370.6,394.1c0-0.1,0-0.1-0.1-0.2c-0.1,0-0.1,0-0.2,0.1c-0.1,0.1-0.2,0.2-0.3,0.3s-0.2,0.2-0.3,0.4c-0.2,0.3-0.5,0.5-0.7,0.7
				s-0.5,0.4-0.8,0.7c-0.3,0.2-0.5,0.4-0.8,0.6c-0.2,0.2-0.5,0.4-0.7,0.7c-0.3,0.4-0.6,0.8-0.7,1.2c-0.2,0.5-0.2,0.9-0.2,1.4
				c0,0.3,0.1,0.7,0.2,1s0.3,0.7,0.5,0.9s0.5,0.5,0.8,0.7c0.3,0.2,0.7,0.3,1.2,0.3c0.5,0,0.8-0.1,1.1-0.3c0.3-0.2,0.5-0.4,0.7-0.7
				c0.2-0.3,0.3-0.5,0.3-0.8s0.1-0.5,0.1-0.6V394.1z"/>
			<path class="st1" d="M397.6,402.7c0.2,0,0.3,0,0.4,0.1c0.1,0.1,0.1,0.3,0,0.4c-0.1,0.1-0.2,0.3-0.4,0.5c-0.2,0.2-0.4,0.4-0.7,0.5
				c-0.3,0.2-0.6,0.3-1.1,0.4c-0.4,0.1-0.9,0.2-1.5,0.2c-0.8,0-1.4-0.2-2-0.5c-0.5-0.3-0.9-0.7-1.1-1.1c-0.1-0.1-0.1-0.1-0.2-0.1
				c-0.1,0-0.2,0.1-0.2,0.1c0,0-0.2,0.1-0.4,0.3c-0.2,0.2-0.5,0.4-0.8,0.6c-0.4,0.2-0.8,0.4-1.3,0.5c-0.5,0.2-1.1,0.2-1.8,0.2
				c-1.1,0-2.1-0.2-2.9-0.5c-0.8-0.3-1.4-0.7-1.9-1.2c-0.5-0.5-0.8-1.1-1-1.7c-0.2-0.6-0.3-1.3-0.3-1.9c0-1,0.3-1.9,0.9-2.6
				s1.3-1.3,2.2-1.7c0.5-0.2,1-0.3,1.5-0.4c0.5-0.1,1.1-0.2,1.6-0.3c0.5-0.1,1-0.2,1.5-0.3c0.5-0.1,1-0.4,1.4-0.7
				c0.5-0.3,0.8-0.7,1-1.2c0.2-0.5,0.3-1,0.3-1.6c0-0.4-0.1-0.8-0.2-1.2c-0.1-0.4-0.3-0.7-0.5-1s-0.4-0.5-0.7-0.7
				c-0.3-0.2-0.5-0.2-0.9-0.2c-0.5,0-1,0.1-1.2,0.4c-0.3,0.3-0.5,0.6-0.6,1c-0.1,0.4-0.3,0.8-0.4,1.2c-0.1,0.4-0.3,0.8-0.6,1.1
				c-0.2,0.2-0.5,0.4-0.9,0.5s-0.7,0.2-1,0.2c-0.3,0-0.7-0.1-0.9-0.2c-0.3-0.1-0.5-0.3-0.7-0.5c-0.2-0.2-0.3-0.4-0.4-0.7
				s-0.1-0.5-0.1-0.8c0-0.4,0.1-0.8,0.3-1.2c0.2-0.4,0.5-0.8,1-1.1c0.5-0.3,1.2-0.6,2-0.8c0.8-0.2,1.9-0.3,3.2-0.3
				c1.4,0,2.6,0.1,3.6,0.4c1,0.3,1.8,0.7,2.5,1.2c0.6,0.5,1.1,1.2,1.4,2s0.4,1.7,0.4,2.8c0,1.2,0,2.4-0.1,3.5
				c-0.1,1.1-0.1,2-0.2,2.9c0,0.8,0,1.5,0,2.1c0.1,0.5,0.2,0.9,0.5,1c0.1,0.1,0.3,0.1,0.5,0.1C397.2,402.7,397.4,402.7,397.6,402.7z
				 M390.9,394.1c0-0.1,0-0.1-0.1-0.2c-0.1,0-0.1,0-0.2,0.1c-0.1,0.1-0.2,0.2-0.3,0.3s-0.2,0.2-0.3,0.4c-0.2,0.3-0.5,0.5-0.7,0.7
				s-0.5,0.4-0.8,0.7c-0.3,0.2-0.5,0.4-0.8,0.6c-0.2,0.2-0.5,0.4-0.7,0.7c-0.3,0.4-0.6,0.8-0.7,1.2c-0.2,0.5-0.2,0.9-0.2,1.4
				c0,0.3,0.1,0.7,0.2,1s0.3,0.7,0.5,0.9s0.5,0.5,0.8,0.7c0.3,0.2,0.7,0.3,1.2,0.3c0.5,0,0.8-0.1,1.1-0.3c0.3-0.2,0.5-0.4,0.7-0.7
				c0.2-0.3,0.3-0.5,0.3-0.8s0.1-0.5,0.1-0.6V394.1z"/>
			<path class="st1" d="M422.2,403.9c0.1,0,0.2,0.1,0.2,0.1c0,0.1,0.1,0.1,0,0.2s0,0.1-0.1,0.2c-0.1,0.1-0.1,0.1-0.2,0.1h-2.2h-0.2
				h-4.8h-0.2h-2.2c-0.1,0-0.2,0-0.2-0.1s-0.1-0.1-0.1-0.2s0-0.1,0-0.2c0-0.1,0.1-0.1,0.2-0.1c0.1,0,0.3-0.1,0.5-0.1
				c0.2-0.1,0.5-0.2,0.8-0.4c0.3-0.2,0.5-0.4,0.7-0.7c0.2-0.3,0.3-0.7,0.3-1.2v-7v-0.2v-1.1c0-0.5-0.1-1.1-0.1-1.7
				c-0.1-0.6-0.2-1.1-0.4-1.5c-0.2-0.5-0.5-0.8-1-1.1c-0.4-0.3-1-0.4-1.7-0.4c-0.7,0-1.3,0.1-1.7,0.4c-0.4,0.3-0.7,0.7-0.9,1.1
				c-0.2,0.4-0.3,0.9-0.4,1.4c0,0.5-0.1,0.9-0.1,1.3v8.8c0,0.5,0.1,0.9,0.3,1.2c0.2,0.3,0.4,0.6,0.7,0.7c0.3,0.2,0.5,0.3,0.8,0.4
				c0.2,0.1,0.4,0.1,0.5,0.1c0.1,0,0.2,0.1,0.2,0.1c0,0.1,0.1,0.1,0,0.2s0,0.1-0.1,0.2c-0.1,0.1-0.1,0.1-0.2,0.1H401
				c-0.1,0-0.2,0-0.2-0.1c-0.1-0.1-0.1-0.1-0.1-0.2s0-0.1,0-0.2c0-0.1,0.1-0.1,0.2-0.1c0.1,0,0.3-0.1,0.5-0.1
				c0.2-0.1,0.5-0.2,0.8-0.4c0.3-0.2,0.5-0.4,0.7-0.7c0.2-0.3,0.3-0.7,0.3-1.2v-10.6c0-0.2-0.1-0.3-0.2-0.3c0,0-0.1,0-0.3-0.1
				c-0.2,0-0.3-0.1-0.5-0.1c-0.2-0.1-0.4-0.1-0.6-0.1c-0.2,0-0.3-0.1-0.3-0.1c-0.2,0-0.3-0.1-0.3-0.3s0.1-0.2,0.3-0.3
				c0.5-0.1,1-0.3,1.6-0.5c0.6-0.2,1.2-0.4,1.8-0.7s1.2-0.5,1.7-0.8c0.5-0.3,1-0.6,1.5-0.9c0.1-0.1,0.2-0.1,0.4-0.1s0.2,0.1,0.2,0.3
				v1.6c0.3-0.2,0.6-0.5,0.9-0.7s0.7-0.4,1.2-0.6s0.9-0.3,1.4-0.4c0.5-0.1,1.1-0.2,1.8-0.2c1,0,1.9,0.1,2.6,0.3
				c0.7,0.2,1.3,0.5,1.8,0.9c0.5,0.4,0.8,0.8,1.1,1.3c0.2,0.5,0.4,1,0.5,1.5c0.1,0.5,0.2,1.1,0.2,1.6c0,0.5,0,1,0,1.5v0.1v7.4
				c0,0.5,0.1,0.9,0.3,1.2c0.2,0.3,0.4,0.6,0.7,0.7c0.3,0.2,0.5,0.3,0.8,0.4C422,403.8,422.1,403.9,422.2,403.9z"/>
			<path class="st1" d="M441.9,402.7c0.2,0,0.3,0,0.4,0.1c0.1,0.1,0.1,0.3,0,0.4c-0.1,0.1-0.2,0.3-0.4,0.5c-0.2,0.2-0.4,0.4-0.7,0.5
				c-0.3,0.2-0.6,0.3-1.1,0.4c-0.4,0.1-0.9,0.2-1.5,0.2c-0.8,0-1.4-0.2-2-0.5c-0.5-0.3-0.9-0.7-1.1-1.1c-0.1-0.1-0.1-0.1-0.2-0.1
				c-0.1,0-0.2,0.1-0.2,0.1c0,0-0.2,0.1-0.4,0.3c-0.2,0.2-0.5,0.4-0.8,0.6c-0.4,0.2-0.8,0.4-1.3,0.5c-0.5,0.2-1.1,0.2-1.8,0.2
				c-1.1,0-2.1-0.2-2.9-0.5c-0.8-0.3-1.4-0.7-1.9-1.2c-0.5-0.5-0.8-1.1-1-1.7c-0.2-0.6-0.3-1.3-0.3-1.9c0-1,0.3-1.9,0.9-2.6
				s1.3-1.3,2.2-1.7c0.5-0.2,1-0.3,1.5-0.4c0.5-0.1,1.1-0.2,1.6-0.3c0.5-0.1,1-0.2,1.5-0.3c0.5-0.1,1-0.4,1.4-0.7
				c0.5-0.3,0.8-0.7,1-1.2c0.2-0.5,0.3-1,0.3-1.6c0-0.4-0.1-0.8-0.2-1.2c-0.1-0.4-0.3-0.7-0.5-1s-0.4-0.5-0.7-0.7
				c-0.3-0.2-0.5-0.2-0.9-0.2c-0.5,0-1,0.1-1.2,0.4c-0.3,0.3-0.5,0.6-0.6,1c-0.1,0.4-0.3,0.8-0.4,1.2c-0.1,0.4-0.3,0.8-0.6,1.1
				c-0.2,0.2-0.5,0.4-0.9,0.5s-0.7,0.2-1,0.2c-0.3,0-0.7-0.1-0.9-0.2c-0.3-0.1-0.5-0.3-0.7-0.5c-0.2-0.2-0.3-0.4-0.4-0.7
				s-0.1-0.5-0.1-0.8c0-0.4,0.1-0.8,0.3-1.2c0.2-0.4,0.5-0.8,1-1.1c0.5-0.3,1.2-0.6,2-0.8c0.8-0.2,1.9-0.3,3.2-0.3
				c1.4,0,2.6,0.1,3.6,0.4c1,0.3,1.8,0.7,2.5,1.2c0.6,0.5,1.1,1.2,1.4,2s0.4,1.7,0.4,2.8c0,1.2,0,2.4-0.1,3.5
				c-0.1,1.1-0.1,2-0.2,2.9c0,0.8,0,1.5,0,2.1c0.1,0.5,0.2,0.9,0.5,1c0.1,0.1,0.3,0.1,0.5,0.1C441.5,402.7,441.7,402.7,441.9,402.7z
				 M435.3,394.1c0-0.1,0-0.1-0.1-0.2c-0.1,0-0.1,0-0.2,0.1c-0.1,0.1-0.2,0.2-0.3,0.3s-0.2,0.2-0.3,0.4c-0.2,0.3-0.5,0.5-0.7,0.7
				s-0.5,0.4-0.8,0.7c-0.3,0.2-0.5,0.4-0.8,0.6c-0.2,0.2-0.5,0.4-0.7,0.7c-0.3,0.4-0.6,0.8-0.7,1.2c-0.2,0.5-0.2,0.9-0.2,1.4
				c0,0.3,0.1,0.7,0.2,1s0.3,0.7,0.5,0.9s0.5,0.5,0.8,0.7c0.3,0.2,0.7,0.3,1.2,0.3c0.5,0,0.8-0.1,1.1-0.3c0.3-0.2,0.5-0.4,0.7-0.7
				c0.2-0.3,0.3-0.5,0.3-0.8s0.1-0.5,0.1-0.6V394.1z"/>
		</g>
		<g>
			<path class="st2" d="M379,402.9c0.2,0,0.3,0,0.4,0.1c0.1,0.1,0.1,0.3,0,0.4c-0.1,0.1-0.2,0.3-0.4,0.5c-0.2,0.2-0.4,0.4-0.7,0.5
				c-0.3,0.2-0.6,0.3-1.1,0.4c-0.4,0.1-0.9,0.2-1.5,0.2c-0.8,0-1.4-0.2-2-0.5c-0.5-0.3-0.9-0.7-1.1-1.1c-0.1-0.1-0.1-0.1-0.2-0.1
				c-0.1,0-0.2,0.1-0.2,0.1c0,0-0.2,0.1-0.4,0.3c-0.2,0.2-0.5,0.4-0.8,0.6c-0.4,0.2-0.8,0.4-1.3,0.5c-0.5,0.2-1.1,0.2-1.8,0.2
				c-1.1,0-2.1-0.2-2.9-0.5c-0.8-0.3-1.4-0.7-1.9-1.2c-0.5-0.5-0.8-1.1-1-1.7c-0.2-0.6-0.3-1.3-0.3-1.9c0-1,0.3-1.9,0.9-2.6
				s1.3-1.3,2.2-1.7c0.5-0.2,1-0.3,1.5-0.4c0.5-0.1,1.1-0.2,1.6-0.3c0.5-0.1,1-0.2,1.5-0.3c0.5-0.1,1-0.4,1.4-0.7
				c0.5-0.3,0.8-0.7,1-1.2c0.2-0.5,0.3-1,0.3-1.6c0-0.4-0.1-0.8-0.2-1.2c-0.1-0.4-0.3-0.7-0.5-1s-0.4-0.5-0.7-0.7
				c-0.3-0.2-0.5-0.2-0.9-0.2c-0.5,0-1,0.1-1.2,0.4c-0.3,0.3-0.5,0.6-0.6,1c-0.1,0.4-0.3,0.8-0.4,1.2c-0.1,0.4-0.3,0.8-0.6,1.1
				c-0.2,0.2-0.5,0.4-0.9,0.5s-0.7,0.2-1,0.2c-0.3,0-0.7-0.1-0.9-0.2c-0.3-0.1-0.5-0.3-0.7-0.5c-0.2-0.2-0.3-0.4-0.4-0.7
				s-0.1-0.5-0.1-0.8c0-0.4,0.1-0.8,0.3-1.2c0.2-0.4,0.5-0.8,1-1.1c0.5-0.3,1.2-0.6,2-0.8c0.8-0.2,1.9-0.3,3.2-0.3
				c1.4,0,2.6,0.1,3.6,0.4c1,0.3,1.8,0.7,2.5,1.2c0.6,0.5,1.1,1.2,1.4,2s0.4,1.7,0.4,2.8c0,1.2,0,2.4-0.1,3.5
				c-0.1,1.1-0.1,2-0.2,2.9c0,0.8,0,1.5,0,2.1c0.1,0.5,0.2,0.9,0.5,1c0.1,0.1,0.3,0.1,0.5,0.1C378.6,403,378.8,403,379,402.9z
				 M372.3,394.4c0-0.1,0-0.1-0.1-0.2c-0.1,0-0.1,0-0.2,0.1c-0.1,0.1-0.2,0.2-0.3,0.3s-0.2,0.2-0.3,0.4c-0.2,0.3-0.5,0.5-0.7,0.7
				s-0.5,0.4-0.8,0.7c-0.3,0.2-0.5,0.4-0.8,0.6c-0.2,0.2-0.5,0.4-0.7,0.7c-0.3,0.4-0.6,0.8-0.7,1.2c-0.2,0.5-0.2,0.9-0.2,1.4
				c0,0.3,0.1,0.7,0.2,1s0.3,0.7,0.5,0.9s0.5,0.5,0.8,0.7c0.3,0.2,0.7,0.3,1.2,0.3c0.5,0,0.8-0.1,1.1-0.3c0.3-0.2,0.5-0.4,0.7-0.7
				c0.2-0.3,0.3-0.5,0.3-0.8s0.1-0.5,0.1-0.6V394.4z"/>
			<path class="st2" d="M399.3,402.9c0.2,0,0.3,0,0.4,0.1c0.1,0.1,0.1,0.3,0,0.4c-0.1,0.1-0.2,0.3-0.4,0.5c-0.2,0.2-0.4,0.4-0.7,0.5
				c-0.3,0.2-0.6,0.3-1.1,0.4c-0.4,0.1-0.9,0.2-1.5,0.2c-0.8,0-1.4-0.2-2-0.5c-0.5-0.3-0.9-0.7-1.1-1.1c-0.1-0.1-0.1-0.1-0.2-0.1
				c-0.1,0-0.2,0.1-0.2,0.1c0,0-0.2,0.1-0.4,0.3c-0.2,0.2-0.5,0.4-0.8,0.6c-0.4,0.2-0.8,0.4-1.3,0.5c-0.5,0.2-1.1,0.2-1.8,0.2
				c-1.1,0-2.1-0.2-2.9-0.5c-0.8-0.3-1.4-0.7-1.9-1.2c-0.5-0.5-0.8-1.1-1-1.7c-0.2-0.6-0.3-1.3-0.3-1.9c0-1,0.3-1.9,0.9-2.6
				s1.3-1.3,2.2-1.7c0.5-0.2,1-0.3,1.5-0.4c0.5-0.1,1.1-0.2,1.6-0.3c0.5-0.1,1-0.2,1.5-0.3c0.5-0.1,1-0.4,1.4-0.7
				c0.5-0.3,0.8-0.7,1-1.2c0.2-0.5,0.3-1,0.3-1.6c0-0.4-0.1-0.8-0.2-1.2c-0.1-0.4-0.3-0.7-0.5-1s-0.4-0.5-0.7-0.7
				c-0.3-0.2-0.5-0.2-0.9-0.2c-0.5,0-1,0.1-1.2,0.4c-0.3,0.3-0.5,0.6-0.6,1c-0.1,0.4-0.3,0.8-0.4,1.2c-0.1,0.4-0.3,0.8-0.6,1.1
				c-0.2,0.2-0.5,0.4-0.9,0.5s-0.7,0.2-1,0.2c-0.3,0-0.7-0.1-0.9-0.2c-0.3-0.1-0.5-0.3-0.7-0.5c-0.2-0.2-0.3-0.4-0.4-0.7
				s-0.1-0.5-0.1-0.8c0-0.4,0.1-0.8,0.3-1.2c0.2-0.4,0.5-0.8,1-1.1c0.5-0.3,1.2-0.6,2-0.8c0.8-0.2,1.9-0.3,3.2-0.3
				c1.4,0,2.6,0.1,3.6,0.4c1,0.3,1.8,0.7,2.5,1.2c0.6,0.5,1.1,1.2,1.4,2s0.4,1.7,0.4,2.8c0,1.2,0,2.4-0.1,3.5
				c-0.1,1.1-0.1,2-0.2,2.9c0,0.8,0,1.5,0,2.1c0.1,0.5,0.2,0.9,0.5,1c0.1,0.1,0.3,0.1,0.5,0.1C398.9,403,399.1,403,399.3,402.9z
				 M392.7,394.4c0-0.1,0-0.1-0.1-0.2c-0.1,0-0.1,0-0.2,0.1c-0.1,0.1-0.2,0.2-0.3,0.3s-0.2,0.2-0.3,0.4c-0.2,0.3-0.5,0.5-0.7,0.7
				s-0.5,0.4-0.8,0.7c-0.3,0.2-0.5,0.4-0.8,0.6c-0.2,0.2-0.5,0.4-0.7,0.7c-0.3,0.4-0.6,0.8-0.7,1.2c-0.2,0.5-0.2,0.9-0.2,1.4
				c0,0.3,0.1,0.7,0.2,1s0.3,0.7,0.5,0.9s0.5,0.5,0.8,0.7c0.3,0.2,0.7,0.3,1.2,0.3c0.5,0,0.8-0.1,1.1-0.3c0.3-0.2,0.5-0.4,0.7-0.7
				c0.2-0.3,0.3-0.5,0.3-0.8s0.1-0.5,0.1-0.6V394.4z"/>
			<path class="st2" d="M424,404.1c0.1,0,0.2,0.1,0.2,0.1c0,0.1,0.1,0.1,0,0.2s0,0.1-0.1,0.2c-0.1,0.1-0.1,0.1-0.2,0.1h-2.2h-0.2
				h-4.8h-0.2h-2.2c-0.1,0-0.2,0-0.2-0.1s-0.1-0.1-0.1-0.2s0-0.1,0-0.2c0-0.1,0.1-0.1,0.2-0.1c0.1,0,0.3-0.1,0.5-0.1
				c0.2-0.1,0.5-0.2,0.8-0.4c0.3-0.2,0.5-0.4,0.7-0.7c0.2-0.3,0.3-0.7,0.3-1.2v-7v-0.2v-1.1c0-0.5-0.1-1.1-0.1-1.7
				c-0.1-0.6-0.2-1.1-0.4-1.5c-0.2-0.5-0.5-0.8-1-1.1c-0.4-0.3-1-0.4-1.7-0.4c-0.7,0-1.3,0.1-1.7,0.4c-0.4,0.3-0.7,0.7-0.9,1.1
				c-0.2,0.4-0.3,0.9-0.4,1.4c0,0.5-0.1,0.9-0.1,1.3v8.8c0,0.5,0.1,0.9,0.3,1.2c0.2,0.3,0.4,0.6,0.7,0.7c0.3,0.2,0.5,0.3,0.8,0.4
				c0.2,0.1,0.4,0.1,0.5,0.1c0.1,0,0.2,0.1,0.2,0.1c0,0.1,0.1,0.1,0,0.2s0,0.1-0.1,0.2c-0.1,0.1-0.1,0.1-0.2,0.1h-9.6
				c-0.1,0-0.2,0-0.2-0.1c-0.1-0.1-0.1-0.1-0.1-0.2s0-0.1,0-0.2c0-0.1,0.1-0.1,0.2-0.1c0.1,0,0.3-0.1,0.5-0.1
				c0.2-0.1,0.5-0.2,0.8-0.4c0.3-0.2,0.5-0.4,0.7-0.7c0.2-0.3,0.3-0.7,0.3-1.2v-10.6c0-0.2-0.1-0.3-0.2-0.3c0,0-0.1,0-0.3-0.1
				c-0.2,0-0.3-0.1-0.5-0.1c-0.2-0.1-0.4-0.1-0.6-0.1c-0.2,0-0.3-0.1-0.3-0.1c-0.2,0-0.3-0.1-0.3-0.3s0.1-0.2,0.3-0.3
				c0.5-0.1,1-0.3,1.6-0.5c0.6-0.2,1.2-0.4,1.8-0.7s1.2-0.5,1.7-0.8c0.5-0.3,1-0.6,1.5-0.9c0.1-0.1,0.2-0.1,0.4-0.1s0.2,0.1,0.2,0.3
				v1.6c0.3-0.2,0.6-0.5,0.9-0.7s0.7-0.4,1.2-0.6s0.9-0.3,1.4-0.4c0.5-0.1,1.1-0.2,1.8-0.2c1,0,1.9,0.1,2.6,0.3
				c0.7,0.2,1.3,0.5,1.8,0.9c0.5,0.4,0.8,0.8,1.1,1.3c0.2,0.5,0.4,1,0.5,1.5c0.1,0.5,0.2,1.1,0.2,1.6c0,0.5,0,1,0,1.5v0.1v7.4
				c0,0.5,0.1,0.9,0.3,1.2c0.2,0.3,0.4,0.6,0.7,0.7c0.3,0.2,0.5,0.3,0.8,0.4C423.7,404.1,423.9,404.1,424,404.1z"/>
			<path class="st2" d="M443.7,402.9c0.2,0,0.3,0,0.4,0.1c0.1,0.1,0.1,0.3,0,0.4c-0.1,0.1-0.2,0.3-0.4,0.5c-0.2,0.2-0.4,0.4-0.7,0.5
				c-0.3,0.2-0.6,0.3-1.1,0.4c-0.4,0.1-0.9,0.2-1.5,0.2c-0.8,0-1.4-0.2-2-0.5c-0.5-0.3-0.9-0.7-1.1-1.1c-0.1-0.1-0.1-0.1-0.2-0.1
				c-0.1,0-0.2,0.1-0.2,0.1c0,0-0.2,0.1-0.4,0.3c-0.2,0.2-0.5,0.4-0.8,0.6c-0.4,0.2-0.8,0.4-1.3,0.5c-0.5,0.2-1.1,0.2-1.8,0.2
				c-1.1,0-2.1-0.2-2.9-0.5c-0.8-0.3-1.4-0.7-1.9-1.2c-0.5-0.5-0.8-1.1-1-1.7c-0.2-0.6-0.3-1.3-0.3-1.9c0-1,0.3-1.9,0.9-2.6
				s1.3-1.3,2.2-1.7c0.5-0.2,1-0.3,1.5-0.4c0.5-0.1,1.1-0.2,1.6-0.3c0.5-0.1,1-0.2,1.5-0.3c0.5-0.1,1-0.4,1.4-0.7
				c0.5-0.3,0.8-0.7,1-1.2c0.2-0.5,0.3-1,0.3-1.6c0-0.4-0.1-0.8-0.2-1.2c-0.1-0.4-0.3-0.7-0.5-1s-0.4-0.5-0.7-0.7
				c-0.3-0.2-0.5-0.2-0.9-0.2c-0.5,0-1,0.1-1.2,0.4c-0.3,0.3-0.5,0.6-0.6,1c-0.1,0.4-0.3,0.8-0.4,1.2c-0.1,0.4-0.3,0.8-0.6,1.1
				c-0.2,0.2-0.5,0.4-0.9,0.5s-0.7,0.2-1,0.2c-0.3,0-0.7-0.1-0.9-0.2c-0.3-0.1-0.5-0.3-0.7-0.5c-0.2-0.2-0.3-0.4-0.4-0.7
				s-0.1-0.5-0.1-0.8c0-0.4,0.1-0.8,0.3-1.2c0.2-0.4,0.5-0.8,1-1.1c0.5-0.3,1.2-0.6,2-0.8c0.8-0.2,1.9-0.3,3.2-0.3
				c1.4,0,2.6,0.1,3.6,0.4c1,0.3,1.8,0.7,2.5,1.2c0.6,0.5,1.1,1.2,1.4,2s0.4,1.7,0.4,2.8c0,1.2,0,2.4-0.1,3.5
				c-0.1,1.1-0.1,2-0.2,2.9c0,0.8,0,1.5,0,2.1c0.1,0.5,0.2,0.9,0.5,1c0.1,0.1,0.3,0.1,0.5,0.1C443.2,403,443.4,403,443.7,402.9z
				 M437,394.4c0-0.1,0-0.1-0.1-0.2c-0.1,0-0.1,0-0.2,0.1c-0.1,0.1-0.2,0.2-0.3,0.3s-0.2,0.2-0.3,0.4c-0.2,0.3-0.5,0.5-0.7,0.7
				s-0.5,0.4-0.8,0.7c-0.3,0.2-0.5,0.4-0.8,0.6c-0.2,0.2-0.5,0.4-0.7,0.7c-0.3,0.4-0.6,0.8-0.7,1.2c-0.2,0.5-0.2,0.9-0.2,1.4
				c0,0.3,0.1,0.7,0.2,1s0.3,0.7,0.5,0.9s0.5,0.5,0.8,0.7c0.3,0.2,0.7,0.3,1.2,0.3c0.5,0,0.8-0.1,1.1-0.3c0.3-0.2,0.5-0.4,0.7-0.7
				c0.2-0.3,0.3-0.5,0.3-0.8s0.1-0.5,0.1-0.6V394.4z"/>
		</g>
	</g>
	<g>
		<g>
			<path class="st1" d="M267.1,380.4c3.3-1.9,4.9-3.8,5.2-3.5c0.4,0.3-1.8,3.4-3.2,5.4c-1.3,1.7-3.2,4.2-6.3,7.1
				c-3.8,3.5-7.3,5.7-9.1,6.6c-3.5,2-7.5,3.6-11.9,4.8c-4.4,1.2-9.2,1.9-14.3,1.9c-5,0-9.7-0.6-14-1.7c-4.4-1.1-8.5-2.5-12.5-4.1
				c-4-1.6-7.7-3.4-11.3-5.3c-3.6-1.9-7-3.6-10.2-5.2c-3.3-1.6-6.5-2.8-9.6-3.8c-3.1-0.9-6.2-1.3-9.2-1c-0.7,0.1-1.1-0.1-1.2-0.4
				c-0.2-0.3,0-0.7,0.5-1.1c1.5-1.2,3.4-2.3,5.9-3.1s5.3-1.3,8.4-1.3c0.5,0,0.9-0.1,1.2-0.3c0.3-0.2,0.5-0.4,0.7-0.8
				c0,0,0.3-0.6,0.9-1.5c0.5-1,1.3-2.3,2.2-4s2-3.7,3.3-6c1.3-2.3,2.6-4.8,4.1-7.4c1.5-2.7,3-5.5,4.6-8.4c1.6-2.9,3.2-5.9,4.9-8.9
				c5.8-10.5,12.3-22.5,19.6-35.9h-14.5c-2.3,0-4.3,0.3-6.1,0.8c-1.8,0.6-3.4,1.3-4.7,2.1c-1.3,0.8-2.5,1.8-3.5,2.8
				c-1,1.1-1.8,2.1-2.4,3c-0.6,1-1.1,1.8-1.5,2.6c-0.4,0.8-0.6,1.3-0.7,1.7c-0.2,0.6-0.6,0.9-1.1,0.8c-0.5-0.1-0.7-0.4-0.7-1V300
				c0-0.7,0.4-1.1,1.2-1.1h56.9c-7.8,14.3-14.8,27.1-21,38.5c-1.8,3.2-3.5,6.4-5.2,9.6c-1.7,3.2-3.4,6.2-4.9,9c-1.6,2.9-3,5.5-4.4,8
				c-1.4,2.5-2.5,4.6-3.5,6.4s-1.8,3.3-2.3,4.3c-0.6,1.1-0.9,1.6-0.9,1.7c-0.2,0.4-0.2,0.8-0.1,1.1c0.1,0.3,0.4,0.5,0.8,0.6
				c3.8,0.8,7.6,1.6,11.3,2.5c3.7,0.9,7.4,1.8,11.1,2.5c3.7,0.8,7.4,1.4,11.1,1.9c3.7,0.5,7.4,0.8,11.2,0.8c2.8,0,5.3-0.1,7.7-0.3
				c2.3-0.2,4.5-0.6,6.6-1c2.1-0.5,4-1,5.9-1.7C263.5,382.1,265.1,381.5,267.1,380.4z"/>
		</g>
		<g>
			<path class="st1" d="M285.7,371.3c0.5-0.1,1,0,1.3,0.3c0.3,0.3,0.3,0.8,0.1,1.3c-0.2,0.4-0.6,0.9-1.1,1.5
				c-0.5,0.6-1.2,1.1-2.1,1.6c-0.9,0.5-1.9,0.9-3.2,1.3c-1.2,0.3-2.7,0.5-4.4,0.5c-2.3,0-4.3-0.5-5.9-1.4c-1.6-0.9-2.7-2-3.3-3.2
				c-0.2-0.3-0.4-0.4-0.7-0.4c-0.3,0-0.5,0.2-0.7,0.3c-0.1,0.1-0.5,0.4-1.1,0.9c-0.6,0.5-1.4,1.1-2.5,1.7c-1.1,0.6-2.4,1.1-3.9,1.6
				c-1.5,0.5-3.3,0.7-5.3,0.7c-3.4,0-6.3-0.5-8.6-1.4c-2.3-1-4.2-2.2-5.6-3.7c-1.4-1.5-2.5-3.2-3.1-5.1c-0.6-1.9-0.9-3.8-0.9-5.6
				c0-3,0.9-5.7,2.6-7.9c1.7-2.3,3.9-3.9,6.7-5c1.5-0.6,3-1,4.6-1.2c1.6-0.2,3.2-0.5,4.8-0.8c1.6-0.3,3.1-0.6,4.6-1
				c1.5-0.4,2.9-1.1,4.3-2c1.4-1,2.4-2.2,3-3.7c0.6-1.5,0.8-3.1,0.8-4.8c0-1.2-0.2-2.4-0.5-3.5c-0.3-1.1-0.8-2.1-1.4-3
				c-0.6-0.8-1.3-1.5-2.1-2c-0.8-0.5-1.6-0.7-2.6-0.7c-1.7,0-2.9,0.4-3.6,1.3c-0.8,0.8-1.4,1.9-1.8,3c-0.4,1.2-0.9,2.4-1.2,3.7
				c-0.4,1.3-1,2.4-1.8,3.3c-0.7,0.7-1.6,1.3-2.7,1.6c-1.1,0.4-2.1,0.5-3.1,0.5c-1,0-2-0.2-2.8-0.5c-0.8-0.3-1.5-0.8-2.1-1.4
				c-0.6-0.6-1-1.3-1.3-2.1c-0.3-0.8-0.4-1.6-0.4-2.5c0-1.2,0.3-2.4,0.9-3.6c0.6-1.2,1.6-2.3,3.1-3.2c1.5-1,3.5-1.7,6-2.3
				c2.5-0.6,5.7-0.9,9.5-0.9c4.3,0,7.9,0.4,10.9,1.3c3,0.9,5.5,2.1,7.4,3.8c1.9,1.6,3.3,3.7,4.1,6.1c0.9,2.4,1.3,5.2,1.3,8.3
				c0,3.7-0.1,7.2-0.3,10.4c-0.2,3.2-0.4,6.1-0.5,8.6c-0.1,2.5,0,4.6,0.1,6.2c0.2,1.6,0.7,2.6,1.6,3c0.4,0.2,0.9,0.3,1.4,0.3
				C284.4,371.5,285.1,371.4,285.7,371.3z M265.7,345.7c0-0.2-0.1-0.4-0.3-0.5c-0.2-0.1-0.4,0-0.5,0.2c-0.3,0.3-0.6,0.7-0.8,1
				c-0.3,0.3-0.6,0.7-1,1.1c-0.7,0.8-1.5,1.5-2.2,2.1c-0.8,0.7-1.5,1.3-2.3,2c-0.8,0.6-1.5,1.2-2.3,1.8c-0.7,0.6-1.4,1.3-2.1,2
				c-1,1.1-1.7,2.4-2.2,3.8c-0.5,1.4-0.7,2.8-0.7,4.3c0,1,0.2,2.1,0.5,3.1c0.3,1.1,0.8,2,1.4,2.8c0.6,0.8,1.4,1.5,2.4,2
				c1,0.5,2.2,0.8,3.5,0.8s2.5-0.3,3.4-0.9c0.9-0.6,1.5-1.3,2-2.1c0.5-0.8,0.8-1.6,1-2.4c0.2-0.8,0.3-1.5,0.3-1.9V345.7z"/>
		</g>
		<g>
			<path class="st1" d="M326.4,324.4c1.6,0,3,0.2,4.1,0.6c1.1,0.4,2,0.9,2.7,1.6c0.7,0.7,1.2,1.5,1.5,2.3c0.3,0.9,0.5,1.8,0.5,2.8
				c0,1.8-0.6,3.3-1.8,4.3c-1.2,1-2.7,1.5-4.7,1.5c-1.5,0-2.7-0.3-3.5-0.8c-0.8-0.5-1.6-1.1-2.2-1.7c-0.6-0.6-1.1-1.2-1.6-1.7
				c-0.5-0.5-1.1-0.8-1.8-0.8c-0.7,0-1.4,0.2-2.1,0.7c-0.7,0.4-1.4,1.3-2.1,2.5c-0.6,1.2-1.2,2.9-1.6,5c-0.4,2.1-0.6,4.9-0.6,8.3
				v19.8c0,1.5,0.3,2.7,0.8,3.6c0.5,0.9,1.1,1.5,1.8,2c0.7,0.5,1.3,0.8,2,0.9c0.7,0.2,1.1,0.3,1.4,0.3c0.3,0.1,0.5,0.2,0.7,0.4
				c0.1,0.2,0.2,0.4,0.1,0.5c0,0.2-0.1,0.4-0.3,0.5c-0.2,0.2-0.4,0.2-0.7,0.2h-5.8h-0.5h-14.5h-0.5h-5.8c-0.3,0-0.5-0.1-0.7-0.2
				c-0.2-0.2-0.3-0.3-0.3-0.5c0-0.2,0-0.4,0.1-0.5c0.1-0.2,0.4-0.3,0.7-0.4c0.3,0,0.8-0.1,1.4-0.3c0.7-0.2,1.3-0.5,2-0.9
				c0.7-0.5,1.3-1.1,1.8-2c0.5-0.9,0.8-2.1,0.8-3.6v-32.3c0-0.5-0.2-0.8-0.7-0.9c-0.1,0-0.4-0.1-0.8-0.2c-0.5-0.1-1-0.2-1.6-0.4
				c-0.6-0.2-1.2-0.3-1.7-0.4c-0.5-0.1-0.8-0.2-0.9-0.2c-0.5-0.1-0.8-0.4-0.8-0.8c0-0.4,0.3-0.7,0.8-0.8c1.5-0.3,3.1-0.8,4.9-1.4
				c1.7-0.6,3.5-1.3,5.3-2c1.8-0.7,3.5-1.5,5.1-2.4c1.6-0.9,3.1-1.7,4.4-2.6c0.3-0.2,0.7-0.3,1.1-0.3c0.4,0,0.5,0.3,0.5,0.9v8.2
				c1.3-2.9,3.2-5.1,5.5-6.6C320.9,325.2,323.5,324.4,326.4,324.4z"/>
		</g>
		<g>
			<path class="st1" d="M449.2,324.4c1.6,0,3,0.2,4.1,0.6c1.1,0.4,2,0.9,2.7,1.6c0.7,0.7,1.2,1.5,1.5,2.3c0.3,0.9,0.5,1.8,0.5,2.8
				c0,1.8-0.6,3.3-1.8,4.3c-1.2,1-2.7,1.5-4.7,1.5c-1.5,0-2.7-0.3-3.5-0.8c-0.8-0.5-1.6-1.1-2.2-1.7c-0.6-0.6-1.1-1.2-1.6-1.7
				c-0.5-0.5-1.1-0.8-1.8-0.8c-0.7,0-1.4,0.2-2.1,0.7c-0.7,0.4-1.4,1.3-2.1,2.5c-0.6,1.2-1.2,2.9-1.6,5c-0.4,2.1-0.6,4.9-0.6,8.3
				v19.8c0,1.5,0.3,2.7,0.8,3.6c0.5,0.9,1.1,1.5,1.8,2c0.7,0.5,1.3,0.8,2,0.9c0.7,0.2,1.1,0.3,1.4,0.3c0.3,0.1,0.5,0.2,0.7,0.4
				c0.1,0.2,0.2,0.4,0.1,0.5c0,0.2-0.1,0.4-0.3,0.5c-0.2,0.2-0.4,0.2-0.7,0.2H436h-0.5h-14.5h-0.5h-5.8c-0.3,0-0.5-0.1-0.7-0.2
				c-0.2-0.2-0.3-0.3-0.3-0.5c0-0.2,0-0.4,0.1-0.5c0.1-0.2,0.4-0.3,0.7-0.4c0.3,0,0.8-0.1,1.4-0.3c0.7-0.2,1.3-0.5,2-0.9
				c0.7-0.5,1.3-1.1,1.8-2s0.8-2.1,0.8-3.6v-32.3c0-0.5-0.2-0.8-0.7-0.9c-0.1,0-0.4-0.1-0.8-0.2c-0.5-0.1-1-0.2-1.6-0.4
				c-0.6-0.2-1.2-0.3-1.7-0.4c-0.5-0.1-0.8-0.2-0.9-0.2c-0.5-0.1-0.8-0.4-0.8-0.8c0-0.4,0.3-0.7,0.8-0.8c1.5-0.3,3.1-0.8,4.9-1.4
				c1.7-0.6,3.5-1.3,5.3-2c1.8-0.7,3.5-1.5,5.1-2.4c1.6-0.9,3.1-1.7,4.4-2.6c0.3-0.2,0.7-0.3,1.1-0.3c0.4,0,0.5,0.3,0.5,0.9v8.2
				c1.3-2.9,3.2-5.1,5.5-6.6C443.7,325.2,446.3,324.4,449.2,324.4z"/>
		</g>
		<g>
			<path class="st1" d="M229.3,403.2c-5,0-9.8-0.6-14.2-1.7c-4.4-1.1-8.6-2.5-12.6-4.1c-4-1.6-7.8-3.4-11.3-5.3
				c-3.5-1.9-7-3.6-10.2-5.2c-3.2-1.5-6.4-2.8-9.5-3.7c-3-0.9-6-1.2-9-1c-1.1,0.1-1.5-0.3-1.7-0.7c-0.2-0.4-0.3-1,0.6-1.8
				c1.5-1.3,3.5-2.3,6.1-3.2c2.5-0.9,5.4-1.3,8.5-1.3c0.5,0,0.8-0.1,0.9-0.2c0.2-0.1,0.4-0.3,0.5-0.6l0.1-0.1c0,0,0.1-0.2,0.8-1.4
				l2.2-4c0.9-1.7,2-3.7,3.3-6c1.3-2.3,2.6-4.8,4.1-7.4s3-5.5,4.6-8.4s3.2-5.9,4.9-8.9c5.7-10.3,12-22.1,19.2-35.2H203
				c-2.2,0-4.2,0.3-6,0.8c-1.8,0.5-3.3,1.2-4.6,2c-1.3,0.8-2.4,1.7-3.4,2.8c-1,1-1.8,2-2.4,2.9c-0.6,0.9-1.1,1.8-1.5,2.5
				c-0.4,0.8-0.6,1.3-0.7,1.6c-0.4,1.1-1.2,1.2-1.6,1.2c-0.4,0-1.2-0.3-1.2-1.5V300c0-1,0.6-1.6,1.7-1.6h57.7l-0.4,0.7
				c-7.8,14.3-14.8,27.1-21,38.5c-1.8,3.2-3.5,6.4-5.2,9.6c-1.7,3.2-3.4,6.2-4.9,9c-1.6,2.9-3,5.5-4.4,8c-1.4,2.5-2.5,4.6-3.5,6.4
				c-1,1.8-1.8,3.3-2.3,4.3c-0.6,1-0.9,1.6-0.9,1.7c-0.1,0.3-0.2,0.5-0.1,0.8c0,0,0.1,0.2,0.4,0.3c3.8,0.8,7.6,1.6,11.3,2.5
				c3.7,0.9,7.4,1.8,11.1,2.5c3.7,0.8,7.4,1.4,11.1,1.9c3.7,0.5,7.4,0.8,11.1,0.8c2.7,0,5.3-0.1,7.6-0.3c2.3-0.2,4.5-0.6,6.6-1
				c2-0.5,4-1,5.8-1.7l0.3-0.1c1.7-0.6,3.3-1.2,5.1-2.3c1.8-1,3.1-2,3.9-2.7c0.9-0.7,1.4-1.1,1.9-0.7c0.3,0.3,0.8,0.7-3.2,6.1
				c-1.2,1.6-3.2,4.2-6.4,7.1c-3.8,3.5-7.4,5.7-9.2,6.7c-3.5,2-7.6,3.6-12,4.9C239.4,402.5,234.5,403.2,229.3,403.2z M164.5,381.1
				c2.4,0,4.9,0.4,7.3,1.1c3.1,0.9,6.3,2.2,9.6,3.8c3.3,1.6,6.7,3.3,10.3,5.2c3.5,1.9,7.3,3.6,11.2,5.3c3.9,1.6,8.1,3,12.4,4.1
				c4.3,1.1,9,1.6,13.9,1.6c5.1,0,9.8-0.6,14.2-1.8c4.3-1.2,8.3-2.8,11.8-4.8c1.8-1,5.2-3.1,9-6.6c3.1-2.9,5.1-5.5,6.3-7
				c1.2-1.6,2.2-3,2.7-3.9c-0.9,0.7-2.2,1.7-4,2.8l0,0c-1.9,1.1-3.5,1.7-5.3,2.3l-0.3,0.1c-1.9,0.7-3.9,1.3-6,1.7
				c-2.1,0.5-4.3,0.8-6.7,1c-2.3,0.2-4.9,0.3-7.7,0.3c-3.8,0-7.6-0.3-11.3-0.8c-3.7-0.5-7.4-1.2-11.1-1.9c-3.7-0.8-7.4-1.6-11.1-2.5
				c-3.7-0.9-7.5-1.8-11.2-2.5c-0.8-0.1-1.1-0.6-1.2-1c-0.1-0.4-0.1-0.9,0.2-1.5c0-0.1,0.4-0.7,0.9-1.7c0.6-1,1.4-2.5,2.3-4.3
				c1-1.8,2.2-4,3.5-6.5c1.4-2.5,2.8-5.1,4.4-8c1.6-2.9,3.2-5.9,4.9-9.1c1.7-3.2,3.5-6.4,5.2-9.6c6.1-11.1,12.9-23.7,20.6-37.7h-56
				c-0.7,0-0.7,0.3-0.7,0.6v15.2c0,0.5,0.2,0.5,0.3,0.5c0.1,0,0.4,0,0.6-0.5c0.1-0.3,0.4-0.9,0.7-1.7c0.4-0.8,0.9-1.7,1.5-2.7
				c0.6-1,1.5-2,2.5-3.1c1-1.1,2.2-2.1,3.6-2.9c1.4-0.9,3-1.6,4.8-2.1c1.8-0.6,3.9-0.9,6.3-0.9h15.3l-0.4,0.7
				c-7.3,13.4-13.8,25.4-19.6,35.9c-1.7,3-3.3,6-4.9,8.9s-3.1,5.7-4.6,8.4c-1.5,2.7-2.8,5.2-4.1,7.4c-1.3,2.3-2.4,4.3-3.3,6l-2.2,4
				c-0.6,1.1-0.8,1.5-0.9,1.6c-0.2,0.4-0.5,0.7-0.8,0.9c-0.4,0.2-0.8,0.3-1.5,0.3c-3,0-5.8,0.4-8.2,1.3c-2.4,0.9-4.3,1.9-5.7,3.1
				c-0.2,0.2-0.4,0.4-0.4,0.5c0.1,0.2,0.6,0.1,0.7,0.1C163.2,381.1,163.9,381.1,164.5,381.1z"/>
		</g>
		<g>
			<path class="st1" d="M254.7,378.5c-3.5,0-6.4-0.5-8.8-1.5c-2.4-1-4.3-2.3-5.8-3.8c-1.5-1.6-2.6-3.3-3.2-5.3c-0.6-1.9-1-3.9-1-5.8
				c0-3.1,0.9-5.9,2.7-8.2c1.8-2.3,4.1-4.1,6.9-5.2c1.5-0.6,3.1-1,4.7-1.3c1.6-0.2,3.2-0.5,4.7-0.8c1.6-0.3,3.1-0.6,4.6-1
				c1.5-0.4,2.8-1,4.1-1.9c1.3-0.9,2.3-2,2.8-3.4c0.5-1.4,0.8-3,0.8-4.6c0-1.2-0.2-2.3-0.5-3.4c-0.3-1.1-0.7-2-1.3-2.8
				c-0.6-0.8-1.2-1.4-1.9-1.9c-0.7-0.4-1.5-0.7-2.3-0.7c-1.5,0-2.6,0.4-3.3,1.1c-0.7,0.8-1.3,1.8-1.7,2.9c-0.4,1.2-0.9,2.4-1.2,3.7
				c-0.4,1.3-1.1,2.5-2,3.5c-0.8,0.8-1.7,1.4-2.9,1.8c-2.3,0.8-4.6,0.7-6.3,0c-0.9-0.4-1.6-0.9-2.2-1.5c-0.6-0.6-1.1-1.4-1.4-2.2
				c-0.3-0.8-0.5-1.7-0.5-2.7c0-1.3,0.3-2.5,0.9-3.8c0.6-1.3,1.7-2.4,3.3-3.4c1.5-1,3.6-1.8,6.1-2.4c2.5-0.6,5.8-0.9,9.6-0.9
				c4.3,0,8,0.4,11,1.3c3.1,0.9,5.6,2.2,7.6,3.9c2,1.7,3.4,3.8,4.3,6.3c0.9,2.5,1.3,5.3,1.3,8.4c0,3.7-0.1,7.2-0.3,10.5
				c-0.2,3.2-0.4,6.1-0.5,8.6c-0.1,2.5,0,4.5,0.1,6.1c0.2,1.4,0.6,2.3,1.3,2.6c0.3,0.2,0.7,0.2,1.2,0.2c0.5,0,1.1-0.1,1.8-0.2
				c0.9-0.2,1.4,0.1,1.7,0.5c0.3,0.3,0.6,0.9,0.1,1.9c-0.3,0.5-0.6,1-1.2,1.6c-0.6,0.6-1.3,1.2-2.2,1.7c-0.9,0.5-2,1-3.3,1.3
				c-1.3,0.4-2.8,0.5-4.5,0.5c-2.4,0-4.5-0.5-6.2-1.5c-1.7-1-2.9-2.1-3.5-3.4c-0.1-0.1-0.1-0.1-0.2-0.1c-0.2,0-0.3,0.1-0.4,0.2
				c-0.1,0.1-0.5,0.4-1.1,1c-0.6,0.5-1.5,1.1-2.6,1.7c-1.1,0.6-2.5,1.2-4,1.6C258.5,378.2,256.7,378.5,254.7,378.5z M261.1,326.1
				c1,0,2,0.3,2.8,0.8c0.8,0.5,1.6,1.2,2.2,2.1c0.6,0.9,1.1,1.9,1.5,3.1c0.3,1.2,0.5,2.4,0.5,3.7c0,1.7-0.3,3.4-0.9,4.9
				c-0.6,1.6-1.7,2.9-3.2,3.9c-1.4,0.9-2.9,1.6-4.4,2c-1.5,0.4-3.1,0.7-4.7,1c-1.6,0.3-3.2,0.5-4.8,0.8c-1.6,0.2-3.1,0.6-4.5,1.2
				c-2.6,1.1-4.8,2.7-6.4,4.9c-1.6,2.2-2.5,4.7-2.5,7.6c0,1.8,0.3,3.7,0.9,5.5c0.6,1.8,1.6,3.5,3,4.9c1.4,1.5,3.2,2.7,5.5,3.6
				c2.3,0.9,5.1,1.4,8.4,1.4c1.9,0,3.7-0.2,5.1-0.7c1.5-0.5,2.8-1,3.9-1.6c1.1-0.6,1.9-1.1,2.4-1.6c0.6-0.5,0.9-0.8,1-0.9
				c0.3-0.3,0.6-0.4,1-0.5c0.5-0.1,0.9,0.2,1.2,0.7c0.6,1.1,1.6,2.1,3.1,3c1.5,0.9,3.4,1.3,5.6,1.3c1.6,0,3.1-0.2,4.3-0.5
				c1.2-0.3,2.2-0.7,3.1-1.2c0.8-0.5,1.5-1,2-1.5c0.5-0.5,0.8-1,1.1-1.4c0.2-0.5,0.1-0.6,0-0.7c-0.1-0.1-0.3-0.3-0.8-0.2l0,0
				c-0.7,0.1-1.3,0.2-1.9,0.2c-0.7,0-1.2-0.1-1.7-0.3c-1-0.4-1.7-1.6-1.9-3.4c-0.2-1.6-0.2-3.7-0.1-6.3c0.1-2.5,0.3-5.4,0.5-8.6
				c0.2-3.2,0.3-6.7,0.3-10.4c0-3-0.4-5.7-1.3-8.1c-0.8-2.3-2.2-4.3-4-5.9c-1.8-1.6-4.3-2.8-7.2-3.6c-3-0.8-6.6-1.3-10.8-1.3
				c-3.8,0-6.9,0.3-9.4,0.9c-2.4,0.6-4.4,1.3-5.8,2.3c-1.4,0.9-2.4,1.9-2.9,3c-0.5,1.1-0.8,2.2-0.8,3.3c0,0.8,0.1,1.6,0.4,2.3
				c0.3,0.7,0.7,1.3,1.2,1.9c0.5,0.5,1.2,1,1.9,1.3c1.5,0.6,3.5,0.7,5.5,0c1-0.3,1.8-0.8,2.5-1.5c0.8-0.9,1.4-1.9,1.7-3.1
				c0.4-1.3,0.8-2.5,1.2-3.7c0.5-1.2,1.1-2.3,1.9-3.2C258,326.5,259.3,326.1,261.1,326.1z M260.9,372.8c-1.5,0-2.7-0.3-3.8-0.8
				c-1-0.5-1.9-1.3-2.6-2.1c-0.7-0.9-1.2-1.9-1.5-3c-0.3-1.1-0.5-2.2-0.5-3.3c0-1.6,0.3-3.1,0.7-4.5c0.5-1.4,1.3-2.7,2.3-3.9
				c0.7-0.7,1.4-1.4,2.2-2.1c0.8-0.6,1.5-1.2,2.3-1.8c0.7-0.7,1.5-1.3,2.3-2c0.8-0.7,1.5-1.4,2.2-2.1c0.4-0.4,0.7-0.8,1-1.1
				c0.3-0.3,0.5-0.6,0.8-1c0.3-0.3,0.7-0.5,1.1-0.3c0.4,0.2,0.6,0.5,0.6,0.9V365c0,0.5-0.1,1.2-0.3,2s-0.6,1.7-1.1,2.6
				c-0.5,0.9-1.2,1.6-2.2,2.2C263.6,372.4,262.4,372.8,260.9,372.8z M267.1,345.8c-0.3,0.3-0.5,0.6-0.8,0.9c-0.3,0.3-0.6,0.7-1,1.1
				c-0.7,0.8-1.5,1.5-2.3,2.2c-0.8,0.7-1.5,1.3-2.3,2c-0.8,0.6-1.5,1.2-2.3,1.8c-0.7,0.6-1.4,1.3-2,2c-0.9,1.1-1.7,2.3-2.1,3.6
				c-0.5,1.3-0.7,2.7-0.7,4.2c0,1,0.1,2,0.4,3c0.3,1,0.7,1.9,1.3,2.6c0.6,0.8,1.3,1.4,2.3,1.9c0.9,0.5,2,0.7,3.3,0.7
				c1.3,0,2.3-0.3,3.1-0.8c0.8-0.5,1.4-1.2,1.9-1.9c0.5-0.8,0.8-1.5,0.9-2.3c0.2-0.8,0.3-1.4,0.3-1.8V345.8z"/>
		</g>
		<g>
			<path class="st1" d="M320.7,377.9h-27.1c-0.4,0-0.8-0.1-1.1-0.4c-0.3-0.2-0.4-0.5-0.5-0.8c-0.1-0.3,0-0.7,0.2-0.9
				c0.2-0.3,0.5-0.4,0.9-0.5c0.3,0,0.8-0.1,1.4-0.3c0.6-0.2,1.2-0.5,1.8-0.9c0.6-0.4,1.2-1,1.6-1.8c0.5-0.8,0.7-1.9,0.7-3.4v-32.3
				c0-0.3-0.1-0.4-0.3-0.4c-0.1,0-0.3-0.1-0.9-0.2c-0.5-0.1-1-0.2-1.6-0.4c-0.6-0.2-1.2-0.3-1.7-0.4c-0.5-0.1-0.9-0.2-1-0.2
				c-0.9-0.2-1.1-0.9-1.1-1.2c0-0.4,0.1-1,1.2-1.3c1.5-0.3,3.1-0.8,4.8-1.4c1.7-0.6,3.5-1.3,5.2-2c1.8-0.7,3.5-1.5,5.1-2.4
				c1.6-0.8,3.1-1.7,4.4-2.6c0.4-0.3,0.9-0.4,1.4-0.4c0.3,0,1,0.2,1,1.4v6.1c1.3-2.1,2.8-3.8,4.7-5c2.4-1.5,5.1-2.3,8-2.3
				c1.7,0,3.1,0.2,4.3,0.6c1.2,0.4,2.1,1,2.9,1.7c0.7,0.7,1.3,1.6,1.6,2.5c0.3,0.9,0.5,2,0.5,3c0,2-0.6,3.5-1.9,4.7
				c-1.3,1.1-2.9,1.7-5,1.7c-1.6,0-2.9-0.3-3.8-0.9c-0.9-0.6-1.6-1.2-2.3-1.8c-0.6-0.6-1.1-1.2-1.6-1.8c-0.8-0.8-1.9-0.9-3.3-0.1
				c-0.7,0.4-1.3,1.2-1.9,2.3c-0.6,1.2-1.1,2.8-1.5,4.9c-0.4,2.1-0.6,4.9-0.6,8.2v19.8c0,1.4,0.2,2.6,0.7,3.4c0.5,0.8,1,1.4,1.6,1.8
				c0.6,0.4,1.2,0.7,1.8,0.9c0.6,0.2,1.1,0.3,1.4,0.3c0.5,0.1,0.8,0.3,1,0.6c0.2,0.3,0.3,0.6,0.2,1c-0.1,0.3-0.2,0.6-0.5,0.8
				C321.5,377.8,321.1,377.9,320.7,377.9z M314.3,324.7c-0.2,0-0.4,0.1-0.6,0.2c-1.3,0.9-2.8,1.8-4.5,2.6c-1.6,0.9-3.4,1.7-5.2,2.4
				c-1.8,0.7-3.6,1.4-5.3,2c-1.7,0.6-3.4,1.1-4.9,1.4c-0.5,0.1-0.4,0.3-0.4,0.3c0,0.1,0,0.2,0.4,0.3c0.2,0,0.5,0.1,0.9,0.2
				c0.5,0.1,1.1,0.3,1.7,0.4c0.6,0.2,1.2,0.3,1.6,0.4c0.4,0.1,0.6,0.1,0.7,0.2l0.1,0c0.7,0.2,1.1,0.7,1.1,1.4v32.3
				c0,1.6-0.3,2.9-0.8,3.9c-0.6,0.9-1.2,1.7-1.9,2.2c-0.7,0.5-1.4,0.8-2.1,1c-0.7,0.2-1.2,0.3-1.5,0.3c-0.1,0-0.3,0.1-0.3,0.2
				c-0.1,0.1-0.1,0.1,0,0.1c0,0,0,0.1,0.2,0.2c0.1,0.1,0.2,0.1,0.4,0.1h27.1c0.2,0,0.3,0,0.4-0.1c0.1-0.1,0.1-0.2,0.2-0.2
				c0,0,0-0.1,0-0.1c-0.1-0.1-0.2-0.1-0.4-0.2c-0.3,0-0.7-0.1-1.4-0.3c-0.7-0.2-1.4-0.5-2.1-1c-0.7-0.5-1.4-1.2-1.9-2.2
				c-0.6-1-0.8-2.3-0.8-3.9v-19.8c0-3.4,0.2-6.2,0.6-8.4c0.4-2.2,1-3.9,1.6-5.2c0.7-1.3,1.4-2.2,2.3-2.7c1.8-1.1,3.5-0.9,4.6,0.2
				c0.5,0.5,1,1.1,1.6,1.7c0.6,0.6,1.3,1.2,2.1,1.7c0.8,0.5,1.9,0.7,3.2,0.7c1.8,0,3.3-0.5,4.4-1.4c1.1-0.9,1.6-2.2,1.6-3.9
				c0-0.9-0.1-1.8-0.4-2.7c-0.3-0.8-0.7-1.5-1.4-2.2c-0.6-0.6-1.5-1.1-2.5-1.5c-1.1-0.4-2.4-0.6-3.9-0.6c-2.8,0-5.3,0.7-7.5,2.1
				c-2.2,1.4-4,3.5-5.3,6.4l-1,2.1V325c0-0.3-0.1-0.4-0.1-0.4C314.3,324.7,314.3,324.7,314.3,324.7z"/>
		</g>
		<g>
			<path class="st1" d="M443.6,377.9h-27.1c-0.4,0-0.8-0.1-1.1-0.4c-0.3-0.2-0.4-0.5-0.5-0.8c-0.1-0.3,0-0.7,0.2-0.9
				c0.2-0.3,0.5-0.4,0.9-0.5c0.3,0,0.8-0.1,1.4-0.3c0.6-0.2,1.2-0.5,1.8-0.9c0.6-0.4,1.2-1,1.6-1.8c0.5-0.8,0.7-1.9,0.7-3.4v-32.3
				c0-0.3-0.1-0.4-0.3-0.4c-0.1,0-0.3,0-0.9-0.2c-0.5-0.1-1-0.2-1.6-0.4c-0.6-0.2-1.2-0.3-1.7-0.4c-0.5-0.1-0.9-0.2-1-0.2
				c-0.9-0.2-1.1-0.9-1.1-1.2c0-0.4,0.1-1,1.2-1.3c1.5-0.3,3.1-0.8,4.8-1.4c1.7-0.6,3.5-1.3,5.2-2c1.7-0.7,3.5-1.5,5.1-2.4
				c1.6-0.8,3.1-1.7,4.4-2.6c0.4-0.3,0.9-0.4,1.4-0.4c0.3,0,1,0.2,1,1.4v6.1c1.3-2.1,2.8-3.8,4.7-5c2.4-1.5,5.1-2.3,8-2.3
				c1.7,0,3.1,0.2,4.3,0.6c1.2,0.4,2.1,1,2.9,1.7c0.7,0.7,1.3,1.6,1.6,2.5c0.3,0.9,0.5,2,0.5,3c0,2-0.6,3.5-1.9,4.7
				c-1.3,1.1-3,1.7-5,1.7c-1.6,0-2.9-0.3-3.8-0.9c-0.9-0.6-1.6-1.2-2.3-1.8c-0.6-0.6-1.1-1.2-1.6-1.8c-0.8-0.8-1.9-0.9-3.3-0.1
				c-0.7,0.4-1.3,1.2-1.9,2.3c-0.6,1.2-1.1,2.8-1.5,4.9c-0.4,2.1-0.6,4.9-0.6,8.2v19.8c0,1.4,0.2,2.6,0.7,3.4c0.5,0.8,1,1.4,1.6,1.8
				c0.6,0.4,1.2,0.7,1.8,0.9c0.6,0.2,1.1,0.3,1.4,0.3c0.5,0.1,0.8,0.3,1,0.6c0.2,0.3,0.3,0.6,0.2,1c-0.1,0.3-0.2,0.6-0.5,0.8
				C444.3,377.8,444,377.9,443.6,377.9z M437.1,324.7c-0.2,0-0.4,0.1-0.6,0.2c-1.3,0.9-2.8,1.8-4.5,2.6c-1.7,0.9-3.4,1.7-5.2,2.4
				c-1.8,0.7-3.5,1.4-5.3,2c-1.8,0.6-3.4,1.1-4.9,1.4c-0.5,0.1-0.4,0.3-0.4,0.3c0,0.1,0,0.2,0.4,0.3c0.2,0,0.5,0.1,0.9,0.2
				c0.5,0.1,1.1,0.3,1.7,0.4c0.6,0.2,1.2,0.3,1.6,0.4c0.4,0.1,0.6,0.1,0.7,0.2l0.1,0c0.7,0.2,1.1,0.7,1.1,1.4v32.3
				c0,1.6-0.3,2.9-0.8,3.9c-0.6,0.9-1.2,1.7-1.9,2.2c-0.7,0.5-1.4,0.8-2.1,1c-0.7,0.2-1.2,0.3-1.5,0.3c-0.1,0-0.3,0.1-0.3,0.2
				c-0.1,0.1-0.1,0.1,0,0.1c0,0,0,0.1,0.2,0.2c0.1,0.1,0.2,0.1,0.4,0.1h27.1c0.2,0,0.3,0,0.4-0.1c0.1-0.1,0.1-0.2,0.2-0.2
				c0,0,0-0.1,0-0.1c-0.1-0.1-0.2-0.1-0.4-0.2c-0.3,0-0.7-0.1-1.4-0.3c-0.7-0.2-1.4-0.5-2.1-1c-0.7-0.5-1.4-1.2-1.9-2.2
				c-0.6-1-0.8-2.3-0.8-3.9v-19.8c0-3.4,0.2-6.2,0.6-8.4c0.4-2.2,1-3.9,1.6-5.2c0.7-1.3,1.4-2.2,2.3-2.7c1.8-1.1,3.5-0.9,4.6,0.2
				c0.5,0.5,1,1.1,1.6,1.7c0.6,0.6,1.3,1.2,2.1,1.7c0.8,0.5,1.9,0.7,3.2,0.7c1.8,0,3.3-0.5,4.4-1.4c1.1-0.9,1.6-2.2,1.6-3.9
				c0-0.9-0.1-1.8-0.4-2.7c-0.3-0.8-0.7-1.5-1.4-2.2c-0.6-0.6-1.5-1.1-2.5-1.5c-1.1-0.4-2.4-0.6-3.9-0.6c-2.8,0-5.3,0.7-7.5,2.1
				c-2.2,1.4-4,3.5-5.3,6.4l-1,2.1V325c0-0.3-0.1-0.4-0.1-0.4C437.2,324.7,437.1,324.7,437.1,324.7z"/>
		</g>
		<g>
			<g>
				<g>
					<path class="st1" d="M358.1,384.7c-15.7,0-28.6-12.8-28.6-28.6s12.8-28.6,28.6-28.6c15.7,0,28.6,12.8,28.6,28.6
						S373.9,384.7,358.1,384.7z M358.1,334.6c-11.9,0-21.6,9.7-21.6,21.6s9.7,21.6,21.6,21.6c11.9,0,21.6-9.7,21.6-21.6
						S370,334.6,358.1,334.6z"/>
				</g>
			</g>
			<g>
				<g>
					<path class="st1" d="M368.9,371.8"/>
				</g>
			</g>
			<g>
				<g>
					<path class="st1" d="M387.3,384c-4.2,0-8-1.2-8.1-1.2c-1.5-0.5-2.9-1-4.3-1.7c-3.3-1.7-6.3-4.1-8.7-7l0,0
						c-0.3-0.3-0.6-0.7-1-1.2c-1.8-2.4-3.2-5.2-4.1-8.1c-0.1-0.2-1.2-4-1.2-8.2c0-15.1,12.3-27.4,27.4-27.4
						c15.1,0,27.4,12.3,27.4,27.4S402.4,384,387.3,384z M387.3,336.1c-11.3,0-20.4,9.2-20.4,20.4c0,3,0.9,6.1,0.9,6.1
						c0.7,2.1,1.7,4.2,3.1,6c0.3,0.4,0.5,0.7,0.7,0.9l0,0c1.8,2.1,4,3.9,6.5,5.2c1,0.5,2.1,1,3.2,1.3c0,0,3,0.9,6.1,0.9
						c11.3,0,20.4-9.2,20.4-20.4S398.6,336.1,387.3,336.1z"/>
				</g>
			</g>
			<g>
				<path class="st1" d="M352.8,331.7l-4.4-8c0,0-1.4-3.4,2.2-2.9c3.6,0.4,11.4-0.4,11.4-0.4s2.9,0.1,2.2,2.6s-4.6,8.2-4.6,8.2"/>
			</g>
		</g>
		<g>
			<polygon class="st1" points="357,334.1 343.4,320 348.2,313.2 365.5,313.3 371.3,320 			"/>
		</g>
	</g>
</g>
</svg>
