<?xml version="1.0" encoding="utf-8"?>
<!-- Generator: Adobe Illustrator 23.0.0, SVG Export Plug-In . SVG Version: 6.00 Build 0)  -->
<svg version="1.1" id="Layer_1" xmlns="http://www.w3.org/2000/svg" xmlns:xlink="http://www.w3.org/1999/xlink" x="0px" y="0px"
	 viewBox="0 0 94 97" style="enable-background:new 0 0 94 97;" xml:space="preserve">
<style type="text/css">
	.st0{fill:#B53368;}
	.st1{fill:#FFFFFF;}
</style>
<g>
	<circle class="st0" cx="47.9" cy="49.5" r="37.2"/>
	<g>
		<path class="st1" d="M58,68.3c-0.7-0.1-1.3-0.2-2-0.3c-2.3-0.5-4.5-1.5-6.5-2.6c-3-1.8-5.7-3.9-8.2-6.3c-2.2-2.1-4.4-4.4-6.3-6.8
			c-2.2-2.8-4.1-5.8-5.2-9.2c-0.3-1.1-0.5-2.2-0.7-3.3c0-0.1,0-0.2-0.1-0.3c0-0.6,0-1.1,0-1.7c0.1-0.7,0.2-1.4,0.4-2
			c0.3-1.1,0.9-2,1.9-2.7c1.1-0.7,2.2-1.4,3.4-2c1.1-0.6,2.3-0.4,3,0.7c1.7,2.5,3.4,5,5,7.6c0.7,1.1,0.5,2.3-0.5,3
			c-0.9,0.7-1.7,1.4-2.6,2c-0.6,0.5-0.7,0.9-0.3,1.6c1,2,2.4,3.8,3.9,5.4c1.9,2,3.8,3.9,6.1,5.5c0.8,0.5,1.6,1,2.4,1.4
			c0.5,0.3,1,0.2,1.4-0.3c0.7-0.8,1.3-1.7,2-2.6c0.9-1.2,2.1-1.3,3.3-0.5c2.3,1.5,4.6,3.1,6.9,4.6c0.7,0.5,1.3,1,1.5,1.8
			c0,0.2,0,0.5,0,0.7c-0.1,0.3-0.2,0.6-0.3,0.8c-0.7,1.1-1.3,2.2-2,3.3c-0.6,1-1.5,1.6-2.7,1.9c-0.6,0.1-1.3,0.2-1.9,0.4
			C59.2,68.3,58.6,68.3,58,68.3z M30.3,38.2c0.1,0.8,0.1,1.5,0.2,2.1c0.1,0.7,0.3,1.4,0.5,2.1c0.8,2.7,2.2,5.1,3.8,7.3
			c2.9,4,6.3,7.5,10.1,10.7c2.6,2.2,5.4,4.1,8.5,5.4c2.3,1,4.7,1.5,7.3,1.1c1.3-0.2,2.3-0.8,3-1.9c0.5-0.9,1.1-1.8,1.6-2.7
			c0.4-0.7,0.3-1.2-0.3-1.6c-2.4-1.6-4.8-3.2-7.2-4.8c-0.7-0.5-1.1-0.4-1.6,0.3c-0.7,0.9-1.3,1.7-2,2.6c-0.8,1-1.9,1.2-3,0.6
			c-0.6-0.3-1.2-0.6-1.7-1c-2-1.2-3.7-2.9-5.4-4.5c-2.2-2.2-4.3-4.5-5.7-7.3c-0.6-1.2-0.4-2.3,0.6-3.1c0.9-0.7,1.7-1.3,2.6-2
			c0.6-0.4,0.6-0.9,0.2-1.5c-1.6-2.5-3.3-4.9-4.9-7.4c-0.4-0.6-0.9-0.7-1.5-0.3c-1,0.6-2,1.2-3,1.8c-0.8,0.5-1.4,1.2-1.6,2.1
			C30.5,36.7,30.4,37.5,30.3,38.2z"/>
		<path class="st1" d="M51,35.7c5.2,0.2,9.8,3.9,11,9.2c0.2,0.8,0.2,1.7,0.3,2.5c0,0.5-0.2,0.8-0.6,0.8c-0.4,0-0.6-0.3-0.7-0.8
			c-0.1-0.9-0.2-1.9-0.4-2.8c-0.8-2.9-2.6-5.1-5.3-6.5c-1.4-0.8-2.9-1.1-4.5-1.2c-0.2,0-0.3,0-0.5-0.1c-0.3-0.1-0.5-0.2-0.5-0.6
			c0-0.3,0.2-0.6,0.5-0.6C50.5,35.7,50.8,35.7,51,35.7z"/>
		<path class="st1" d="M50.8,39.4c4.2,0.2,7.7,3.8,7.7,8c0,0.5-0.2,0.8-0.6,0.8c-0.4,0-0.6-0.3-0.6-0.7c-0.2-2.8-1.5-4.9-4.1-6.2
			c-0.8-0.4-1.6-0.6-2.4-0.6c-0.2,0-0.3,0-0.5,0c-0.4-0.1-0.6-0.3-0.5-0.7c0-0.3,0.3-0.5,0.6-0.6C50.6,39.4,50.7,39.4,50.8,39.4z"/>
		<path class="st1" d="M50.7,43.2c2.2,0.1,4.2,2,4.2,4.3c0,0.4-0.2,0.7-0.6,0.7c-0.3,0-0.6-0.2-0.7-0.6c-0.1-1-0.4-1.8-1.2-2.4
			c-0.5-0.4-1-0.6-1.6-0.7c-0.1,0-0.3,0-0.4,0c-0.4-0.1-0.5-0.3-0.5-0.7c0-0.3,0.3-0.5,0.6-0.6C50.5,43.2,50.6,43.2,50.7,43.2z"/>
	</g>
</g>
</svg>
